<svg width="194" height="574" viewBox="0 0 194 574" fill="none" xmlns="http://www.w3.org/2000/svg">
<path opacity="0.6" d="M18.1 24.302V23.302H17.1V24.302H18.1ZM54 24.302V25.302H55V24.302H54ZM54 14.0019H55V13.0019H54V14.0019ZM7.9 14.0019V13.0019H6.9V14.0019H7.9ZM7.9 84.002H6.9V85.002H7.9V84.002ZM18.1 84.002V85.002H19.1V84.002H18.1ZM18.1 54.202L18.0972 53.202L17.1 53.2047V54.202H18.1ZM54 54.102L54.0028 55.1019L55 55.0992V54.102H54ZM54 43.802H55V42.7992L53.9972 42.802L54 43.802ZM18.1 43.902H17.1V44.9047L18.1028 44.9019L18.1 43.902ZM18.1 25.302H54V23.302H18.1V25.302ZM55 24.302V14.0019H53V24.302H55ZM54 13.0019H7.9V15.0019H54V13.0019ZM6.9 14.0019V84.002H8.9V14.0019H6.9ZM7.9 85.002H18.1V83.002H7.9V85.002ZM19.1 84.002V54.202H17.1V84.002H19.1ZM18.1028 55.202L54.0028 55.1019L53.9972 53.102L18.0972 53.202L18.1028 55.202ZM55 54.102V43.802H53V54.102H55ZM53.9972 42.802L18.0972 42.902L18.1028 44.9019L54.0028 44.8019L53.9972 42.802ZM19.1 43.902V24.302H17.1V43.902H19.1ZM72.8852 84.002V85.002H73.8852V84.002H72.8852ZM72.8852 54.202V53.202H71.8852V54.202H72.8852ZM98.4852 54.202H99.4852V53.202H98.4852V54.202ZM98.4852 84.002H97.4852V85.002H98.4852V84.002ZM108.785 84.002V85.002H109.785V84.002H108.785ZM108.785 14.0019H109.785V13.0019H108.785V14.0019ZM62.6852 14.0019V13.0019H61.6852V14.0019H62.6852ZM62.6852 84.002H61.6852V85.002H62.6852V84.002ZM72.8852 24.302V23.302H71.8852V24.302H72.8852ZM98.4852 24.302H99.4852V23.302H98.4852V24.302ZM98.4852 43.902V44.902H99.4852V43.902H98.4852ZM72.8852 43.902H71.8852V44.902H72.8852V43.902ZM73.8852 84.002V54.202H71.8852V84.002H73.8852ZM72.8852 55.202H98.4852V53.202H72.8852V55.202ZM97.4852 54.202V84.002H99.4852V54.202H97.4852ZM98.4852 85.002H108.785V83.002H98.4852V85.002ZM109.785 84.002V14.0019H107.785V84.002H109.785ZM108.785 13.0019H62.6852V15.0019H108.785V13.0019ZM61.6852 14.0019V84.002H63.6852V14.0019H61.6852ZM62.6852 85.002H72.8852V83.002H62.6852V85.002ZM72.8852 25.302H98.4852V23.302H72.8852V25.302ZM97.4852 24.302V43.902H99.4852V24.302H97.4852ZM98.4852 42.902H72.8852V44.902H98.4852V42.902ZM73.8852 43.902V24.302H71.8852V43.902H73.8852ZM171.368 81.502L172.19 80.9323L171.674 80.188L170.882 80.6278L171.368 81.502ZM177.468 90.302L176.646 90.8717L177.215 91.692L178.036 91.1248L177.468 90.302ZM185.868 84.502L186.436 85.3249L187.26 84.756L186.69 83.9327L185.868 84.502ZM179.568 75.402L178.861 74.6948L178.271 75.285L178.746 75.9712L179.568 75.402ZM134.168 67.802L134.875 67.0948L134.868 67.0879L134.168 67.802ZM134.168 29.902L134.868 30.6161L134.875 30.6091L134.168 29.902ZM172.168 29.902L171.461 30.6091L171.468 30.616L172.168 29.902ZM173.368 66.502L172.541 67.064L173.259 68.1204L174.112 67.1701L173.368 66.502ZM168.068 58.702L168.895 58.1399L168.329 57.3066L167.5 57.8791L168.068 58.702ZM159.668 64.502L159.1 63.6791L158.279 64.2458L158.844 65.0681L159.668 64.502ZM165.368 72.802L165.825 73.6915L166.836 73.1725L166.192 72.2358L165.368 72.802ZM191.568 48.902C191.568 27.6479 174.319 10.502 153.168 10.502V12.502C173.217 12.502 189.568 28.756 189.568 48.902H191.568ZM153.168 10.502C131.916 10.502 114.768 27.6497 114.768 48.902H116.768C116.768 28.7542 133.02 12.502 153.168 12.502V10.502ZM114.768 48.902C114.768 70.0525 131.914 87.302 153.168 87.302V85.302C133.022 85.302 116.768 68.9514 116.768 48.902H114.768ZM153.168 87.302C159.952 87.302 166.318 85.4514 171.854 82.3761L170.882 80.6278C165.618 83.5525 159.584 85.302 153.168 85.302V87.302ZM170.546 82.0716L176.646 90.8717L178.29 89.7323L172.19 80.9323L170.546 82.0716ZM178.036 91.1248L186.436 85.3249L185.3 83.6791L176.9 89.4791L178.036 91.1248ZM186.69 83.9327L180.39 74.8327L178.746 75.9712L185.046 85.0712L186.69 83.9327ZM180.275 76.1091C187.255 69.1296 191.568 59.4783 191.568 48.902H189.568C189.568 58.9256 185.481 68.0743 178.861 74.6948L180.275 76.1091ZM153.168 74.702C146.236 74.702 139.789 72.0092 134.875 67.0948L133.461 68.5091C138.747 73.7947 145.7 76.702 153.168 76.702V74.702ZM134.868 67.0879C129.963 62.2791 127.268 55.7379 127.268 48.902H125.268C125.268 56.2661 128.173 63.3248 133.468 68.516L134.868 67.0879ZM127.268 48.902C127.268 41.964 129.965 35.4234 134.868 30.616L133.468 29.1879C128.171 34.3805 125.268 41.4399 125.268 48.902H127.268ZM134.875 30.6091C139.789 25.6947 146.236 23.002 153.168 23.002V21.002C145.7 21.002 138.747 23.9092 133.461 29.1948L134.875 30.6091ZM153.168 23.002C160.1 23.002 166.547 25.6947 171.461 30.6091L172.875 29.1948C167.589 23.9092 160.636 21.002 153.168 21.002V23.002ZM171.468 30.616C176.365 35.4168 178.968 41.9543 178.968 48.902H180.968C180.968 41.4496 178.171 34.3871 172.868 29.1879L171.468 30.616ZM178.968 48.902C178.968 55.1722 176.848 61.1296 172.624 65.8338L174.112 67.1701C178.688 62.0743 180.968 55.6317 180.968 48.902H178.968ZM174.195 65.9399L168.895 58.1399L167.241 59.264L172.541 67.064L174.195 65.9399ZM167.5 57.8791L159.1 63.6791L160.236 65.3249L168.636 59.5248L167.5 57.8791ZM158.844 65.0681L164.544 73.3681L166.192 72.2358L160.492 63.9358L158.844 65.0681ZM164.911 71.9124C161.357 73.7375 157.314 74.702 153.168 74.702V76.702C157.622 76.702 161.979 75.6664 165.825 73.6915L164.911 71.9124Z" fill="url(#paint0_linear)"/>
<g opacity="0.5">
<path d="M18.1 120.302V119.302H17.1V120.302H18.1ZM54 120.302V121.302H55V120.302H54ZM54 110.002H55V109.002H54V110.002ZM7.9 110.002V109.002H6.9V110.002H7.9ZM7.9 180.002H6.9V181.002H7.9V180.002ZM18.1 180.002V181.002H19.1V180.002H18.1ZM18.1 150.202L18.0972 149.202L17.1 149.205V150.202H18.1ZM54 150.102L54.0028 151.102L55 151.099V150.102H54ZM54 139.802H55V138.799L53.9972 138.802L54 139.802ZM18.1 139.902H17.1V140.905L18.1028 140.902L18.1 139.902ZM18.1 121.302H54V119.302H18.1V121.302ZM55 120.302V110.002H53V120.302H55ZM54 109.002H7.9V111.002H54V109.002ZM6.9 110.002V180.002H8.9V110.002H6.9ZM7.9 181.002H18.1V179.002H7.9V181.002ZM19.1 180.002V150.202H17.1V180.002H19.1ZM18.1028 151.202L54.0028 151.102L53.9972 149.102L18.0972 149.202L18.1028 151.202ZM55 150.102V139.802H53V150.102H55ZM53.9972 138.802L18.0972 138.902L18.1028 140.902L54.0028 140.802L53.9972 138.802ZM19.1 139.902V120.302H17.1V139.902H19.1ZM72.8852 180.002V181.002H73.8852V180.002H72.8852ZM72.8852 150.202V149.202H71.8852V150.202H72.8852ZM98.4852 150.202H99.4852V149.202H98.4852V150.202ZM98.4852 180.002H97.4852V181.002H98.4852V180.002ZM108.785 180.002V181.002H109.785V180.002H108.785ZM108.785 110.002H109.785V109.002H108.785V110.002ZM62.6852 110.002V109.002H61.6852V110.002H62.6852ZM62.6852 180.002H61.6852V181.002H62.6852V180.002ZM72.8852 120.302V119.302H71.8852V120.302H72.8852ZM98.4852 120.302H99.4852V119.302H98.4852V120.302ZM98.4852 139.902V140.902H99.4852V139.902H98.4852ZM72.8852 139.902H71.8852V140.902H72.8852V139.902ZM73.8852 180.002V150.202H71.8852V180.002H73.8852ZM72.8852 151.202H98.4852V149.202H72.8852V151.202ZM97.4852 150.202V180.002H99.4852V150.202H97.4852ZM98.4852 181.002H108.785V179.002H98.4852V181.002ZM109.785 180.002V110.002H107.785V180.002H109.785ZM108.785 109.002H62.6852V111.002H108.785V109.002ZM61.6852 110.002V180.002H63.6852V110.002H61.6852ZM62.6852 181.002H72.8852V179.002H62.6852V181.002ZM72.8852 121.302H98.4852V119.302H72.8852V121.302ZM97.4852 120.302V139.902H99.4852V120.302H97.4852ZM98.4852 138.902H72.8852V140.902H98.4852V138.902ZM73.8852 139.902V120.302H71.8852V139.902H73.8852ZM171.368 177.502L172.19 176.932L171.674 176.188L170.882 176.628L171.368 177.502ZM177.468 186.302L176.646 186.872L177.215 187.692L178.036 187.125L177.468 186.302ZM185.868 180.502L186.436 181.325L187.26 180.756L186.69 179.933L185.868 180.502ZM179.568 171.402L178.861 170.695L178.271 171.285L178.746 171.971L179.568 171.402ZM134.168 163.802L134.875 163.095L134.868 163.088L134.168 163.802ZM134.168 125.902L134.868 126.616L134.875 126.609L134.168 125.902ZM172.168 125.902L171.461 126.609L171.468 126.616L172.168 125.902ZM173.368 162.502L172.541 163.064L173.259 164.12L174.112 163.17L173.368 162.502ZM168.068 154.702L168.895 154.14L168.329 153.307L167.5 153.879L168.068 154.702ZM159.668 160.502L159.1 159.679L158.279 160.246L158.844 161.068L159.668 160.502ZM165.368 168.802L165.825 169.692L166.836 169.172L166.192 168.236L165.368 168.802ZM191.568 144.902C191.568 123.648 174.319 106.502 153.168 106.502V108.502C173.217 108.502 189.568 124.756 189.568 144.902H191.568ZM153.168 106.502C131.916 106.502 114.768 123.65 114.768 144.902H116.768C116.768 124.754 133.02 108.502 153.168 108.502V106.502ZM114.768 144.902C114.768 166.052 131.914 183.302 153.168 183.302V181.302C133.022 181.302 116.768 164.951 116.768 144.902H114.768ZM153.168 183.302C159.952 183.302 166.318 181.451 171.854 178.376L170.882 176.628C165.618 179.553 159.584 181.302 153.168 181.302V183.302ZM170.546 178.072L176.646 186.872L178.29 185.732L172.19 176.932L170.546 178.072ZM178.036 187.125L186.436 181.325L185.3 179.679L176.9 185.479L178.036 187.125ZM186.69 179.933L180.39 170.833L178.746 171.971L185.046 181.071L186.69 179.933ZM180.275 172.109C187.255 165.13 191.568 155.478 191.568 144.902H189.568C189.568 154.926 185.481 164.074 178.861 170.695L180.275 172.109ZM153.168 170.702C146.236 170.702 139.789 168.009 134.875 163.095L133.461 164.509C138.747 169.795 145.7 172.702 153.168 172.702V170.702ZM134.868 163.088C129.963 158.279 127.268 151.738 127.268 144.902H125.268C125.268 152.266 128.173 159.325 133.468 164.516L134.868 163.088ZM127.268 144.902C127.268 137.964 129.965 131.423 134.868 126.616L133.468 125.188C128.171 130.38 125.268 137.44 125.268 144.902H127.268ZM134.875 126.609C139.789 121.695 146.236 119.002 153.168 119.002V117.002C145.7 117.002 138.747 119.909 133.461 125.195L134.875 126.609ZM153.168 119.002C160.1 119.002 166.547 121.695 171.461 126.609L172.875 125.195C167.589 119.909 160.636 117.002 153.168 117.002V119.002ZM171.468 126.616C176.365 131.417 178.968 137.954 178.968 144.902H180.968C180.968 137.45 178.171 130.387 172.868 125.188L171.468 126.616ZM178.968 144.902C178.968 151.172 176.848 157.13 172.624 161.834L174.112 163.17C178.688 158.074 180.968 151.632 180.968 144.902H178.968ZM174.195 161.94L168.895 154.14L167.241 155.264L172.541 163.064L174.195 161.94ZM167.5 153.879L159.1 159.679L160.236 161.325L168.636 155.525L167.5 153.879ZM158.844 161.068L164.544 169.368L166.192 168.236L160.492 159.936L158.844 161.068ZM164.911 167.912C161.357 169.737 157.314 170.702 153.168 170.702V172.702C157.622 172.702 161.979 171.666 165.825 169.692L164.911 167.912Z" fill="black"/>
<path d="M18.1 120.302V119.302H17.1V120.302H18.1ZM54 120.302V121.302H55V120.302H54ZM54 110.002H55V109.002H54V110.002ZM7.9 110.002V109.002H6.9V110.002H7.9ZM7.9 180.002H6.9V181.002H7.9V180.002ZM18.1 180.002V181.002H19.1V180.002H18.1ZM18.1 150.202L18.0972 149.202L17.1 149.205V150.202H18.1ZM54 150.102L54.0028 151.102L55 151.099V150.102H54ZM54 139.802H55V138.799L53.9972 138.802L54 139.802ZM18.1 139.902H17.1V140.905L18.1028 140.902L18.1 139.902ZM18.1 121.302H54V119.302H18.1V121.302ZM55 120.302V110.002H53V120.302H55ZM54 109.002H7.9V111.002H54V109.002ZM6.9 110.002V180.002H8.9V110.002H6.9ZM7.9 181.002H18.1V179.002H7.9V181.002ZM19.1 180.002V150.202H17.1V180.002H19.1ZM18.1028 151.202L54.0028 151.102L53.9972 149.102L18.0972 149.202L18.1028 151.202ZM55 150.102V139.802H53V150.102H55ZM53.9972 138.802L18.0972 138.902L18.1028 140.902L54.0028 140.802L53.9972 138.802ZM19.1 139.902V120.302H17.1V139.902H19.1ZM72.8852 180.002V181.002H73.8852V180.002H72.8852ZM72.8852 150.202V149.202H71.8852V150.202H72.8852ZM98.4852 150.202H99.4852V149.202H98.4852V150.202ZM98.4852 180.002H97.4852V181.002H98.4852V180.002ZM108.785 180.002V181.002H109.785V180.002H108.785ZM108.785 110.002H109.785V109.002H108.785V110.002ZM62.6852 110.002V109.002H61.6852V110.002H62.6852ZM62.6852 180.002H61.6852V181.002H62.6852V180.002ZM72.8852 120.302V119.302H71.8852V120.302H72.8852ZM98.4852 120.302H99.4852V119.302H98.4852V120.302ZM98.4852 139.902V140.902H99.4852V139.902H98.4852ZM72.8852 139.902H71.8852V140.902H72.8852V139.902ZM73.8852 180.002V150.202H71.8852V180.002H73.8852ZM72.8852 151.202H98.4852V149.202H72.8852V151.202ZM97.4852 150.202V180.002H99.4852V150.202H97.4852ZM98.4852 181.002H108.785V179.002H98.4852V181.002ZM109.785 180.002V110.002H107.785V180.002H109.785ZM108.785 109.002H62.6852V111.002H108.785V109.002ZM61.6852 110.002V180.002H63.6852V110.002H61.6852ZM62.6852 181.002H72.8852V179.002H62.6852V181.002ZM72.8852 121.302H98.4852V119.302H72.8852V121.302ZM97.4852 120.302V139.902H99.4852V120.302H97.4852ZM98.4852 138.902H72.8852V140.902H98.4852V138.902ZM73.8852 139.902V120.302H71.8852V139.902H73.8852ZM171.368 177.502L172.19 176.932L171.674 176.188L170.882 176.628L171.368 177.502ZM177.468 186.302L176.646 186.872L177.215 187.692L178.036 187.125L177.468 186.302ZM185.868 180.502L186.436 181.325L187.26 180.756L186.69 179.933L185.868 180.502ZM179.568 171.402L178.861 170.695L178.271 171.285L178.746 171.971L179.568 171.402ZM134.168 163.802L134.875 163.095L134.868 163.088L134.168 163.802ZM134.168 125.902L134.868 126.616L134.875 126.609L134.168 125.902ZM172.168 125.902L171.461 126.609L171.468 126.616L172.168 125.902ZM173.368 162.502L172.541 163.064L173.259 164.12L174.112 163.17L173.368 162.502ZM168.068 154.702L168.895 154.14L168.329 153.307L167.5 153.879L168.068 154.702ZM159.668 160.502L159.1 159.679L158.279 160.246L158.844 161.068L159.668 160.502ZM165.368 168.802L165.825 169.692L166.836 169.172L166.192 168.236L165.368 168.802ZM191.568 144.902C191.568 123.648 174.319 106.502 153.168 106.502V108.502C173.217 108.502 189.568 124.756 189.568 144.902H191.568ZM153.168 106.502C131.916 106.502 114.768 123.65 114.768 144.902H116.768C116.768 124.754 133.02 108.502 153.168 108.502V106.502ZM114.768 144.902C114.768 166.052 131.914 183.302 153.168 183.302V181.302C133.022 181.302 116.768 164.951 116.768 144.902H114.768ZM153.168 183.302C159.952 183.302 166.318 181.451 171.854 178.376L170.882 176.628C165.618 179.553 159.584 181.302 153.168 181.302V183.302ZM170.546 178.072L176.646 186.872L178.29 185.732L172.19 176.932L170.546 178.072ZM178.036 187.125L186.436 181.325L185.3 179.679L176.9 185.479L178.036 187.125ZM186.69 179.933L180.39 170.833L178.746 171.971L185.046 181.071L186.69 179.933ZM180.275 172.109C187.255 165.13 191.568 155.478 191.568 144.902H189.568C189.568 154.926 185.481 164.074 178.861 170.695L180.275 172.109ZM153.168 170.702C146.236 170.702 139.789 168.009 134.875 163.095L133.461 164.509C138.747 169.795 145.7 172.702 153.168 172.702V170.702ZM134.868 163.088C129.963 158.279 127.268 151.738 127.268 144.902H125.268C125.268 152.266 128.173 159.325 133.468 164.516L134.868 163.088ZM127.268 144.902C127.268 137.964 129.965 131.423 134.868 126.616L133.468 125.188C128.171 130.38 125.268 137.44 125.268 144.902H127.268ZM134.875 126.609C139.789 121.695 146.236 119.002 153.168 119.002V117.002C145.7 117.002 138.747 119.909 133.461 125.195L134.875 126.609ZM153.168 119.002C160.1 119.002 166.547 121.695 171.461 126.609L172.875 125.195C167.589 119.909 160.636 117.002 153.168 117.002V119.002ZM171.468 126.616C176.365 131.417 178.968 137.954 178.968 144.902H180.968C180.968 137.45 178.171 130.387 172.868 125.188L171.468 126.616ZM178.968 144.902C178.968 151.172 176.848 157.13 172.624 161.834L174.112 163.17C178.688 158.074 180.968 151.632 180.968 144.902H178.968ZM174.195 161.94L168.895 154.14L167.241 155.264L172.541 163.064L174.195 161.94ZM167.5 153.879L159.1 159.679L160.236 161.325L168.636 155.525L167.5 153.879ZM158.844 161.068L164.544 169.368L166.192 168.236L160.492 159.936L158.844 161.068ZM164.911 167.912C161.357 169.737 157.314 170.702 153.168 170.702V172.702C157.622 172.702 161.979 171.666 165.825 169.692L164.911 167.912Z" fill="url(#paint1_linear)"/>
</g>
<g opacity="0.4">
<path d="M18.1 218.302V217.302H17.1V218.302H18.1ZM54 218.302V219.302H55V218.302H54ZM54 208.002H55V207.002H54V208.002ZM7.9 208.002V207.002H6.9V208.002H7.9ZM7.9 278.002H6.9V279.002H7.9V278.002ZM18.1 278.002V279.002H19.1V278.002H18.1ZM18.1 248.202L18.0972 247.202L17.1 247.205V248.202H18.1ZM54 248.102L54.0028 249.102L55 249.099V248.102H54ZM54 237.802H55V236.799L53.9972 236.802L54 237.802ZM18.1 237.902H17.1V238.905L18.1028 238.902L18.1 237.902ZM18.1 219.302H54V217.302H18.1V219.302ZM55 218.302V208.002H53V218.302H55ZM54 207.002H7.9V209.002H54V207.002ZM6.9 208.002V278.002H8.9V208.002H6.9ZM7.9 279.002H18.1V277.002H7.9V279.002ZM19.1 278.002V248.202H17.1V278.002H19.1ZM18.1028 249.202L54.0028 249.102L53.9972 247.102L18.0972 247.202L18.1028 249.202ZM55 248.102V237.802H53V248.102H55ZM53.9972 236.802L18.0972 236.902L18.1028 238.902L54.0028 238.802L53.9972 236.802ZM19.1 237.902V218.302H17.1V237.902H19.1ZM72.8852 278.002V279.002H73.8852V278.002H72.8852ZM72.8852 248.202V247.202H71.8852V248.202H72.8852ZM98.4852 248.202H99.4852V247.202H98.4852V248.202ZM98.4852 278.002H97.4852V279.002H98.4852V278.002ZM108.785 278.002V279.002H109.785V278.002H108.785ZM108.785 208.002H109.785V207.002H108.785V208.002ZM62.6852 208.002V207.002H61.6852V208.002H62.6852ZM62.6852 278.002H61.6852V279.002H62.6852V278.002ZM72.8852 218.302V217.302H71.8852V218.302H72.8852ZM98.4852 218.302H99.4852V217.302H98.4852V218.302ZM98.4852 237.902V238.902H99.4852V237.902H98.4852ZM72.8852 237.902H71.8852V238.902H72.8852V237.902ZM73.8852 278.002V248.202H71.8852V278.002H73.8852ZM72.8852 249.202H98.4852V247.202H72.8852V249.202ZM97.4852 248.202V278.002H99.4852V248.202H97.4852ZM98.4852 279.002H108.785V277.002H98.4852V279.002ZM109.785 278.002V208.002H107.785V278.002H109.785ZM108.785 207.002H62.6852V209.002H108.785V207.002ZM61.6852 208.002V278.002H63.6852V208.002H61.6852ZM62.6852 279.002H72.8852V277.002H62.6852V279.002ZM72.8852 219.302H98.4852V217.302H72.8852V219.302ZM97.4852 218.302V237.902H99.4852V218.302H97.4852ZM98.4852 236.902H72.8852V238.902H98.4852V236.902ZM73.8852 237.902V218.302H71.8852V237.902H73.8852ZM171.368 275.502L172.19 274.932L171.674 274.188L170.882 274.628L171.368 275.502ZM177.468 284.302L176.646 284.872L177.215 285.692L178.036 285.125L177.468 284.302ZM185.868 278.502L186.436 279.325L187.26 278.756L186.69 277.933L185.868 278.502ZM179.568 269.402L178.861 268.695L178.271 269.285L178.746 269.971L179.568 269.402ZM134.168 261.802L134.875 261.095L134.868 261.088L134.168 261.802ZM134.168 223.902L134.868 224.616L134.875 224.609L134.168 223.902ZM172.168 223.902L171.461 224.609L171.468 224.616L172.168 223.902ZM173.368 260.502L172.541 261.064L173.259 262.12L174.112 261.17L173.368 260.502ZM168.068 252.702L168.895 252.14L168.329 251.307L167.5 251.879L168.068 252.702ZM159.668 258.502L159.1 257.679L158.279 258.246L158.844 259.068L159.668 258.502ZM165.368 266.802L165.825 267.692L166.836 267.172L166.192 266.236L165.368 266.802ZM191.568 242.902C191.568 221.648 174.319 204.502 153.168 204.502V206.502C173.217 206.502 189.568 222.756 189.568 242.902H191.568ZM153.168 204.502C131.916 204.502 114.768 221.65 114.768 242.902H116.768C116.768 222.754 133.02 206.502 153.168 206.502V204.502ZM114.768 242.902C114.768 264.052 131.914 281.302 153.168 281.302V279.302C133.022 279.302 116.768 262.951 116.768 242.902H114.768ZM153.168 281.302C159.952 281.302 166.318 279.451 171.854 276.376L170.882 274.628C165.618 277.553 159.584 279.302 153.168 279.302V281.302ZM170.546 276.072L176.646 284.872L178.29 283.732L172.19 274.932L170.546 276.072ZM178.036 285.125L186.436 279.325L185.3 277.679L176.9 283.479L178.036 285.125ZM186.69 277.933L180.39 268.833L178.746 269.971L185.046 279.071L186.69 277.933ZM180.275 270.109C187.255 263.13 191.568 253.478 191.568 242.902H189.568C189.568 252.926 185.481 262.074 178.861 268.695L180.275 270.109ZM153.168 268.702C146.236 268.702 139.789 266.009 134.875 261.095L133.461 262.509C138.747 267.795 145.7 270.702 153.168 270.702V268.702ZM134.868 261.088C129.963 256.279 127.268 249.738 127.268 242.902H125.268C125.268 250.266 128.173 257.325 133.468 262.516L134.868 261.088ZM127.268 242.902C127.268 235.964 129.965 229.423 134.868 224.616L133.468 223.188C128.171 228.38 125.268 235.44 125.268 242.902H127.268ZM134.875 224.609C139.789 219.695 146.236 217.002 153.168 217.002V215.002C145.7 215.002 138.747 217.909 133.461 223.195L134.875 224.609ZM153.168 217.002C160.1 217.002 166.547 219.695 171.461 224.609L172.875 223.195C167.589 217.909 160.636 215.002 153.168 215.002V217.002ZM171.468 224.616C176.365 229.417 178.968 235.954 178.968 242.902H180.968C180.968 235.45 178.171 228.387 172.868 223.188L171.468 224.616ZM178.968 242.902C178.968 249.172 176.848 255.13 172.624 259.834L174.112 261.17C178.688 256.074 180.968 249.632 180.968 242.902H178.968ZM174.195 259.94L168.895 252.14L167.241 253.264L172.541 261.064L174.195 259.94ZM167.5 251.879L159.1 257.679L160.236 259.325L168.636 253.525L167.5 251.879ZM158.844 259.068L164.544 267.368L166.192 266.236L160.492 257.936L158.844 259.068ZM164.911 265.912C161.357 267.737 157.314 268.702 153.168 268.702V270.702C157.622 270.702 161.979 269.666 165.825 267.692L164.911 265.912Z" fill="black"/>
<path d="M18.1 218.302V217.302H17.1V218.302H18.1ZM54 218.302V219.302H55V218.302H54ZM54 208.002H55V207.002H54V208.002ZM7.9 208.002V207.002H6.9V208.002H7.9ZM7.9 278.002H6.9V279.002H7.9V278.002ZM18.1 278.002V279.002H19.1V278.002H18.1ZM18.1 248.202L18.0972 247.202L17.1 247.205V248.202H18.1ZM54 248.102L54.0028 249.102L55 249.099V248.102H54ZM54 237.802H55V236.799L53.9972 236.802L54 237.802ZM18.1 237.902H17.1V238.905L18.1028 238.902L18.1 237.902ZM18.1 219.302H54V217.302H18.1V219.302ZM55 218.302V208.002H53V218.302H55ZM54 207.002H7.9V209.002H54V207.002ZM6.9 208.002V278.002H8.9V208.002H6.9ZM7.9 279.002H18.1V277.002H7.9V279.002ZM19.1 278.002V248.202H17.1V278.002H19.1ZM18.1028 249.202L54.0028 249.102L53.9972 247.102L18.0972 247.202L18.1028 249.202ZM55 248.102V237.802H53V248.102H55ZM53.9972 236.802L18.0972 236.902L18.1028 238.902L54.0028 238.802L53.9972 236.802ZM19.1 237.902V218.302H17.1V237.902H19.1ZM72.8852 278.002V279.002H73.8852V278.002H72.8852ZM72.8852 248.202V247.202H71.8852V248.202H72.8852ZM98.4852 248.202H99.4852V247.202H98.4852V248.202ZM98.4852 278.002H97.4852V279.002H98.4852V278.002ZM108.785 278.002V279.002H109.785V278.002H108.785ZM108.785 208.002H109.785V207.002H108.785V208.002ZM62.6852 208.002V207.002H61.6852V208.002H62.6852ZM62.6852 278.002H61.6852V279.002H62.6852V278.002ZM72.8852 218.302V217.302H71.8852V218.302H72.8852ZM98.4852 218.302H99.4852V217.302H98.4852V218.302ZM98.4852 237.902V238.902H99.4852V237.902H98.4852ZM72.8852 237.902H71.8852V238.902H72.8852V237.902ZM73.8852 278.002V248.202H71.8852V278.002H73.8852ZM72.8852 249.202H98.4852V247.202H72.8852V249.202ZM97.4852 248.202V278.002H99.4852V248.202H97.4852ZM98.4852 279.002H108.785V277.002H98.4852V279.002ZM109.785 278.002V208.002H107.785V278.002H109.785ZM108.785 207.002H62.6852V209.002H108.785V207.002ZM61.6852 208.002V278.002H63.6852V208.002H61.6852ZM62.6852 279.002H72.8852V277.002H62.6852V279.002ZM72.8852 219.302H98.4852V217.302H72.8852V219.302ZM97.4852 218.302V237.902H99.4852V218.302H97.4852ZM98.4852 236.902H72.8852V238.902H98.4852V236.902ZM73.8852 237.902V218.302H71.8852V237.902H73.8852ZM171.368 275.502L172.19 274.932L171.674 274.188L170.882 274.628L171.368 275.502ZM177.468 284.302L176.646 284.872L177.215 285.692L178.036 285.125L177.468 284.302ZM185.868 278.502L186.436 279.325L187.26 278.756L186.69 277.933L185.868 278.502ZM179.568 269.402L178.861 268.695L178.271 269.285L178.746 269.971L179.568 269.402ZM134.168 261.802L134.875 261.095L134.868 261.088L134.168 261.802ZM134.168 223.902L134.868 224.616L134.875 224.609L134.168 223.902ZM172.168 223.902L171.461 224.609L171.468 224.616L172.168 223.902ZM173.368 260.502L172.541 261.064L173.259 262.12L174.112 261.17L173.368 260.502ZM168.068 252.702L168.895 252.14L168.329 251.307L167.5 251.879L168.068 252.702ZM159.668 258.502L159.1 257.679L158.279 258.246L158.844 259.068L159.668 258.502ZM165.368 266.802L165.825 267.692L166.836 267.172L166.192 266.236L165.368 266.802ZM191.568 242.902C191.568 221.648 174.319 204.502 153.168 204.502V206.502C173.217 206.502 189.568 222.756 189.568 242.902H191.568ZM153.168 204.502C131.916 204.502 114.768 221.65 114.768 242.902H116.768C116.768 222.754 133.02 206.502 153.168 206.502V204.502ZM114.768 242.902C114.768 264.052 131.914 281.302 153.168 281.302V279.302C133.022 279.302 116.768 262.951 116.768 242.902H114.768ZM153.168 281.302C159.952 281.302 166.318 279.451 171.854 276.376L170.882 274.628C165.618 277.553 159.584 279.302 153.168 279.302V281.302ZM170.546 276.072L176.646 284.872L178.29 283.732L172.19 274.932L170.546 276.072ZM178.036 285.125L186.436 279.325L185.3 277.679L176.9 283.479L178.036 285.125ZM186.69 277.933L180.39 268.833L178.746 269.971L185.046 279.071L186.69 277.933ZM180.275 270.109C187.255 263.13 191.568 253.478 191.568 242.902H189.568C189.568 252.926 185.481 262.074 178.861 268.695L180.275 270.109ZM153.168 268.702C146.236 268.702 139.789 266.009 134.875 261.095L133.461 262.509C138.747 267.795 145.7 270.702 153.168 270.702V268.702ZM134.868 261.088C129.963 256.279 127.268 249.738 127.268 242.902H125.268C125.268 250.266 128.173 257.325 133.468 262.516L134.868 261.088ZM127.268 242.902C127.268 235.964 129.965 229.423 134.868 224.616L133.468 223.188C128.171 228.38 125.268 235.44 125.268 242.902H127.268ZM134.875 224.609C139.789 219.695 146.236 217.002 153.168 217.002V215.002C145.7 215.002 138.747 217.909 133.461 223.195L134.875 224.609ZM153.168 217.002C160.1 217.002 166.547 219.695 171.461 224.609L172.875 223.195C167.589 217.909 160.636 215.002 153.168 215.002V217.002ZM171.468 224.616C176.365 229.417 178.968 235.954 178.968 242.902H180.968C180.968 235.45 178.171 228.387 172.868 223.188L171.468 224.616ZM178.968 242.902C178.968 249.172 176.848 255.13 172.624 259.834L174.112 261.17C178.688 256.074 180.968 249.632 180.968 242.902H178.968ZM174.195 259.94L168.895 252.14L167.241 253.264L172.541 261.064L174.195 259.94ZM167.5 251.879L159.1 257.679L160.236 259.325L168.636 253.525L167.5 251.879ZM158.844 259.068L164.544 267.368L166.192 266.236L160.492 257.936L158.844 259.068ZM164.911 265.912C161.357 267.737 157.314 268.702 153.168 268.702V270.702C157.622 270.702 161.979 269.666 165.825 267.692L164.911 265.912Z" fill="url(#paint2_linear)"/>
</g>
<g opacity="0.3">
<path d="M18.1 314.302V313.302H17.1V314.302H18.1ZM54 314.302V315.302H55V314.302H54ZM54 304.002H55V303.002H54V304.002ZM7.9 304.002V303.002H6.9V304.002H7.9ZM7.9 374.002H6.9V375.002H7.9V374.002ZM18.1 374.002V375.002H19.1V374.002H18.1ZM18.1 344.202L18.0972 343.202L17.1 343.205V344.202H18.1ZM54 344.102L54.0028 345.102L55 345.099V344.102H54ZM54 333.802H55V332.799L53.9972 332.802L54 333.802ZM18.1 333.902H17.1V334.905L18.1028 334.902L18.1 333.902ZM18.1 315.302H54V313.302H18.1V315.302ZM55 314.302V304.002H53V314.302H55ZM54 303.002H7.9V305.002H54V303.002ZM6.9 304.002V374.002H8.9V304.002H6.9ZM7.9 375.002H18.1V373.002H7.9V375.002ZM19.1 374.002V344.202H17.1V374.002H19.1ZM18.1028 345.202L54.0028 345.102L53.9972 343.102L18.0972 343.202L18.1028 345.202ZM55 344.102V333.802H53V344.102H55ZM53.9972 332.802L18.0972 332.902L18.1028 334.902L54.0028 334.802L53.9972 332.802ZM19.1 333.902V314.302H17.1V333.902H19.1ZM72.8852 374.002V375.002H73.8852V374.002H72.8852ZM72.8852 344.202V343.202H71.8852V344.202H72.8852ZM98.4852 344.202H99.4852V343.202H98.4852V344.202ZM98.4852 374.002H97.4852V375.002H98.4852V374.002ZM108.785 374.002V375.002H109.785V374.002H108.785ZM108.785 304.002H109.785V303.002H108.785V304.002ZM62.6852 304.002V303.002H61.6852V304.002H62.6852ZM62.6852 374.002H61.6852V375.002H62.6852V374.002ZM72.8852 314.302V313.302H71.8852V314.302H72.8852ZM98.4852 314.302H99.4852V313.302H98.4852V314.302ZM98.4852 333.902V334.902H99.4852V333.902H98.4852ZM72.8852 333.902H71.8852V334.902H72.8852V333.902ZM73.8852 374.002V344.202H71.8852V374.002H73.8852ZM72.8852 345.202H98.4852V343.202H72.8852V345.202ZM97.4852 344.202V374.002H99.4852V344.202H97.4852ZM98.4852 375.002H108.785V373.002H98.4852V375.002ZM109.785 374.002V304.002H107.785V374.002H109.785ZM108.785 303.002H62.6852V305.002H108.785V303.002ZM61.6852 304.002V374.002H63.6852V304.002H61.6852ZM62.6852 375.002H72.8852V373.002H62.6852V375.002ZM72.8852 315.302H98.4852V313.302H72.8852V315.302ZM97.4852 314.302V333.902H99.4852V314.302H97.4852ZM98.4852 332.902H72.8852V334.902H98.4852V332.902ZM73.8852 333.902V314.302H71.8852V333.902H73.8852ZM171.368 371.502L172.19 370.932L171.674 370.188L170.882 370.628L171.368 371.502ZM177.468 380.302L176.646 380.872L177.215 381.692L178.036 381.125L177.468 380.302ZM185.868 374.502L186.436 375.325L187.26 374.756L186.69 373.933L185.868 374.502ZM179.568 365.402L178.861 364.695L178.271 365.285L178.746 365.971L179.568 365.402ZM134.168 357.802L134.875 357.095L134.868 357.088L134.168 357.802ZM134.168 319.902L134.868 320.616L134.875 320.609L134.168 319.902ZM172.168 319.902L171.461 320.609L171.468 320.616L172.168 319.902ZM173.368 356.502L172.541 357.064L173.259 358.12L174.112 357.17L173.368 356.502ZM168.068 348.702L168.895 348.14L168.329 347.307L167.5 347.879L168.068 348.702ZM159.668 354.502L159.1 353.679L158.279 354.246L158.844 355.068L159.668 354.502ZM165.368 362.802L165.825 363.692L166.836 363.172L166.192 362.236L165.368 362.802ZM191.568 338.902C191.568 317.648 174.319 300.502 153.168 300.502V302.502C173.217 302.502 189.568 318.756 189.568 338.902H191.568ZM153.168 300.502C131.916 300.502 114.768 317.65 114.768 338.902H116.768C116.768 318.754 133.02 302.502 153.168 302.502V300.502ZM114.768 338.902C114.768 360.052 131.914 377.302 153.168 377.302V375.302C133.022 375.302 116.768 358.951 116.768 338.902H114.768ZM153.168 377.302C159.952 377.302 166.318 375.451 171.854 372.376L170.882 370.628C165.618 373.553 159.584 375.302 153.168 375.302V377.302ZM170.546 372.072L176.646 380.872L178.29 379.732L172.19 370.932L170.546 372.072ZM178.036 381.125L186.436 375.325L185.3 373.679L176.9 379.479L178.036 381.125ZM186.69 373.933L180.39 364.833L178.746 365.971L185.046 375.071L186.69 373.933ZM180.275 366.109C187.255 359.13 191.568 349.478 191.568 338.902H189.568C189.568 348.926 185.481 358.074 178.861 364.695L180.275 366.109ZM153.168 364.702C146.236 364.702 139.789 362.009 134.875 357.095L133.461 358.509C138.747 363.795 145.7 366.702 153.168 366.702V364.702ZM134.868 357.088C129.963 352.279 127.268 345.738 127.268 338.902H125.268C125.268 346.266 128.173 353.325 133.468 358.516L134.868 357.088ZM127.268 338.902C127.268 331.964 129.965 325.423 134.868 320.616L133.468 319.188C128.171 324.38 125.268 331.44 125.268 338.902H127.268ZM134.875 320.609C139.789 315.695 146.236 313.002 153.168 313.002V311.002C145.7 311.002 138.747 313.909 133.461 319.195L134.875 320.609ZM153.168 313.002C160.1 313.002 166.547 315.695 171.461 320.609L172.875 319.195C167.589 313.909 160.636 311.002 153.168 311.002V313.002ZM171.468 320.616C176.365 325.417 178.968 331.954 178.968 338.902H180.968C180.968 331.45 178.171 324.387 172.868 319.188L171.468 320.616ZM178.968 338.902C178.968 345.172 176.848 351.13 172.624 355.834L174.112 357.17C178.688 352.074 180.968 345.632 180.968 338.902H178.968ZM174.195 355.94L168.895 348.14L167.241 349.264L172.541 357.064L174.195 355.94ZM167.5 347.879L159.1 353.679L160.236 355.325L168.636 349.525L167.5 347.879ZM158.844 355.068L164.544 363.368L166.192 362.236L160.492 353.936L158.844 355.068ZM164.911 361.912C161.357 363.737 157.314 364.702 153.168 364.702V366.702C157.622 366.702 161.979 365.666 165.825 363.692L164.911 361.912Z" fill="black"/>
<path d="M18.1 314.302V313.302H17.1V314.302H18.1ZM54 314.302V315.302H55V314.302H54ZM54 304.002H55V303.002H54V304.002ZM7.9 304.002V303.002H6.9V304.002H7.9ZM7.9 374.002H6.9V375.002H7.9V374.002ZM18.1 374.002V375.002H19.1V374.002H18.1ZM18.1 344.202L18.0972 343.202L17.1 343.205V344.202H18.1ZM54 344.102L54.0028 345.102L55 345.099V344.102H54ZM54 333.802H55V332.799L53.9972 332.802L54 333.802ZM18.1 333.902H17.1V334.905L18.1028 334.902L18.1 333.902ZM18.1 315.302H54V313.302H18.1V315.302ZM55 314.302V304.002H53V314.302H55ZM54 303.002H7.9V305.002H54V303.002ZM6.9 304.002V374.002H8.9V304.002H6.9ZM7.9 375.002H18.1V373.002H7.9V375.002ZM19.1 374.002V344.202H17.1V374.002H19.1ZM18.1028 345.202L54.0028 345.102L53.9972 343.102L18.0972 343.202L18.1028 345.202ZM55 344.102V333.802H53V344.102H55ZM53.9972 332.802L18.0972 332.902L18.1028 334.902L54.0028 334.802L53.9972 332.802ZM19.1 333.902V314.302H17.1V333.902H19.1ZM72.8852 374.002V375.002H73.8852V374.002H72.8852ZM72.8852 344.202V343.202H71.8852V344.202H72.8852ZM98.4852 344.202H99.4852V343.202H98.4852V344.202ZM98.4852 374.002H97.4852V375.002H98.4852V374.002ZM108.785 374.002V375.002H109.785V374.002H108.785ZM108.785 304.002H109.785V303.002H108.785V304.002ZM62.6852 304.002V303.002H61.6852V304.002H62.6852ZM62.6852 374.002H61.6852V375.002H62.6852V374.002ZM72.8852 314.302V313.302H71.8852V314.302H72.8852ZM98.4852 314.302H99.4852V313.302H98.4852V314.302ZM98.4852 333.902V334.902H99.4852V333.902H98.4852ZM72.8852 333.902H71.8852V334.902H72.8852V333.902ZM73.8852 374.002V344.202H71.8852V374.002H73.8852ZM72.8852 345.202H98.4852V343.202H72.8852V345.202ZM97.4852 344.202V374.002H99.4852V344.202H97.4852ZM98.4852 375.002H108.785V373.002H98.4852V375.002ZM109.785 374.002V304.002H107.785V374.002H109.785ZM108.785 303.002H62.6852V305.002H108.785V303.002ZM61.6852 304.002V374.002H63.6852V304.002H61.6852ZM62.6852 375.002H72.8852V373.002H62.6852V375.002ZM72.8852 315.302H98.4852V313.302H72.8852V315.302ZM97.4852 314.302V333.902H99.4852V314.302H97.4852ZM98.4852 332.902H72.8852V334.902H98.4852V332.902ZM73.8852 333.902V314.302H71.8852V333.902H73.8852ZM171.368 371.502L172.19 370.932L171.674 370.188L170.882 370.628L171.368 371.502ZM177.468 380.302L176.646 380.872L177.215 381.692L178.036 381.125L177.468 380.302ZM185.868 374.502L186.436 375.325L187.26 374.756L186.69 373.933L185.868 374.502ZM179.568 365.402L178.861 364.695L178.271 365.285L178.746 365.971L179.568 365.402ZM134.168 357.802L134.875 357.095L134.868 357.088L134.168 357.802ZM134.168 319.902L134.868 320.616L134.875 320.609L134.168 319.902ZM172.168 319.902L171.461 320.609L171.468 320.616L172.168 319.902ZM173.368 356.502L172.541 357.064L173.259 358.12L174.112 357.17L173.368 356.502ZM168.068 348.702L168.895 348.14L168.329 347.307L167.5 347.879L168.068 348.702ZM159.668 354.502L159.1 353.679L158.279 354.246L158.844 355.068L159.668 354.502ZM165.368 362.802L165.825 363.692L166.836 363.172L166.192 362.236L165.368 362.802ZM191.568 338.902C191.568 317.648 174.319 300.502 153.168 300.502V302.502C173.217 302.502 189.568 318.756 189.568 338.902H191.568ZM153.168 300.502C131.916 300.502 114.768 317.65 114.768 338.902H116.768C116.768 318.754 133.02 302.502 153.168 302.502V300.502ZM114.768 338.902C114.768 360.052 131.914 377.302 153.168 377.302V375.302C133.022 375.302 116.768 358.951 116.768 338.902H114.768ZM153.168 377.302C159.952 377.302 166.318 375.451 171.854 372.376L170.882 370.628C165.618 373.553 159.584 375.302 153.168 375.302V377.302ZM170.546 372.072L176.646 380.872L178.29 379.732L172.19 370.932L170.546 372.072ZM178.036 381.125L186.436 375.325L185.3 373.679L176.9 379.479L178.036 381.125ZM186.69 373.933L180.39 364.833L178.746 365.971L185.046 375.071L186.69 373.933ZM180.275 366.109C187.255 359.13 191.568 349.478 191.568 338.902H189.568C189.568 348.926 185.481 358.074 178.861 364.695L180.275 366.109ZM153.168 364.702C146.236 364.702 139.789 362.009 134.875 357.095L133.461 358.509C138.747 363.795 145.7 366.702 153.168 366.702V364.702ZM134.868 357.088C129.963 352.279 127.268 345.738 127.268 338.902H125.268C125.268 346.266 128.173 353.325 133.468 358.516L134.868 357.088ZM127.268 338.902C127.268 331.964 129.965 325.423 134.868 320.616L133.468 319.188C128.171 324.38 125.268 331.44 125.268 338.902H127.268ZM134.875 320.609C139.789 315.695 146.236 313.002 153.168 313.002V311.002C145.7 311.002 138.747 313.909 133.461 319.195L134.875 320.609ZM153.168 313.002C160.1 313.002 166.547 315.695 171.461 320.609L172.875 319.195C167.589 313.909 160.636 311.002 153.168 311.002V313.002ZM171.468 320.616C176.365 325.417 178.968 331.954 178.968 338.902H180.968C180.968 331.45 178.171 324.387 172.868 319.188L171.468 320.616ZM178.968 338.902C178.968 345.172 176.848 351.13 172.624 355.834L174.112 357.17C178.688 352.074 180.968 345.632 180.968 338.902H178.968ZM174.195 355.94L168.895 348.14L167.241 349.264L172.541 357.064L174.195 355.94ZM167.5 347.879L159.1 353.679L160.236 355.325L168.636 349.525L167.5 347.879ZM158.844 355.068L164.544 363.368L166.192 362.236L160.492 353.936L158.844 355.068ZM164.911 361.912C161.357 363.737 157.314 364.702 153.168 364.702V366.702C157.622 366.702 161.979 365.666 165.825 363.692L164.911 361.912Z" fill="url(#paint3_linear)"/>
</g>
<g opacity="0.2">
<path d="M18.1 410.302V409.302H17.1V410.302H18.1ZM54 410.302V411.302H55V410.302H54ZM54 400.002H55V399.002H54V400.002ZM7.9 400.002V399.002H6.9V400.002H7.9ZM7.9 470.002H6.9V471.002H7.9V470.002ZM18.1 470.002V471.002H19.1V470.002H18.1ZM18.1 440.202L18.0972 439.202L17.1 439.205V440.202H18.1ZM54 440.102L54.0028 441.102L55 441.099V440.102H54ZM54 429.802H55V428.799L53.9972 428.802L54 429.802ZM18.1 429.902H17.1V430.905L18.1028 430.902L18.1 429.902ZM18.1 411.302H54V409.302H18.1V411.302ZM55 410.302V400.002H53V410.302H55ZM54 399.002H7.9V401.002H54V399.002ZM6.9 400.002V470.002H8.9V400.002H6.9ZM7.9 471.002H18.1V469.002H7.9V471.002ZM19.1 470.002V440.202H17.1V470.002H19.1ZM18.1028 441.202L54.0028 441.102L53.9972 439.102L18.0972 439.202L18.1028 441.202ZM55 440.102V429.802H53V440.102H55ZM53.9972 428.802L18.0972 428.902L18.1028 430.902L54.0028 430.802L53.9972 428.802ZM19.1 429.902V410.302H17.1V429.902H19.1ZM72.8852 470.002V471.002H73.8852V470.002H72.8852ZM72.8852 440.202V439.202H71.8852V440.202H72.8852ZM98.4852 440.202H99.4852V439.202H98.4852V440.202ZM98.4852 470.002H97.4852V471.002H98.4852V470.002ZM108.785 470.002V471.002H109.785V470.002H108.785ZM108.785 400.002H109.785V399.002H108.785V400.002ZM62.6852 400.002V399.002H61.6852V400.002H62.6852ZM62.6852 470.002H61.6852V471.002H62.6852V470.002ZM72.8852 410.302V409.302H71.8852V410.302H72.8852ZM98.4852 410.302H99.4852V409.302H98.4852V410.302ZM98.4852 429.902V430.902H99.4852V429.902H98.4852ZM72.8852 429.902H71.8852V430.902H72.8852V429.902ZM73.8852 470.002V440.202H71.8852V470.002H73.8852ZM72.8852 441.202H98.4852V439.202H72.8852V441.202ZM97.4852 440.202V470.002H99.4852V440.202H97.4852ZM98.4852 471.002H108.785V469.002H98.4852V471.002ZM109.785 470.002V400.002H107.785V470.002H109.785ZM108.785 399.002H62.6852V401.002H108.785V399.002ZM61.6852 400.002V470.002H63.6852V400.002H61.6852ZM62.6852 471.002H72.8852V469.002H62.6852V471.002ZM72.8852 411.302H98.4852V409.302H72.8852V411.302ZM97.4852 410.302V429.902H99.4852V410.302H97.4852ZM98.4852 428.902H72.8852V430.902H98.4852V428.902ZM73.8852 429.902V410.302H71.8852V429.902H73.8852ZM171.368 467.502L172.19 466.932L171.674 466.188L170.882 466.628L171.368 467.502ZM177.468 476.302L176.646 476.872L177.215 477.692L178.036 477.125L177.468 476.302ZM185.868 470.502L186.436 471.325L187.26 470.756L186.69 469.933L185.868 470.502ZM179.568 461.402L178.861 460.695L178.271 461.285L178.746 461.971L179.568 461.402ZM134.168 453.802L134.875 453.095L134.868 453.088L134.168 453.802ZM134.168 415.902L134.868 416.616L134.875 416.609L134.168 415.902ZM172.168 415.902L171.461 416.609L171.468 416.616L172.168 415.902ZM173.368 452.502L172.541 453.064L173.259 454.12L174.112 453.17L173.368 452.502ZM168.068 444.702L168.895 444.14L168.329 443.307L167.5 443.879L168.068 444.702ZM159.668 450.502L159.1 449.679L158.279 450.246L158.844 451.068L159.668 450.502ZM165.368 458.802L165.825 459.692L166.836 459.172L166.192 458.236L165.368 458.802ZM191.568 434.902C191.568 413.648 174.319 396.502 153.168 396.502V398.502C173.217 398.502 189.568 414.756 189.568 434.902H191.568ZM153.168 396.502C131.916 396.502 114.768 413.65 114.768 434.902H116.768C116.768 414.754 133.02 398.502 153.168 398.502V396.502ZM114.768 434.902C114.768 456.052 131.914 473.302 153.168 473.302V471.302C133.022 471.302 116.768 454.951 116.768 434.902H114.768ZM153.168 473.302C159.952 473.302 166.318 471.451 171.854 468.376L170.882 466.628C165.618 469.553 159.584 471.302 153.168 471.302V473.302ZM170.546 468.072L176.646 476.872L178.29 475.732L172.19 466.932L170.546 468.072ZM178.036 477.125L186.436 471.325L185.3 469.679L176.9 475.479L178.036 477.125ZM186.69 469.933L180.39 460.833L178.746 461.971L185.046 471.071L186.69 469.933ZM180.275 462.109C187.255 455.13 191.568 445.478 191.568 434.902H189.568C189.568 444.926 185.481 454.074 178.861 460.695L180.275 462.109ZM153.168 460.702C146.236 460.702 139.789 458.009 134.875 453.095L133.461 454.509C138.747 459.795 145.7 462.702 153.168 462.702V460.702ZM134.868 453.088C129.963 448.279 127.268 441.738 127.268 434.902H125.268C125.268 442.266 128.173 449.325 133.468 454.516L134.868 453.088ZM127.268 434.902C127.268 427.964 129.965 421.423 134.868 416.616L133.468 415.188C128.171 420.38 125.268 427.44 125.268 434.902H127.268ZM134.875 416.609C139.789 411.695 146.236 409.002 153.168 409.002V407.002C145.7 407.002 138.747 409.909 133.461 415.195L134.875 416.609ZM153.168 409.002C160.1 409.002 166.547 411.695 171.461 416.609L172.875 415.195C167.589 409.909 160.636 407.002 153.168 407.002V409.002ZM171.468 416.616C176.365 421.417 178.968 427.954 178.968 434.902H180.968C180.968 427.45 178.171 420.387 172.868 415.188L171.468 416.616ZM178.968 434.902C178.968 441.172 176.848 447.13 172.624 451.834L174.112 453.17C178.688 448.074 180.968 441.632 180.968 434.902H178.968ZM174.195 451.94L168.895 444.14L167.241 445.264L172.541 453.064L174.195 451.94ZM167.5 443.879L159.1 449.679L160.236 451.325L168.636 445.525L167.5 443.879ZM158.844 451.068L164.544 459.368L166.192 458.236L160.492 449.936L158.844 451.068ZM164.911 457.912C161.357 459.737 157.314 460.702 153.168 460.702V462.702C157.622 462.702 161.979 461.666 165.825 459.692L164.911 457.912Z" fill="black"/>
<path d="M18.1 410.302V409.302H17.1V410.302H18.1ZM54 410.302V411.302H55V410.302H54ZM54 400.002H55V399.002H54V400.002ZM7.9 400.002V399.002H6.9V400.002H7.9ZM7.9 470.002H6.9V471.002H7.9V470.002ZM18.1 470.002V471.002H19.1V470.002H18.1ZM18.1 440.202L18.0972 439.202L17.1 439.205V440.202H18.1ZM54 440.102L54.0028 441.102L55 441.099V440.102H54ZM54 429.802H55V428.799L53.9972 428.802L54 429.802ZM18.1 429.902H17.1V430.905L18.1028 430.902L18.1 429.902ZM18.1 411.302H54V409.302H18.1V411.302ZM55 410.302V400.002H53V410.302H55ZM54 399.002H7.9V401.002H54V399.002ZM6.9 400.002V470.002H8.9V400.002H6.9ZM7.9 471.002H18.1V469.002H7.9V471.002ZM19.1 470.002V440.202H17.1V470.002H19.1ZM18.1028 441.202L54.0028 441.102L53.9972 439.102L18.0972 439.202L18.1028 441.202ZM55 440.102V429.802H53V440.102H55ZM53.9972 428.802L18.0972 428.902L18.1028 430.902L54.0028 430.802L53.9972 428.802ZM19.1 429.902V410.302H17.1V429.902H19.1ZM72.8852 470.002V471.002H73.8852V470.002H72.8852ZM72.8852 440.202V439.202H71.8852V440.202H72.8852ZM98.4852 440.202H99.4852V439.202H98.4852V440.202ZM98.4852 470.002H97.4852V471.002H98.4852V470.002ZM108.785 470.002V471.002H109.785V470.002H108.785ZM108.785 400.002H109.785V399.002H108.785V400.002ZM62.6852 400.002V399.002H61.6852V400.002H62.6852ZM62.6852 470.002H61.6852V471.002H62.6852V470.002ZM72.8852 410.302V409.302H71.8852V410.302H72.8852ZM98.4852 410.302H99.4852V409.302H98.4852V410.302ZM98.4852 429.902V430.902H99.4852V429.902H98.4852ZM72.8852 429.902H71.8852V430.902H72.8852V429.902ZM73.8852 470.002V440.202H71.8852V470.002H73.8852ZM72.8852 441.202H98.4852V439.202H72.8852V441.202ZM97.4852 440.202V470.002H99.4852V440.202H97.4852ZM98.4852 471.002H108.785V469.002H98.4852V471.002ZM109.785 470.002V400.002H107.785V470.002H109.785ZM108.785 399.002H62.6852V401.002H108.785V399.002ZM61.6852 400.002V470.002H63.6852V400.002H61.6852ZM62.6852 471.002H72.8852V469.002H62.6852V471.002ZM72.8852 411.302H98.4852V409.302H72.8852V411.302ZM97.4852 410.302V429.902H99.4852V410.302H97.4852ZM98.4852 428.902H72.8852V430.902H98.4852V428.902ZM73.8852 429.902V410.302H71.8852V429.902H73.8852ZM171.368 467.502L172.19 466.932L171.674 466.188L170.882 466.628L171.368 467.502ZM177.468 476.302L176.646 476.872L177.215 477.692L178.036 477.125L177.468 476.302ZM185.868 470.502L186.436 471.325L187.26 470.756L186.69 469.933L185.868 470.502ZM179.568 461.402L178.861 460.695L178.271 461.285L178.746 461.971L179.568 461.402ZM134.168 453.802L134.875 453.095L134.868 453.088L134.168 453.802ZM134.168 415.902L134.868 416.616L134.875 416.609L134.168 415.902ZM172.168 415.902L171.461 416.609L171.468 416.616L172.168 415.902ZM173.368 452.502L172.541 453.064L173.259 454.12L174.112 453.17L173.368 452.502ZM168.068 444.702L168.895 444.14L168.329 443.307L167.5 443.879L168.068 444.702ZM159.668 450.502L159.1 449.679L158.279 450.246L158.844 451.068L159.668 450.502ZM165.368 458.802L165.825 459.692L166.836 459.172L166.192 458.236L165.368 458.802ZM191.568 434.902C191.568 413.648 174.319 396.502 153.168 396.502V398.502C173.217 398.502 189.568 414.756 189.568 434.902H191.568ZM153.168 396.502C131.916 396.502 114.768 413.65 114.768 434.902H116.768C116.768 414.754 133.02 398.502 153.168 398.502V396.502ZM114.768 434.902C114.768 456.052 131.914 473.302 153.168 473.302V471.302C133.022 471.302 116.768 454.951 116.768 434.902H114.768ZM153.168 473.302C159.952 473.302 166.318 471.451 171.854 468.376L170.882 466.628C165.618 469.553 159.584 471.302 153.168 471.302V473.302ZM170.546 468.072L176.646 476.872L178.29 475.732L172.19 466.932L170.546 468.072ZM178.036 477.125L186.436 471.325L185.3 469.679L176.9 475.479L178.036 477.125ZM186.69 469.933L180.39 460.833L178.746 461.971L185.046 471.071L186.69 469.933ZM180.275 462.109C187.255 455.13 191.568 445.478 191.568 434.902H189.568C189.568 444.926 185.481 454.074 178.861 460.695L180.275 462.109ZM153.168 460.702C146.236 460.702 139.789 458.009 134.875 453.095L133.461 454.509C138.747 459.795 145.7 462.702 153.168 462.702V460.702ZM134.868 453.088C129.963 448.279 127.268 441.738 127.268 434.902H125.268C125.268 442.266 128.173 449.325 133.468 454.516L134.868 453.088ZM127.268 434.902C127.268 427.964 129.965 421.423 134.868 416.616L133.468 415.188C128.171 420.38 125.268 427.44 125.268 434.902H127.268ZM134.875 416.609C139.789 411.695 146.236 409.002 153.168 409.002V407.002C145.7 407.002 138.747 409.909 133.461 415.195L134.875 416.609ZM153.168 409.002C160.1 409.002 166.547 411.695 171.461 416.609L172.875 415.195C167.589 409.909 160.636 407.002 153.168 407.002V409.002ZM171.468 416.616C176.365 421.417 178.968 427.954 178.968 434.902H180.968C180.968 427.45 178.171 420.387 172.868 415.188L171.468 416.616ZM178.968 434.902C178.968 441.172 176.848 447.13 172.624 451.834L174.112 453.17C178.688 448.074 180.968 441.632 180.968 434.902H178.968ZM174.195 451.94L168.895 444.14L167.241 445.264L172.541 453.064L174.195 451.94ZM167.5 443.879L159.1 449.679L160.236 451.325L168.636 445.525L167.5 443.879ZM158.844 451.068L164.544 459.368L166.192 458.236L160.492 449.936L158.844 451.068ZM164.911 457.912C161.357 459.737 157.314 460.702 153.168 460.702V462.702C157.622 462.702 161.979 461.666 165.825 459.692L164.911 457.912Z" fill="url(#paint4_linear)"/>
</g>
<g opacity="0.1">
<path d="M18.1 506.302V505.302H17.1V506.302H18.1ZM54 506.302V507.302H55V506.302H54ZM54 496.002H55V495.002H54V496.002ZM7.9 496.002V495.002H6.9V496.002H7.9ZM7.9 566.002H6.9V567.002H7.9V566.002ZM18.1 566.002V567.002H19.1V566.002H18.1ZM18.1 536.202L18.0972 535.202L17.1 535.205V536.202H18.1ZM54 536.102L54.0028 537.102L55 537.099V536.102H54ZM54 525.802H55V524.799L53.9972 524.802L54 525.802ZM18.1 525.902H17.1V526.905L18.1028 526.902L18.1 525.902ZM18.1 507.302H54V505.302H18.1V507.302ZM55 506.302V496.002H53V506.302H55ZM54 495.002H7.9V497.002H54V495.002ZM6.9 496.002V566.002H8.9V496.002H6.9ZM7.9 567.002H18.1V565.002H7.9V567.002ZM19.1 566.002V536.202H17.1V566.002H19.1ZM18.1028 537.202L54.0028 537.102L53.9972 535.102L18.0972 535.202L18.1028 537.202ZM55 536.102V525.802H53V536.102H55ZM53.9972 524.802L18.0972 524.902L18.1028 526.902L54.0028 526.802L53.9972 524.802ZM19.1 525.902V506.302H17.1V525.902H19.1ZM72.8852 566.002V567.002H73.8852V566.002H72.8852ZM72.8852 536.202V535.202H71.8852V536.202H72.8852ZM98.4852 536.202H99.4852V535.202H98.4852V536.202ZM98.4852 566.002H97.4852V567.002H98.4852V566.002ZM108.785 566.002V567.002H109.785V566.002H108.785ZM108.785 496.002H109.785V495.002H108.785V496.002ZM62.6852 496.002V495.002H61.6852V496.002H62.6852ZM62.6852 566.002H61.6852V567.002H62.6852V566.002ZM72.8852 506.302V505.302H71.8852V506.302H72.8852ZM98.4852 506.302H99.4852V505.302H98.4852V506.302ZM98.4852 525.902V526.902H99.4852V525.902H98.4852ZM72.8852 525.902H71.8852V526.902H72.8852V525.902ZM73.8852 566.002V536.202H71.8852V566.002H73.8852ZM72.8852 537.202H98.4852V535.202H72.8852V537.202ZM97.4852 536.202V566.002H99.4852V536.202H97.4852ZM98.4852 567.002H108.785V565.002H98.4852V567.002ZM109.785 566.002V496.002H107.785V566.002H109.785ZM108.785 495.002H62.6852V497.002H108.785V495.002ZM61.6852 496.002V566.002H63.6852V496.002H61.6852ZM62.6852 567.002H72.8852V565.002H62.6852V567.002ZM72.8852 507.302H98.4852V505.302H72.8852V507.302ZM97.4852 506.302V525.902H99.4852V506.302H97.4852ZM98.4852 524.902H72.8852V526.902H98.4852V524.902ZM73.8852 525.902V506.302H71.8852V525.902H73.8852ZM171.368 563.502L172.19 562.932L171.674 562.188L170.882 562.628L171.368 563.502ZM177.468 572.302L176.646 572.872L177.215 573.692L178.036 573.125L177.468 572.302ZM185.868 566.502L186.436 567.325L187.26 566.756L186.69 565.933L185.868 566.502ZM179.568 557.402L178.861 556.695L178.271 557.285L178.746 557.971L179.568 557.402ZM134.168 549.802L134.875 549.095L134.868 549.088L134.168 549.802ZM134.168 511.902L134.868 512.616L134.875 512.609L134.168 511.902ZM172.168 511.902L171.461 512.609L171.468 512.616L172.168 511.902ZM173.368 548.502L172.541 549.064L173.259 550.12L174.112 549.17L173.368 548.502ZM168.068 540.702L168.895 540.14L168.329 539.307L167.5 539.879L168.068 540.702ZM159.668 546.502L159.1 545.679L158.279 546.246L158.844 547.068L159.668 546.502ZM165.368 554.802L165.825 555.692L166.836 555.172L166.192 554.236L165.368 554.802ZM191.568 530.902C191.568 509.648 174.319 492.502 153.168 492.502V494.502C173.217 494.502 189.568 510.756 189.568 530.902H191.568ZM153.168 492.502C131.916 492.502 114.768 509.65 114.768 530.902H116.768C116.768 510.754 133.02 494.502 153.168 494.502V492.502ZM114.768 530.902C114.768 552.052 131.914 569.302 153.168 569.302V567.302C133.022 567.302 116.768 550.951 116.768 530.902H114.768ZM153.168 569.302C159.952 569.302 166.318 567.451 171.854 564.376L170.882 562.628C165.618 565.553 159.584 567.302 153.168 567.302V569.302ZM170.546 564.072L176.646 572.872L178.29 571.732L172.19 562.932L170.546 564.072ZM178.036 573.125L186.436 567.325L185.3 565.679L176.9 571.479L178.036 573.125ZM186.69 565.933L180.39 556.833L178.746 557.971L185.046 567.071L186.69 565.933ZM180.275 558.109C187.255 551.13 191.568 541.478 191.568 530.902H189.568C189.568 540.926 185.481 550.074 178.861 556.695L180.275 558.109ZM153.168 556.702C146.236 556.702 139.789 554.009 134.875 549.095L133.461 550.509C138.747 555.795 145.7 558.702 153.168 558.702V556.702ZM134.868 549.088C129.963 544.279 127.268 537.738 127.268 530.902H125.268C125.268 538.266 128.173 545.325 133.468 550.516L134.868 549.088ZM127.268 530.902C127.268 523.964 129.965 517.423 134.868 512.616L133.468 511.188C128.171 516.38 125.268 523.44 125.268 530.902H127.268ZM134.875 512.609C139.789 507.695 146.236 505.002 153.168 505.002V503.002C145.7 503.002 138.747 505.909 133.461 511.195L134.875 512.609ZM153.168 505.002C160.1 505.002 166.547 507.695 171.461 512.609L172.875 511.195C167.589 505.909 160.636 503.002 153.168 503.002V505.002ZM171.468 512.616C176.365 517.417 178.968 523.954 178.968 530.902H180.968C180.968 523.45 178.171 516.387 172.868 511.188L171.468 512.616ZM178.968 530.902C178.968 537.172 176.848 543.13 172.624 547.834L174.112 549.17C178.688 544.074 180.968 537.632 180.968 530.902H178.968ZM174.195 547.94L168.895 540.14L167.241 541.264L172.541 549.064L174.195 547.94ZM167.5 539.879L159.1 545.679L160.236 547.325L168.636 541.525L167.5 539.879ZM158.844 547.068L164.544 555.368L166.192 554.236L160.492 545.936L158.844 547.068ZM164.911 553.912C161.357 555.737 157.314 556.702 153.168 556.702V558.702C157.622 558.702 161.979 557.666 165.825 555.692L164.911 553.912Z" fill="black"/>
<path d="M18.1 506.302V505.302H17.1V506.302H18.1ZM54 506.302V507.302H55V506.302H54ZM54 496.002H55V495.002H54V496.002ZM7.9 496.002V495.002H6.9V496.002H7.9ZM7.9 566.002H6.9V567.002H7.9V566.002ZM18.1 566.002V567.002H19.1V566.002H18.1ZM18.1 536.202L18.0972 535.202L17.1 535.205V536.202H18.1ZM54 536.102L54.0028 537.102L55 537.099V536.102H54ZM54 525.802H55V524.799L53.9972 524.802L54 525.802ZM18.1 525.902H17.1V526.905L18.1028 526.902L18.1 525.902ZM18.1 507.302H54V505.302H18.1V507.302ZM55 506.302V496.002H53V506.302H55ZM54 495.002H7.9V497.002H54V495.002ZM6.9 496.002V566.002H8.9V496.002H6.9ZM7.9 567.002H18.1V565.002H7.9V567.002ZM19.1 566.002V536.202H17.1V566.002H19.1ZM18.1028 537.202L54.0028 537.102L53.9972 535.102L18.0972 535.202L18.1028 537.202ZM55 536.102V525.802H53V536.102H55ZM53.9972 524.802L18.0972 524.902L18.1028 526.902L54.0028 526.802L53.9972 524.802ZM19.1 525.902V506.302H17.1V525.902H19.1ZM72.8852 566.002V567.002H73.8852V566.002H72.8852ZM72.8852 536.202V535.202H71.8852V536.202H72.8852ZM98.4852 536.202H99.4852V535.202H98.4852V536.202ZM98.4852 566.002H97.4852V567.002H98.4852V566.002ZM108.785 566.002V567.002H109.785V566.002H108.785ZM108.785 496.002H109.785V495.002H108.785V496.002ZM62.6852 496.002V495.002H61.6852V496.002H62.6852ZM62.6852 566.002H61.6852V567.002H62.6852V566.002ZM72.8852 506.302V505.302H71.8852V506.302H72.8852ZM98.4852 506.302H99.4852V505.302H98.4852V506.302ZM98.4852 525.902V526.902H99.4852V525.902H98.4852ZM72.8852 525.902H71.8852V526.902H72.8852V525.902ZM73.8852 566.002V536.202H71.8852V566.002H73.8852ZM72.8852 537.202H98.4852V535.202H72.8852V537.202ZM97.4852 536.202V566.002H99.4852V536.202H97.4852ZM98.4852 567.002H108.785V565.002H98.4852V567.002ZM109.785 566.002V496.002H107.785V566.002H109.785ZM108.785 495.002H62.6852V497.002H108.785V495.002ZM61.6852 496.002V566.002H63.6852V496.002H61.6852ZM62.6852 567.002H72.8852V565.002H62.6852V567.002ZM72.8852 507.302H98.4852V505.302H72.8852V507.302ZM97.4852 506.302V525.902H99.4852V506.302H97.4852ZM98.4852 524.902H72.8852V526.902H98.4852V524.902ZM73.8852 525.902V506.302H71.8852V525.902H73.8852ZM171.368 563.502L172.19 562.932L171.674 562.188L170.882 562.628L171.368 563.502ZM177.468 572.302L176.646 572.872L177.215 573.692L178.036 573.125L177.468 572.302ZM185.868 566.502L186.436 567.325L187.26 566.756L186.69 565.933L185.868 566.502ZM179.568 557.402L178.861 556.695L178.271 557.285L178.746 557.971L179.568 557.402ZM134.168 549.802L134.875 549.095L134.868 549.088L134.168 549.802ZM134.168 511.902L134.868 512.616L134.875 512.609L134.168 511.902ZM172.168 511.902L171.461 512.609L171.468 512.616L172.168 511.902ZM173.368 548.502L172.541 549.064L173.259 550.12L174.112 549.17L173.368 548.502ZM168.068 540.702L168.895 540.14L168.329 539.307L167.5 539.879L168.068 540.702ZM159.668 546.502L159.1 545.679L158.279 546.246L158.844 547.068L159.668 546.502ZM165.368 554.802L165.825 555.692L166.836 555.172L166.192 554.236L165.368 554.802ZM191.568 530.902C191.568 509.648 174.319 492.502 153.168 492.502V494.502C173.217 494.502 189.568 510.756 189.568 530.902H191.568ZM153.168 492.502C131.916 492.502 114.768 509.65 114.768 530.902H116.768C116.768 510.754 133.02 494.502 153.168 494.502V492.502ZM114.768 530.902C114.768 552.052 131.914 569.302 153.168 569.302V567.302C133.022 567.302 116.768 550.951 116.768 530.902H114.768ZM153.168 569.302C159.952 569.302 166.318 567.451 171.854 564.376L170.882 562.628C165.618 565.553 159.584 567.302 153.168 567.302V569.302ZM170.546 564.072L176.646 572.872L178.29 571.732L172.19 562.932L170.546 564.072ZM178.036 573.125L186.436 567.325L185.3 565.679L176.9 571.479L178.036 573.125ZM186.69 565.933L180.39 556.833L178.746 557.971L185.046 567.071L186.69 565.933ZM180.275 558.109C187.255 551.13 191.568 541.478 191.568 530.902H189.568C189.568 540.926 185.481 550.074 178.861 556.695L180.275 558.109ZM153.168 556.702C146.236 556.702 139.789 554.009 134.875 549.095L133.461 550.509C138.747 555.795 145.7 558.702 153.168 558.702V556.702ZM134.868 549.088C129.963 544.279 127.268 537.738 127.268 530.902H125.268C125.268 538.266 128.173 545.325 133.468 550.516L134.868 549.088ZM127.268 530.902C127.268 523.964 129.965 517.423 134.868 512.616L133.468 511.188C128.171 516.38 125.268 523.44 125.268 530.902H127.268ZM134.875 512.609C139.789 507.695 146.236 505.002 153.168 505.002V503.002C145.7 503.002 138.747 505.909 133.461 511.195L134.875 512.609ZM153.168 505.002C160.1 505.002 166.547 507.695 171.461 512.609L172.875 511.195C167.589 505.909 160.636 503.002 153.168 503.002V505.002ZM171.468 512.616C176.365 517.417 178.968 523.954 178.968 530.902H180.968C180.968 523.45 178.171 516.387 172.868 511.188L171.468 512.616ZM178.968 530.902C178.968 537.172 176.848 543.13 172.624 547.834L174.112 549.17C178.688 544.074 180.968 537.632 180.968 530.902H178.968ZM174.195 547.94L168.895 540.14L167.241 541.264L172.541 549.064L174.195 547.94ZM167.5 539.879L159.1 545.679L160.236 547.325L168.636 541.525L167.5 539.879ZM158.844 547.068L164.544 555.368L166.192 554.236L160.492 545.936L158.844 547.068ZM164.911 553.912C161.357 555.737 157.314 556.702 153.168 556.702V558.702C157.622 558.702 161.979 557.666 165.825 555.692L164.911 553.912Z" fill="url(#paint5_linear)"/>
</g>
<defs>
<linearGradient id="paint0_linear" x1="97" y1="0.00195312" x2="97" y2="87.002" gradientUnits="userSpaceOnUse">
<stop offset="0.00520833" stop-color="#FFD26D"/>
<stop offset="0.526042" stop-color="#F32740"/>
<stop offset="1" stop-color="#B314E2"/>
</linearGradient>
<linearGradient id="paint1_linear" x1="97" y1="96.002" x2="97" y2="183.002" gradientUnits="userSpaceOnUse">
<stop offset="0.00520833" stop-color="#FFD26D"/>
<stop offset="0.526042" stop-color="#F32740"/>
<stop offset="1" stop-color="#B314E2"/>
</linearGradient>
<linearGradient id="paint2_linear" x1="97" y1="194.002" x2="97" y2="281.002" gradientUnits="userSpaceOnUse">
<stop offset="0.00520833" stop-color="#FFD26D"/>
<stop offset="0.526042" stop-color="#F32740"/>
<stop offset="1" stop-color="#B314E2"/>
</linearGradient>
<linearGradient id="paint3_linear" x1="97" y1="290.002" x2="97" y2="377.002" gradientUnits="userSpaceOnUse">
<stop offset="0.00520833" stop-color="#FFD26D"/>
<stop offset="0.526042" stop-color="#F32740"/>
<stop offset="1" stop-color="#B314E2"/>
</linearGradient>
<linearGradient id="paint4_linear" x1="97" y1="386.002" x2="97" y2="473.002" gradientUnits="userSpaceOnUse">
<stop offset="0.00520833" stop-color="#FFD26D"/>
<stop offset="0.526042" stop-color="#F32740"/>
<stop offset="1" stop-color="#B314E2"/>
</linearGradient>
<linearGradient id="paint5_linear" x1="97" y1="482.002" x2="97" y2="569.002" gradientUnits="userSpaceOnUse">
<stop offset="0.00520833" stop-color="#FFD26D"/>
<stop offset="0.526042" stop-color="#F32740"/>
<stop offset="1" stop-color="#B314E2"/>
</linearGradient>
</defs>
</svg>
