<svg width="150" height="150" viewBox="0 0 150 150" fill="none" xmlns="http://www.w3.org/2000/svg">
<g clip-path="url(#clip0)">
<path fill-rule="evenodd" clip-rule="evenodd" d="M149.619 44.1005C149.267 36.1304 147.978 30.6511 146.132 25.9031C144.226 20.8633 141.296 16.3511 137.456 12.6002C133.704 8.79081 129.161 5.83078 124.179 3.95586C119.403 2.10956 113.951 0.820704 105.979 0.469301C97.948 0.0881369 95.3984 0 75.0292 0C54.6599 0 52.1103 0.0881369 44.109 0.43954C36.1373 0.790944 30.6569 2.08095 25.9092 3.9261C20.8673 5.83078 16.3542 8.76105 12.6026 12.6002C8.79248 16.3511 5.83303 20.893 3.95662 25.8745C2.10997 30.6511 0.820861 36.1007 0.46939 44.0708C0.0881537 52.1004 0 54.6495 0 75.0149C0 95.3802 0.0881537 97.9294 0.439624 105.929C0.791095 113.899 2.08135 119.379 3.928 124.127C5.83303 129.166 8.79248 133.679 12.6026 137.43C16.3542 141.239 20.897 144.199 25.8794 146.074C30.6569 147.92 36.1076 149.209 44.0803 149.56C52.0806 149.913 54.6313 150 75.0006 150C95.3698 150 97.9194 149.913 105.921 149.56C113.892 149.209 119.373 147.92 124.121 146.074C134.203 142.176 142.175 134.206 146.073 124.127C147.919 119.35 149.209 113.899 149.56 105.929C149.912 97.9294 150 95.3802 150 75.0149C150 54.6495 149.97 52.1004 149.619 44.1005ZM136.108 105.343C135.785 112.669 134.555 116.625 133.529 119.262C131.008 125.797 125.821 130.983 119.285 133.503C116.647 134.529 112.662 135.76 105.363 136.081C97.45 136.434 95.0767 136.521 75.059 136.521C55.0412 136.521 52.6381 136.434 44.7535 136.081C37.4264 135.76 33.4698 134.529 30.8321 133.503C27.5795 132.302 24.619 130.397 22.2159 127.906C19.7247 125.474 17.8197 122.544 16.6176 119.292C15.5918 116.654 14.3611 112.669 14.0394 105.373C13.6867 97.4612 13.5997 95.0872 13.5997 75.0733C13.5997 55.0593 13.6867 52.6567 14.0394 44.7747C14.3611 37.4491 15.5918 33.4932 16.6176 30.856C17.8197 27.6029 19.7247 24.644 22.2457 22.2403C24.6773 19.7496 27.6082 17.8449 30.8618 16.6442C33.4996 15.6186 37.486 14.3881 44.7833 14.0653C52.6965 13.7139 55.0709 13.6257 75.0876 13.6257C95.1351 13.6257 97.5084 13.7139 105.393 14.0653C112.72 14.3881 116.677 15.6186 119.314 16.6442C122.567 17.8449 125.528 19.7496 127.931 22.2403C130.422 24.6726 132.327 27.6029 133.529 30.856C134.555 33.4932 135.785 37.4777 136.108 44.7747C136.46 52.6865 136.548 55.0593 136.548 75.0733C136.548 95.0872 136.46 97.4314 136.108 105.343ZM75.0288 36.4816C53.7517 36.4816 36.4884 53.7404 36.4884 75.0146C36.4884 96.2888 53.7517 113.548 75.0288 113.548C96.3071 113.548 113.569 96.2888 113.569 75.0146C113.569 53.7404 96.3071 36.4816 75.0288 36.4816ZM75.0288 100.01C61.2253 100.01 50.0286 88.8166 50.0286 75.0146C50.0286 61.2126 61.2253 50.0192 75.0288 50.0192C88.8335 50.0192 100.029 61.2126 100.029 75.0146C100.029 88.8166 88.8335 100.01 75.0288 100.01ZM115.093 43.9542C120.063 43.9542 124.092 39.9263 124.092 34.9585C124.092 29.9897 120.063 25.9628 115.093 25.9628C110.125 25.9628 106.096 29.9897 106.096 34.9585C106.096 39.9263 110.125 43.9542 115.093 43.9542Z" fill="#F2203E"/>
<path fill-rule="evenodd" clip-rule="evenodd" d="M149.619 44.1005C149.267 36.1304 147.978 30.6511 146.132 25.9031C144.226 20.8633 141.296 16.3511 137.456 12.6002C133.704 8.79081 129.161 5.83078 124.179 3.95586C119.403 2.10956 113.951 0.820704 105.979 0.469301C97.948 0.0881369 95.3984 0 75.0292 0C54.6599 0 52.1103 0.0881369 44.109 0.43954C36.1373 0.790944 30.6569 2.08095 25.9092 3.9261C20.8673 5.83078 16.3542 8.76105 12.6026 12.6002C8.79248 16.3511 5.83303 20.893 3.95662 25.8745C2.10997 30.6511 0.820861 36.1007 0.46939 44.0708C0.0881537 52.1004 0 54.6495 0 75.0149C0 95.3802 0.0881537 97.9294 0.439624 105.929C0.791095 113.899 2.08135 119.379 3.928 124.127C5.83303 129.166 8.79248 133.679 12.6026 137.43C16.3542 141.239 20.897 144.199 25.8794 146.074C30.6569 147.92 36.1076 149.209 44.0803 149.56C52.0806 149.913 54.6313 150 75.0006 150C95.3698 150 97.9194 149.913 105.921 149.56C113.892 149.209 119.373 147.92 124.121 146.074C134.203 142.176 142.175 134.206 146.073 124.127C147.919 119.35 149.209 113.899 149.56 105.929C149.912 97.9294 150 95.3802 150 75.0149C150 54.6495 149.97 52.1004 149.619 44.1005ZM136.108 105.343C135.785 112.669 134.555 116.625 133.529 119.262C131.008 125.797 125.821 130.983 119.285 133.503C116.647 134.529 112.662 135.76 105.363 136.081C97.45 136.434 95.0767 136.521 75.059 136.521C55.0412 136.521 52.6381 136.434 44.7535 136.081C37.4264 135.76 33.4698 134.529 30.8321 133.503C27.5795 132.302 24.619 130.397 22.2159 127.906C19.7247 125.474 17.8197 122.544 16.6176 119.292C15.5918 116.654 14.3611 112.669 14.0394 105.373C13.6867 97.4612 13.5997 95.0872 13.5997 75.0733C13.5997 55.0593 13.6867 52.6567 14.0394 44.7747C14.3611 37.4491 15.5918 33.4932 16.6176 30.856C17.8197 27.6029 19.7247 24.644 22.2457 22.2403C24.6773 19.7496 27.6082 17.8449 30.8618 16.6442C33.4996 15.6186 37.486 14.3881 44.7833 14.0653C52.6965 13.7139 55.0709 13.6257 75.0876 13.6257C95.1351 13.6257 97.5084 13.7139 105.393 14.0653C112.72 14.3881 116.677 15.6186 119.314 16.6442C122.567 17.8449 125.528 19.7496 127.931 22.2403C130.422 24.6726 132.327 27.6029 133.529 30.856C134.555 33.4932 135.785 37.4777 136.108 44.7747C136.46 52.6865 136.548 55.0593 136.548 75.0733C136.548 95.0872 136.46 97.4314 136.108 105.343ZM75.0288 36.4816C53.7517 36.4816 36.4884 53.7404 36.4884 75.0146C36.4884 96.2888 53.7517 113.548 75.0288 113.548C96.3071 113.548 113.569 96.2888 113.569 75.0146C113.569 53.7404 96.3071 36.4816 75.0288 36.4816ZM75.0288 100.01C61.2253 100.01 50.0286 88.8166 50.0286 75.0146C50.0286 61.2126 61.2253 50.0192 75.0288 50.0192C88.8335 50.0192 100.029 61.2126 100.029 75.0146C100.029 88.8166 88.8335 100.01 75.0288 100.01ZM115.093 43.9542C120.063 43.9542 124.092 39.9263 124.092 34.9585C124.092 29.9897 120.063 25.9628 115.093 25.9628C110.125 25.9628 106.096 29.9897 106.096 34.9585C106.096 39.9263 110.125 43.9542 115.093 43.9542Z" fill="url(#paint0_radial)"/>
</g>
<defs>
<radialGradient id="paint0_radial" cx="0" cy="0" r="1" gradientUnits="userSpaceOnUse" gradientTransform="translate(12.1875 134.118) rotate(4.07596) scale(136.551 140.217)">
<stop stop-color="#FFD26D"/>
<stop offset="0.3273" stop-color="#F2203E"/>
<stop offset="0.6485" stop-color="#B729A8"/>
<stop offset="1" stop-color="#5342D6"/>
</radialGradient>
<clipPath id="clip0">
<rect width="150" height="150" fill="white"/>
</clipPath>
</defs>
</svg>
