<svg width="46" height="46" viewBox="0 0 46 46" fill="none" xmlns="http://www.w3.org/2000/svg">
<rect width="46" height="46" fill="#0E052F"/>
<path d="M36.4069 35.3321L36.843 35.595L37.0979 35.1542L40.4328 29.3876L40.686 28.9499L40.2455 28.7017L30.2003 23.0412L40.2455 17.3807L40.6787 17.1366L40.4369 16.702L37.1834 10.8531L36.9296 10.397L36.4848 10.67L26.533 16.7785L26.8348 5.01282L26.8479 4.5H26.3349H19.6651H19.1553L19.1652 5.00968L19.3914 16.6947L9.67981 10.6712L9.24617 10.4022L8.98609 10.8413L5.56982 16.6079L5.30856 17.0489L5.75593 17.2991L15.8752 22.9588L5.75593 28.6185L5.31594 28.8646L5.56564 29.3026L8.90057 35.1515L9.15667 35.6007L9.597 35.3297L19.3915 29.3016L19.1652 40.9903L19.1553 41.5H19.6651H26.3349H26.8481L26.8348 40.987L26.5331 29.3779L36.4069 35.3321Z" stroke="url(#paint0_linear)"/>
<defs>
<linearGradient id="paint0_linear" x1="23" y1="5" x2="23" y2="41" gradientUnits="userSpaceOnUse">
<stop offset="0.00520833" stop-color="#FFD26D"/>
<stop offset="0.526042" stop-color="#F32740"/>
<stop offset="1" stop-color="#B314E2"/>
</linearGradient>
</defs>
</svg>
