<svg width="16" height="14" viewBox="0 0 16 14" fill="none" xmlns="http://www.w3.org/2000/svg">
<path fill-rule="evenodd" clip-rule="evenodd" d="M3.5 5.50513C4.32843 5.50513 5 4.83355 5 4.00513C5 3.1767 4.32843 2.50513 3.5 2.50513C2.67157 2.50513 2 3.1767 2 4.00513C2 4.83355 2.67157 5.50513 3.5 5.50513ZM3.5 7.50513C5.433 7.50513 7 5.93812 7 4.00513C7 2.07213 5.433 0.505127 3.5 0.505127C1.567 0.505127 0 2.07213 0 4.00513C0 5.93812 1.567 7.50513 3.5 7.50513ZM0.173862 13.4749L12.2041 1.44458H15.0326L3.00229 13.4749H0.173862ZM14 10.0051C14 10.8336 13.3284 11.5051 12.5 11.5051C11.6716 11.5051 11 10.8336 11 10.0051C11 9.1767 11.6716 8.50513 12.5 8.50513C13.3284 8.50513 14 9.1767 14 10.0051ZM16 10.0051C16 11.9381 14.433 13.5051 12.5 13.5051C10.567 13.5051 9 11.9381 9 10.0051C9 8.07213 10.567 6.50513 12.5 6.50513C14.433 6.50513 16 8.07213 16 10.0051Z" fill="white"/>
</svg>
