<svg width="540" height="156" viewBox="0 0 540 156" fill="none" xmlns="http://www.w3.org/2000/svg">
<path d="M6.2168 144.078L2.68359 152H1.54688L5.06836 144.359H0.451172V143.469H6.2168V144.078ZM11.7012 143.463V144.383H11.502C10.6582 144.398 9.98633 144.648 9.48633 145.133C8.98633 145.617 8.69727 146.299 8.61914 147.178C9.06836 146.662 9.68164 146.404 10.459 146.404C11.2012 146.404 11.793 146.666 12.2344 147.189C12.6797 147.713 12.9023 148.389 12.9023 149.217C12.9023 150.096 12.6621 150.799 12.1816 151.326C11.7051 151.854 11.0645 152.117 10.2598 152.117C9.44336 152.117 8.78125 151.805 8.27344 151.18C7.76562 150.551 7.51172 149.742 7.51172 148.754V148.338C7.51172 146.768 7.8457 145.568 8.51367 144.74C9.18555 143.908 10.1836 143.482 11.5078 143.463H11.7012ZM10.2773 147.307C9.90625 147.307 9.56445 147.418 9.25195 147.641C8.93945 147.863 8.72266 148.143 8.60156 148.479V148.877C8.60156 149.58 8.75977 150.146 9.07617 150.576C9.39258 151.006 9.78711 151.221 10.2598 151.221C10.748 151.221 11.1309 151.041 11.4082 150.682C11.6895 150.322 11.8301 149.852 11.8301 149.27C11.8301 148.684 11.6875 148.211 11.4023 147.852C11.1211 147.488 10.7461 147.307 10.2773 147.307ZM19.5352 148.361C19.5352 149.631 19.3184 150.574 18.8848 151.191C18.4512 151.809 17.7734 152.117 16.8516 152.117C15.9414 152.117 15.2676 151.816 14.8301 151.215C14.3926 150.609 14.166 149.707 14.1504 148.508V147.061C14.1504 145.807 14.3672 144.875 14.8008 144.266C15.2344 143.656 15.9141 143.352 16.8398 143.352C17.7578 143.352 18.4336 143.646 18.8672 144.236C19.3008 144.822 19.5234 145.729 19.5352 146.955V148.361ZM18.4512 146.879C18.4512 145.961 18.3223 145.293 18.0645 144.875C17.8066 144.453 17.3984 144.242 16.8398 144.242C16.2852 144.242 15.8809 144.451 15.627 144.869C15.373 145.287 15.2422 145.93 15.2344 146.797V148.531C15.2344 149.453 15.3672 150.135 15.6328 150.576C15.9023 151.014 16.3086 151.232 16.8516 151.232C17.3867 151.232 17.7832 151.025 18.041 150.611C18.3027 150.197 18.4395 149.545 18.4512 148.654V146.879Z" fill="white"/>
<path d="M4.27148 12H3.18164V4.77539L0.996094 5.57812V4.59375L4.10156 3.42773H4.27148V12ZM7.52344 13.6992L6.9082 13.2773C7.27539 12.7656 7.4668 12.2383 7.48242 11.6953V10.7168H8.54297V11.5664C8.54297 11.9609 8.44531 12.3555 8.25 12.75C8.05859 13.1445 7.81641 13.4609 7.52344 13.6992ZM15.1523 8.36133C15.1523 9.63086 14.9355 10.5742 14.502 11.1914C14.0684 11.8086 13.3906 12.1172 12.4688 12.1172C11.5586 12.1172 10.8848 11.8164 10.4473 11.2148C10.0098 10.6094 9.7832 9.70703 9.76758 8.50781V7.06055C9.76758 5.80664 9.98438 4.875 10.418 4.26562C10.8516 3.65625 11.5312 3.35156 12.457 3.35156C13.375 3.35156 14.0508 3.64648 14.4844 4.23633C14.918 4.82227 15.1406 5.72852 15.1523 6.95508V8.36133ZM14.0684 6.87891C14.0684 5.96094 13.9395 5.29297 13.6816 4.875C13.4238 4.45312 13.0156 4.24219 12.457 4.24219C11.9023 4.24219 11.498 4.45117 11.2441 4.86914C10.9902 5.28711 10.8594 5.92969 10.8516 6.79688V8.53125C10.8516 9.45312 10.9844 10.1348 11.25 10.5762C11.5195 11.0137 11.9258 11.2324 12.4688 11.2324C13.0039 11.2324 13.4004 11.0254 13.6582 10.6113C13.9199 10.1973 14.0566 9.54492 14.0684 8.6543V6.87891ZM21.8906 8.36133C21.8906 9.63086 21.6738 10.5742 21.2402 11.1914C20.8066 11.8086 20.1289 12.1172 19.207 12.1172C18.2969 12.1172 17.623 11.8164 17.1855 11.2148C16.748 10.6094 16.5215 9.70703 16.5059 8.50781V7.06055C16.5059 5.80664 16.7227 4.875 17.1562 4.26562C17.5898 3.65625 18.2695 3.35156 19.1953 3.35156C20.1133 3.35156 20.7891 3.64648 21.2227 4.23633C21.6562 4.82227 21.8789 5.72852 21.8906 6.95508V8.36133ZM20.8066 6.87891C20.8066 5.96094 20.6777 5.29297 20.4199 4.875C20.1621 4.45312 19.7539 4.24219 19.1953 4.24219C18.6406 4.24219 18.2363 4.45117 17.9824 4.86914C17.7285 5.28711 17.5977 5.92969 17.5898 6.79688V8.53125C17.5898 9.45312 17.7227 10.1348 17.9883 10.5762C18.2578 11.0137 18.6641 11.2324 19.207 11.2324C19.7422 11.2324 20.1387 11.0254 20.3965 10.6113C20.6582 10.1973 20.7949 9.54492 20.8066 8.6543V6.87891ZM28.6289 8.36133C28.6289 9.63086 28.4121 10.5742 27.9785 11.1914C27.5449 11.8086 26.8672 12.1172 25.9453 12.1172C25.0352 12.1172 24.3613 11.8164 23.9238 11.2148C23.4863 10.6094 23.2598 9.70703 23.2441 8.50781V7.06055C23.2441 5.80664 23.4609 4.875 23.8945 4.26562C24.3281 3.65625 25.0078 3.35156 25.9336 3.35156C26.8516 3.35156 27.5273 3.64648 27.9609 4.23633C28.3945 4.82227 28.6172 5.72852 28.6289 6.95508V8.36133ZM27.5449 6.87891C27.5449 5.96094 27.416 5.29297 27.1582 4.875C26.9004 4.45312 26.4922 4.24219 25.9336 4.24219C25.3789 4.24219 24.9746 4.45117 24.7207 4.86914C24.4668 5.28711 24.3359 5.92969 24.3281 6.79688V8.53125C24.3281 9.45312 24.4609 10.1348 24.7266 10.5762C24.9961 11.0137 25.4023 11.2324 25.9453 11.2324C26.4805 11.2324 26.877 11.0254 27.1348 10.6113C27.3965 10.1973 27.5332 9.54492 27.5449 8.6543V6.87891Z" fill="white"/>
<path d="M40.2988 12H34.709V11.2207L37.6621 7.93945C38.0996 7.44336 38.4004 7.04102 38.5645 6.73242C38.7324 6.41992 38.8164 6.09766 38.8164 5.76562C38.8164 5.32031 38.6816 4.95508 38.4121 4.66992C38.1426 4.38477 37.7832 4.24219 37.334 4.24219C36.7949 4.24219 36.375 4.39648 36.0742 4.70508C35.7773 5.00977 35.6289 5.43555 35.6289 5.98242H34.5449C34.5449 5.19727 34.7969 4.5625 35.3008 4.07812C35.8086 3.59375 36.4863 3.35156 37.334 3.35156C38.127 3.35156 38.7539 3.56055 39.2148 3.97852C39.6758 4.39258 39.9062 4.94531 39.9062 5.63672C39.9062 6.47656 39.3711 7.47656 38.3008 8.63672L36.0156 11.1152H40.2988V12ZM41.9453 7.72266L42.3789 3.46875H46.75V4.4707H43.2988L43.041 6.79688C43.459 6.55078 43.9336 6.42773 44.4648 6.42773C45.2422 6.42773 45.8594 6.68555 46.3164 7.20117C46.7734 7.71289 47.002 8.40625 47.002 9.28125C47.002 10.1602 46.7637 10.8535 46.2871 11.3613C45.8145 11.8652 45.1523 12.1172 44.3008 12.1172C43.5469 12.1172 42.9316 11.9082 42.4551 11.4902C41.9785 11.0723 41.707 10.4941 41.6406 9.75586H42.666C42.7324 10.2441 42.9062 10.6133 43.1875 10.8633C43.4688 11.1094 43.8398 11.2324 44.3008 11.2324C44.8047 11.2324 45.1992 11.0605 45.4844 10.7168C45.7734 10.373 45.918 9.89844 45.918 9.29297C45.918 8.72266 45.7617 8.26562 45.4492 7.92188C45.1406 7.57422 44.7285 7.40039 44.2129 7.40039C43.7402 7.40039 43.3691 7.50391 43.0996 7.71094L42.8125 7.94531L41.9453 7.72266ZM53.5352 8.36133C53.5352 9.63086 53.3184 10.5742 52.8848 11.1914C52.4512 11.8086 51.7734 12.1172 50.8516 12.1172C49.9414 12.1172 49.2676 11.8164 48.8301 11.2148C48.3926 10.6094 48.166 9.70703 48.1504 8.50781V7.06055C48.1504 5.80664 48.3672 4.875 48.8008 4.26562C49.2344 3.65625 49.9141 3.35156 50.8398 3.35156C51.7578 3.35156 52.4336 3.64648 52.8672 4.23633C53.3008 4.82227 53.5234 5.72852 53.5352 6.95508V8.36133ZM52.4512 6.87891C52.4512 5.96094 52.3223 5.29297 52.0645 4.875C51.8066 4.45312 51.3984 4.24219 50.8398 4.24219C50.2852 4.24219 49.8809 4.45117 49.627 4.86914C49.373 5.28711 49.2422 5.92969 49.2344 6.79688V8.53125C49.2344 9.45312 49.3672 10.1348 49.6328 10.5762C49.9023 11.0137 50.3086 11.2324 50.8516 11.2324C51.3867 11.2324 51.7832 11.0254 52.041 10.6113C52.3027 10.1973 52.4395 9.54492 52.4512 8.6543V6.87891Z" fill="white"/>
<path d="M70.2715 12H69.1816V4.77539L66.9961 5.57812V4.59375L70.1016 3.42773H70.2715V12ZM78.7969 8.36133C78.7969 9.63086 78.5801 10.5742 78.1465 11.1914C77.7129 11.8086 77.0352 12.1172 76.1133 12.1172C75.2031 12.1172 74.5293 11.8164 74.0918 11.2148C73.6543 10.6094 73.4277 9.70703 73.4121 8.50781V7.06055C73.4121 5.80664 73.6289 4.875 74.0625 4.26562C74.4961 3.65625 75.1758 3.35156 76.1016 3.35156C77.0195 3.35156 77.6953 3.64648 78.1289 4.23633C78.5625 4.82227 78.7852 5.72852 78.7969 6.95508V8.36133ZM77.7129 6.87891C77.7129 5.96094 77.584 5.29297 77.3262 4.875C77.0684 4.45312 76.6602 4.24219 76.1016 4.24219C75.5469 4.24219 75.1426 4.45117 74.8887 4.86914C74.6348 5.28711 74.5039 5.92969 74.4961 6.79688V8.53125C74.4961 9.45312 74.6289 10.1348 74.8945 10.5762C75.1641 11.0137 75.5703 11.2324 76.1133 11.2324C76.6484 11.2324 77.0449 11.0254 77.3027 10.6113C77.5645 10.1973 77.7012 9.54492 77.7129 8.6543V6.87891ZM85.5352 8.36133C85.5352 9.63086 85.3184 10.5742 84.8848 11.1914C84.4512 11.8086 83.7734 12.1172 82.8516 12.1172C81.9414 12.1172 81.2676 11.8164 80.8301 11.2148C80.3926 10.6094 80.166 9.70703 80.1504 8.50781V7.06055C80.1504 5.80664 80.3672 4.875 80.8008 4.26562C81.2344 3.65625 81.9141 3.35156 82.8398 3.35156C83.7578 3.35156 84.4336 3.64648 84.8672 4.23633C85.3008 4.82227 85.5234 5.72852 85.5352 6.95508V8.36133ZM84.4512 6.87891C84.4512 5.96094 84.3223 5.29297 84.0645 4.875C83.8066 4.45312 83.3984 4.24219 82.8398 4.24219C82.2852 4.24219 81.8809 4.45117 81.627 4.86914C81.373 5.28711 81.2422 5.92969 81.2344 6.79688V8.53125C81.2344 9.45312 81.3672 10.1348 81.6328 10.5762C81.9023 11.0137 82.3086 11.2324 82.8516 11.2324C83.3867 11.2324 83.7832 11.0254 84.041 10.6113C84.3027 10.1973 84.4395 9.54492 84.4512 8.6543V6.87891Z" fill="white"/>
<path d="M71.3555 143.463V144.383H71.1562C70.3125 144.398 69.6406 144.648 69.1406 145.133C68.6406 145.617 68.3516 146.299 68.2734 147.178C68.7227 146.662 69.3359 146.404 70.1133 146.404C70.8555 146.404 71.4473 146.666 71.8887 147.189C72.334 147.713 72.5566 148.389 72.5566 149.217C72.5566 150.096 72.3164 150.799 71.8359 151.326C71.3594 151.854 70.7188 152.117 69.9141 152.117C69.0977 152.117 68.4355 151.805 67.9277 151.18C67.4199 150.551 67.166 149.742 67.166 148.754V148.338C67.166 146.768 67.5 145.568 68.168 144.74C68.8398 143.908 69.8379 143.482 71.1621 143.463H71.3555ZM69.9316 147.307C69.5605 147.307 69.2188 147.418 68.9062 147.641C68.5938 147.863 68.377 148.143 68.2559 148.479V148.877C68.2559 149.58 68.4141 150.146 68.7305 150.576C69.0469 151.006 69.4414 151.221 69.9141 151.221C70.4023 151.221 70.7852 151.041 71.0625 150.682C71.3438 150.322 71.4844 149.852 71.4844 149.27C71.4844 148.684 71.3418 148.211 71.0566 147.852C70.7754 147.488 70.4004 147.307 69.9316 147.307ZM77.4023 152H76.3125V144.775L74.127 145.578V144.594L77.2324 143.428H77.4023V152ZM85.9277 148.361C85.9277 149.631 85.7109 150.574 85.2773 151.191C84.8438 151.809 84.166 152.117 83.2441 152.117C82.334 152.117 81.6602 151.816 81.2227 151.215C80.7852 150.609 80.5586 149.707 80.543 148.508V147.061C80.543 145.807 80.7598 144.875 81.1934 144.266C81.627 143.656 82.3066 143.352 83.2324 143.352C84.1504 143.352 84.8262 143.646 85.2598 144.236C85.6934 144.822 85.916 145.729 85.9277 146.955V148.361ZM84.8438 146.879C84.8438 145.961 84.7148 145.293 84.457 144.875C84.1992 144.453 83.791 144.242 83.2324 144.242C82.6777 144.242 82.2734 144.451 82.0195 144.869C81.7656 145.287 81.6348 145.93 81.627 146.797V148.531C81.627 149.453 81.7598 150.135 82.0254 150.576C82.2949 151.014 82.7012 151.232 83.2441 151.232C83.7793 151.232 84.1758 151.025 84.4336 150.611C84.6953 150.197 84.832 149.545 84.8438 148.654V146.879Z" fill="white"/>
<path d="M144.6 147.723L145.033 143.469H149.404V144.471H145.953L145.695 146.797C146.113 146.551 146.588 146.428 147.119 146.428C147.896 146.428 148.514 146.686 148.971 147.201C149.428 147.713 149.656 148.406 149.656 149.281C149.656 150.16 149.418 150.854 148.941 151.361C148.469 151.865 147.807 152.117 146.955 152.117C146.201 152.117 145.586 151.908 145.109 151.49C144.633 151.072 144.361 150.494 144.295 149.756H145.32C145.387 150.244 145.561 150.613 145.842 150.863C146.123 151.109 146.494 151.232 146.955 151.232C147.459 151.232 147.854 151.061 148.139 150.717C148.428 150.373 148.572 149.898 148.572 149.293C148.572 148.723 148.416 148.266 148.104 147.922C147.795 147.574 147.383 147.4 146.867 147.4C146.395 147.4 146.023 147.504 145.754 147.711L145.467 147.945L144.6 147.723ZM154.994 148.25C154.768 148.52 154.496 148.736 154.18 148.9C153.867 149.064 153.523 149.146 153.148 149.146C152.656 149.146 152.227 149.025 151.859 148.783C151.496 148.541 151.215 148.201 151.016 147.764C150.816 147.322 150.717 146.836 150.717 146.305C150.717 145.734 150.824 145.221 151.039 144.764C151.258 144.307 151.566 143.957 151.965 143.715C152.363 143.473 152.828 143.352 153.359 143.352C154.203 143.352 154.867 143.668 155.352 144.301C155.84 144.93 156.084 145.789 156.084 146.879V147.195C156.084 148.855 155.756 150.068 155.1 150.834C154.443 151.596 153.453 151.986 152.129 152.006H151.918V151.092H152.146C153.041 151.076 153.729 150.844 154.209 150.395C154.689 149.941 154.951 149.227 154.994 148.25ZM153.324 148.25C153.688 148.25 154.021 148.139 154.326 147.916C154.635 147.693 154.859 147.418 155 147.09V146.656C155 145.945 154.846 145.367 154.537 144.922C154.229 144.477 153.838 144.254 153.365 144.254C152.889 144.254 152.506 144.438 152.217 144.805C151.928 145.168 151.783 145.648 151.783 146.246C151.783 146.828 151.922 147.309 152.199 147.688C152.48 148.062 152.855 148.25 153.324 148.25ZM162.928 148.361C162.928 149.631 162.711 150.574 162.277 151.191C161.844 151.809 161.166 152.117 160.244 152.117C159.334 152.117 158.66 151.816 158.223 151.215C157.785 150.609 157.559 149.707 157.543 148.508V147.061C157.543 145.807 157.76 144.875 158.193 144.266C158.627 143.656 159.307 143.352 160.232 143.352C161.15 143.352 161.826 143.646 162.26 144.236C162.693 144.822 162.916 145.729 162.928 146.955V148.361ZM161.844 146.879C161.844 145.961 161.715 145.293 161.457 144.875C161.199 144.453 160.791 144.242 160.232 144.242C159.678 144.242 159.273 144.451 159.02 144.869C158.766 145.287 158.635 145.93 158.627 146.797V148.531C158.627 149.453 158.76 150.135 159.025 150.576C159.295 151.014 159.701 151.232 160.244 151.232C160.779 151.232 161.176 151.025 161.434 150.611C161.695 150.197 161.832 149.545 161.844 148.654V146.879Z" fill="white"/>
<path d="M221.6 147.723L222.033 143.469H226.404V144.471H222.953L222.695 146.797C223.113 146.551 223.588 146.428 224.119 146.428C224.896 146.428 225.514 146.686 225.971 147.201C226.428 147.713 226.656 148.406 226.656 149.281C226.656 150.16 226.418 150.854 225.941 151.361C225.469 151.865 224.807 152.117 223.955 152.117C223.201 152.117 222.586 151.908 222.109 151.49C221.633 151.072 221.361 150.494 221.295 149.756H222.32C222.387 150.244 222.561 150.613 222.842 150.863C223.123 151.109 223.494 151.232 223.955 151.232C224.459 151.232 224.854 151.061 225.139 150.717C225.428 150.373 225.572 149.898 225.572 149.293C225.572 148.723 225.416 148.266 225.104 147.922C224.795 147.574 224.383 147.4 223.867 147.4C223.395 147.4 223.023 147.504 222.754 147.711L222.467 147.945L221.6 147.723ZM233.348 144.078L229.814 152H228.678L232.199 144.359H227.582V143.469H233.348V144.078ZM239.928 148.361C239.928 149.631 239.711 150.574 239.277 151.191C238.844 151.809 238.166 152.117 237.244 152.117C236.334 152.117 235.66 151.816 235.223 151.215C234.785 150.609 234.559 149.707 234.543 148.508V147.061C234.543 145.807 234.76 144.875 235.193 144.266C235.627 143.656 236.307 143.352 237.232 143.352C238.15 143.352 238.826 143.646 239.26 144.236C239.693 144.822 239.916 145.729 239.928 146.955V148.361ZM238.844 146.879C238.844 145.961 238.715 145.293 238.457 144.875C238.199 144.453 237.791 144.242 237.232 144.242C236.678 144.242 236.273 144.451 236.02 144.869C235.766 145.287 235.635 145.93 235.627 146.797V148.531C235.627 149.453 235.76 150.135 236.025 150.576C236.295 151.014 236.701 151.232 237.244 151.232C237.779 151.232 238.176 151.025 238.434 150.611C238.695 150.197 238.832 149.545 238.844 148.654V146.879Z" fill="white"/>
<path d="M299.6 147.723L300.033 143.469H304.404V144.471H300.953L300.695 146.797C301.113 146.551 301.588 146.428 302.119 146.428C302.896 146.428 303.514 146.686 303.971 147.201C304.428 147.713 304.656 148.406 304.656 149.281C304.656 150.16 304.418 150.854 303.941 151.361C303.469 151.865 302.807 152.117 301.955 152.117C301.201 152.117 300.586 151.908 300.109 151.49C299.633 151.072 299.361 150.494 299.295 149.756H300.32C300.387 150.244 300.561 150.613 300.842 150.863C301.123 151.109 301.494 151.232 301.955 151.232C302.459 151.232 302.854 151.061 303.139 150.717C303.428 150.373 303.572 149.898 303.572 149.293C303.572 148.723 303.416 148.266 303.104 147.922C302.795 147.574 302.383 147.4 301.867 147.4C301.395 147.4 301.023 147.504 300.754 147.711L300.467 147.945L299.6 147.723ZM307.416 147.207H308.23C308.742 147.199 309.145 147.064 309.438 146.803C309.73 146.541 309.877 146.188 309.877 145.742C309.877 144.742 309.379 144.242 308.383 144.242C307.914 144.242 307.539 144.377 307.258 144.646C306.98 144.912 306.842 145.266 306.842 145.707H305.758C305.758 145.031 306.004 144.471 306.496 144.025C306.992 143.576 307.621 143.352 308.383 143.352C309.188 143.352 309.818 143.564 310.275 143.99C310.732 144.416 310.961 145.008 310.961 145.766C310.961 146.137 310.84 146.496 310.598 146.844C310.359 147.191 310.033 147.451 309.619 147.623C310.088 147.771 310.449 148.018 310.703 148.361C310.961 148.705 311.09 149.125 311.09 149.621C311.09 150.387 310.84 150.994 310.34 151.443C309.84 151.893 309.189 152.117 308.389 152.117C307.588 152.117 306.936 151.9 306.432 151.467C305.932 151.033 305.682 150.461 305.682 149.75H306.771C306.771 150.199 306.918 150.559 307.211 150.828C307.504 151.098 307.896 151.232 308.389 151.232C308.912 151.232 309.312 151.096 309.59 150.822C309.867 150.549 310.006 150.156 310.006 149.645C310.006 149.148 309.854 148.768 309.549 148.502C309.244 148.236 308.805 148.1 308.23 148.092H307.416V147.207ZM317.928 148.361C317.928 149.631 317.711 150.574 317.277 151.191C316.844 151.809 316.166 152.117 315.244 152.117C314.334 152.117 313.66 151.816 313.223 151.215C312.785 150.609 312.559 149.707 312.543 148.508V147.061C312.543 145.807 312.76 144.875 313.193 144.266C313.627 143.656 314.307 143.352 315.232 143.352C316.15 143.352 316.826 143.646 317.26 144.236C317.693 144.822 317.916 145.729 317.928 146.955V148.361ZM316.844 146.879C316.844 145.961 316.715 145.293 316.457 144.875C316.199 144.453 315.791 144.242 315.232 144.242C314.678 144.242 314.273 144.451 314.02 144.869C313.766 145.287 313.635 145.93 313.627 146.797V148.531C313.627 149.453 313.76 150.135 314.025 150.576C314.295 151.014 314.701 151.232 315.244 151.232C315.779 151.232 316.176 151.025 316.434 150.611C316.695 150.197 316.832 149.545 316.844 148.654V146.879Z" fill="white"/>
<path d="M379.678 149.135H380.861V150.02H379.678V152H378.588V150.02H374.703V149.381L378.523 143.469H379.678V149.135ZM375.934 149.135H378.588V144.951L378.459 145.186L375.934 149.135ZM385.994 148.25C385.768 148.52 385.496 148.736 385.18 148.9C384.867 149.064 384.523 149.146 384.148 149.146C383.656 149.146 383.227 149.025 382.859 148.783C382.496 148.541 382.215 148.201 382.016 147.764C381.816 147.322 381.717 146.836 381.717 146.305C381.717 145.734 381.824 145.221 382.039 144.764C382.258 144.307 382.566 143.957 382.965 143.715C383.363 143.473 383.828 143.352 384.359 143.352C385.203 143.352 385.867 143.668 386.352 144.301C386.84 144.93 387.084 145.789 387.084 146.879V147.195C387.084 148.855 386.756 150.068 386.1 150.834C385.443 151.596 384.453 151.986 383.129 152.006H382.918V151.092H383.146C384.041 151.076 384.729 150.844 385.209 150.395C385.689 149.941 385.951 149.227 385.994 148.25ZM384.324 148.25C384.688 148.25 385.021 148.139 385.326 147.916C385.635 147.693 385.859 147.418 386 147.09V146.656C386 145.945 385.846 145.367 385.537 144.922C385.229 144.477 384.838 144.254 384.365 144.254C383.889 144.254 383.506 144.438 383.217 144.805C382.928 145.168 382.783 145.648 382.783 146.246C382.783 146.828 382.922 147.309 383.199 147.688C383.48 148.062 383.855 148.25 384.324 148.25ZM393.928 148.361C393.928 149.631 393.711 150.574 393.277 151.191C392.844 151.809 392.166 152.117 391.244 152.117C390.334 152.117 389.66 151.816 389.223 151.215C388.785 150.609 388.559 149.707 388.543 148.508V147.061C388.543 145.807 388.76 144.875 389.193 144.266C389.627 143.656 390.307 143.352 391.232 143.352C392.15 143.352 392.826 143.646 393.26 144.236C393.693 144.822 393.916 145.729 393.928 146.955V148.361ZM392.844 146.879C392.844 145.961 392.715 145.293 392.457 144.875C392.199 144.453 391.791 144.242 391.232 144.242C390.678 144.242 390.273 144.451 390.02 144.869C389.766 145.287 389.635 145.93 389.627 146.797V148.531C389.627 149.453 389.76 150.135 390.025 150.576C390.295 151.014 390.701 151.232 391.244 151.232C391.779 151.232 392.176 151.025 392.434 150.611C392.695 150.197 392.832 149.545 392.844 148.654V146.879Z" fill="white"/>
<path d="M456.678 149.135H457.861V150.02H456.678V152H455.588V150.02H451.703V149.381L455.523 143.469H456.678V149.135ZM452.934 149.135H455.588V144.951L455.459 145.186L452.934 149.135ZM464.348 144.078L460.814 152H459.678L463.199 144.359H458.582V143.469H464.348V144.078ZM466.076 147.723L466.51 143.469H470.881V144.471H467.43L467.172 146.797C467.59 146.551 468.064 146.428 468.596 146.428C469.373 146.428 469.99 146.686 470.447 147.201C470.904 147.713 471.133 148.406 471.133 149.281C471.133 150.16 470.895 150.854 470.418 151.361C469.945 151.865 469.283 152.117 468.432 152.117C467.678 152.117 467.062 151.908 466.586 151.49C466.109 151.072 465.838 150.494 465.771 149.756H466.797C466.863 150.244 467.037 150.613 467.318 150.863C467.6 151.109 467.971 151.232 468.432 151.232C468.936 151.232 469.33 151.061 469.615 150.717C469.904 150.373 470.049 149.898 470.049 149.293C470.049 148.723 469.893 148.266 469.58 147.922C469.271 147.574 468.859 147.4 468.344 147.4C467.871 147.4 467.5 147.504 467.23 147.711L466.943 147.945L466.076 147.723Z" fill="white"/>
<path d="M525.07 149.135H526.254V150.02H525.07V152H523.98V150.02H520.096V149.381L523.916 143.469H525.07V149.135ZM521.326 149.135H523.98V144.951L523.852 145.186L521.326 149.135ZM532.582 148.361C532.582 149.631 532.365 150.574 531.932 151.191C531.498 151.809 530.82 152.117 529.898 152.117C528.988 152.117 528.314 151.816 527.877 151.215C527.439 150.609 527.213 149.707 527.197 148.508V147.061C527.197 145.807 527.414 144.875 527.848 144.266C528.281 143.656 528.961 143.352 529.887 143.352C530.805 143.352 531.48 143.646 531.914 144.236C532.348 144.822 532.57 145.729 532.582 146.955V148.361ZM531.498 146.879C531.498 145.961 531.369 145.293 531.111 144.875C530.854 144.453 530.445 144.242 529.887 144.242C529.332 144.242 528.928 144.451 528.674 144.869C528.42 145.287 528.289 145.93 528.281 146.797V148.531C528.281 149.453 528.414 150.135 528.68 150.576C528.949 151.014 529.355 151.232 529.898 151.232C530.434 151.232 530.83 151.025 531.088 150.611C531.35 150.197 531.486 149.545 531.498 148.654V146.879ZM539.32 148.361C539.32 149.631 539.104 150.574 538.67 151.191C538.236 151.809 537.559 152.117 536.637 152.117C535.727 152.117 535.053 151.816 534.615 151.215C534.178 150.609 533.951 149.707 533.936 148.508V147.061C533.936 145.807 534.152 144.875 534.586 144.266C535.02 143.656 535.699 143.352 536.625 143.352C537.543 143.352 538.219 143.646 538.652 144.236C539.086 144.822 539.309 145.729 539.32 146.955V148.361ZM538.236 146.879C538.236 145.961 538.107 145.293 537.85 144.875C537.592 144.453 537.184 144.242 536.625 144.242C536.07 144.242 535.666 144.451 535.412 144.869C535.158 145.287 535.027 145.93 535.02 146.797V148.531C535.02 149.453 535.152 150.135 535.418 150.576C535.688 151.014 536.094 151.232 536.637 151.232C537.172 151.232 537.568 151.025 537.826 150.611C538.088 150.197 538.225 149.545 538.236 148.654V146.879Z" fill="white"/>
<path d="M539.32 8.36133C539.32 9.63086 539.104 10.5742 538.67 11.1914C538.236 11.8086 537.559 12.1172 536.637 12.1172C535.727 12.1172 535.053 11.8164 534.615 11.2148C534.178 10.6094 533.951 9.70703 533.936 8.50781V7.06055C533.936 5.80664 534.152 4.875 534.586 4.26562C535.02 3.65625 535.699 3.35156 536.625 3.35156C537.543 3.35156 538.219 3.64648 538.652 4.23633C539.086 4.82227 539.309 5.72852 539.32 6.95508V8.36133ZM538.236 6.87891C538.236 5.96094 538.107 5.29297 537.85 4.875C537.592 4.45312 537.184 4.24219 536.625 4.24219C536.07 4.24219 535.666 4.45117 535.412 4.86914C535.158 5.28711 535.027 5.92969 535.02 6.79688V8.53125C535.02 9.45312 535.152 10.1348 535.418 10.5762C535.688 11.0137 536.094 11.2324 536.637 11.2324C537.172 11.2324 537.568 11.0254 537.826 10.6113C538.088 10.1973 538.225 9.54492 538.236 8.6543V6.87891Z" fill="white"/>
<path d="M503.227 8.36133C503.227 9.63086 503.01 10.5742 502.576 11.1914C502.143 11.8086 501.465 12.1172 500.543 12.1172C499.633 12.1172 498.959 11.8164 498.521 11.2148C498.084 10.6094 497.857 9.70703 497.842 8.50781V7.06055C497.842 5.80664 498.059 4.875 498.492 4.26562C498.926 3.65625 499.605 3.35156 500.531 3.35156C501.449 3.35156 502.125 3.64648 502.559 4.23633C502.992 4.82227 503.215 5.72852 503.227 6.95508V8.36133ZM502.143 6.87891C502.143 5.96094 502.014 5.29297 501.756 4.875C501.498 4.45312 501.09 4.24219 500.531 4.24219C499.977 4.24219 499.572 4.45117 499.318 4.86914C499.064 5.28711 498.934 5.92969 498.926 6.79688V8.53125C498.926 9.45312 499.059 10.1348 499.324 10.5762C499.594 11.0137 500 11.2324 500.543 11.2324C501.078 11.2324 501.475 11.0254 501.732 10.6113C501.994 10.1973 502.131 9.54492 502.143 8.6543V6.87891ZM504.691 13.6992L504.076 13.2773C504.443 12.7656 504.635 12.2383 504.65 11.6953V10.7168H505.711V11.5664C505.711 11.9609 505.613 12.3555 505.418 12.75C505.227 13.1445 504.984 13.4609 504.691 13.6992ZM507.469 7.72266L507.902 3.46875H512.273V4.4707H508.822L508.564 6.79688C508.982 6.55078 509.457 6.42773 509.988 6.42773C510.766 6.42773 511.383 6.68555 511.84 7.20117C512.297 7.71289 512.525 8.40625 512.525 9.28125C512.525 10.1602 512.287 10.8535 511.811 11.3613C511.338 11.8652 510.676 12.1172 509.824 12.1172C509.07 12.1172 508.455 11.9082 507.979 11.4902C507.502 11.0723 507.23 10.4941 507.164 9.75586H508.189C508.256 10.2441 508.43 10.6133 508.711 10.8633C508.992 11.1094 509.363 11.2324 509.824 11.2324C510.328 11.2324 510.723 11.0605 511.008 10.7168C511.297 10.373 511.441 9.89844 511.441 9.29297C511.441 8.72266 511.285 8.26562 510.973 7.92188C510.664 7.57422 510.252 7.40039 509.736 7.40039C509.264 7.40039 508.893 7.50391 508.623 7.71094L508.336 7.94531L507.469 7.72266Z" fill="white"/>
<path d="M472.533 12H471.443V4.77539L469.258 5.57812V4.59375L472.363 3.42773H472.533V12Z" fill="white"/>
<path d="M440.561 12H434.971V11.2207L437.924 7.93945C438.361 7.44336 438.662 7.04102 438.826 6.73242C438.994 6.41992 439.078 6.09766 439.078 5.76562C439.078 5.32031 438.943 4.95508 438.674 4.66992C438.404 4.38477 438.045 4.24219 437.596 4.24219C437.057 4.24219 436.637 4.39648 436.336 4.70508C436.039 5.00977 435.891 5.43555 435.891 5.98242H434.807C434.807 5.19727 435.059 4.5625 435.562 4.07812C436.07 3.59375 436.748 3.35156 437.596 3.35156C438.389 3.35156 439.016 3.56055 439.477 3.97852C439.938 4.39258 440.168 4.94531 440.168 5.63672C440.168 6.47656 439.633 7.47656 438.562 8.63672L436.277 11.1152H440.561V12Z" fill="white"/>
<path d="M402.547 7.20703H403.361C403.873 7.19922 404.275 7.06445 404.568 6.80273C404.861 6.54102 405.008 6.1875 405.008 5.74219C405.008 4.74219 404.51 4.24219 403.514 4.24219C403.045 4.24219 402.67 4.37695 402.389 4.64648C402.111 4.91211 401.973 5.26562 401.973 5.70703H400.889C400.889 5.03125 401.135 4.4707 401.627 4.02539C402.123 3.57617 402.752 3.35156 403.514 3.35156C404.318 3.35156 404.949 3.56445 405.406 3.99023C405.863 4.41602 406.092 5.00781 406.092 5.76562C406.092 6.13672 405.971 6.49609 405.729 6.84375C405.49 7.19141 405.164 7.45117 404.75 7.62305C405.219 7.77148 405.58 8.01758 405.834 8.36133C406.092 8.70508 406.221 9.125 406.221 9.62109C406.221 10.3867 405.971 10.9941 405.471 11.4434C404.971 11.8926 404.32 12.1172 403.52 12.1172C402.719 12.1172 402.066 11.9004 401.562 11.4668C401.062 11.0332 400.812 10.4609 400.812 9.75H401.902C401.902 10.1992 402.049 10.5586 402.342 10.8281C402.635 11.0977 403.027 11.2324 403.52 11.2324C404.043 11.2324 404.443 11.0957 404.721 10.8223C404.998 10.5488 405.137 10.1562 405.137 9.64453C405.137 9.14844 404.984 8.76758 404.68 8.50195C404.375 8.23633 403.936 8.09961 403.361 8.0918H402.547V7.20703Z" fill="white"/>
<path d="M372.547 9.13477H373.73V10.0195H372.547V12H371.457V10.0195H367.572V9.38086L371.393 3.46875H372.547V9.13477ZM368.803 9.13477H371.457V4.95117L371.328 5.18555L368.803 9.13477Z" fill="white"/>
<path d="M334.469 7.72266L334.902 3.46875H339.273V4.4707H335.822L335.564 6.79688C335.982 6.55078 336.457 6.42773 336.988 6.42773C337.766 6.42773 338.383 6.68555 338.84 7.20117C339.297 7.71289 339.525 8.40625 339.525 9.28125C339.525 10.1602 339.287 10.8535 338.811 11.3613C338.338 11.8652 337.676 12.1172 336.824 12.1172C336.07 12.1172 335.455 11.9082 334.979 11.4902C334.502 11.0723 334.23 10.4941 334.164 9.75586H335.189C335.256 10.2441 335.43 10.6133 335.711 10.8633C335.992 11.1094 336.363 11.2324 336.824 11.2324C337.328 11.2324 337.723 11.0605 338.008 10.7168C338.297 10.373 338.441 9.89844 338.441 9.29297C338.441 8.72266 338.285 8.26562 337.973 7.92188C337.664 7.57422 337.252 7.40039 336.736 7.40039C336.264 7.40039 335.893 7.50391 335.623 7.71094L335.336 7.94531L334.469 7.72266Z" fill="white"/>
<path d="M304.225 3.46289V4.38281H304.025C303.182 4.39844 302.51 4.64844 302.01 5.13281C301.51 5.61719 301.221 6.29883 301.143 7.17773C301.592 6.66211 302.205 6.4043 302.982 6.4043C303.725 6.4043 304.316 6.66602 304.758 7.18945C305.203 7.71289 305.426 8.38867 305.426 9.2168C305.426 10.0957 305.186 10.7988 304.705 11.3262C304.229 11.8535 303.588 12.1172 302.783 12.1172C301.967 12.1172 301.305 11.8047 300.797 11.1797C300.289 10.5508 300.035 9.74219 300.035 8.75391V8.33789C300.035 6.76758 300.369 5.56836 301.037 4.74023C301.709 3.9082 302.707 3.48242 304.031 3.46289H304.225ZM302.801 7.30664C302.43 7.30664 302.088 7.41797 301.775 7.64062C301.463 7.86328 301.246 8.14258 301.125 8.47852V8.87695C301.125 9.58008 301.283 10.1465 301.6 10.5762C301.916 11.0059 302.311 11.2207 302.783 11.2207C303.271 11.2207 303.654 11.041 303.932 10.6816C304.213 10.3223 304.354 9.85156 304.354 9.26953C304.354 8.68359 304.211 8.21094 303.926 7.85156C303.645 7.48828 303.27 7.30664 302.801 7.30664Z" fill="white"/>
<path d="M272.479 4.07812L268.945 12H267.809L271.33 4.35938H266.713V3.46875H272.479V4.07812Z" fill="white"/>
<path d="M239.145 5.69531C239.145 6.12109 239.031 6.5 238.805 6.83203C238.582 7.16406 238.279 7.42383 237.896 7.61133C238.342 7.80273 238.693 8.08203 238.951 8.44922C239.213 8.81641 239.344 9.23242 239.344 9.69727C239.344 10.4355 239.094 11.0234 238.594 11.4609C238.098 11.8984 237.443 12.1172 236.631 12.1172C235.811 12.1172 235.152 11.8984 234.656 11.4609C234.164 11.0195 233.918 10.4316 233.918 9.69727C233.918 9.23633 234.043 8.82031 234.293 8.44922C234.547 8.07812 234.896 7.79688 235.342 7.60547C234.963 7.41797 234.664 7.1582 234.445 6.82617C234.227 6.49414 234.117 6.11719 234.117 5.69531C234.117 4.97656 234.348 4.40625 234.809 3.98438C235.27 3.5625 235.877 3.35156 236.631 3.35156C237.381 3.35156 237.986 3.5625 238.447 3.98438C238.912 4.40625 239.145 4.97656 239.145 5.69531ZM238.26 9.67383C238.26 9.19727 238.107 8.80859 237.803 8.50781C237.502 8.20703 237.107 8.05664 236.619 8.05664C236.131 8.05664 235.738 8.20508 235.441 8.50195C235.148 8.79883 235.002 9.18945 235.002 9.67383C235.002 10.1582 235.145 10.5391 235.43 10.8164C235.719 11.0938 236.119 11.2324 236.631 11.2324C237.139 11.2324 237.537 11.0938 237.826 10.8164C238.115 10.5352 238.26 10.1543 238.26 9.67383ZM236.631 4.24219C236.205 4.24219 235.859 4.375 235.594 4.64062C235.332 4.90234 235.201 5.25977 235.201 5.71289C235.201 6.14648 235.33 6.49805 235.588 6.76758C235.85 7.0332 236.197 7.16602 236.631 7.16602C237.064 7.16602 237.41 7.0332 237.668 6.76758C237.93 6.49805 238.061 6.14648 238.061 5.71289C238.061 5.2793 237.926 4.92578 237.656 4.65234C237.387 4.37891 237.045 4.24219 236.631 4.24219Z" fill="white"/>
<path d="M204.125 8.25C203.898 8.51953 203.627 8.73633 203.311 8.90039C202.998 9.06445 202.654 9.14648 202.279 9.14648C201.787 9.14648 201.357 9.02539 200.99 8.7832C200.627 8.54102 200.346 8.20117 200.146 7.76367C199.947 7.32227 199.848 6.83594 199.848 6.30469C199.848 5.73438 199.955 5.2207 200.17 4.76367C200.389 4.30664 200.697 3.95703 201.096 3.71484C201.494 3.47266 201.959 3.35156 202.49 3.35156C203.334 3.35156 203.998 3.66797 204.482 4.30078C204.971 4.92969 205.215 5.78906 205.215 6.87891V7.19531C205.215 8.85547 204.887 10.0684 204.23 10.834C203.574 11.5957 202.584 11.9863 201.26 12.0059H201.049V11.0918H201.277C202.172 11.0762 202.859 10.8438 203.34 10.3945C203.82 9.94141 204.082 9.22656 204.125 8.25ZM202.455 8.25C202.818 8.25 203.152 8.13867 203.457 7.91602C203.766 7.69336 203.99 7.41797 204.131 7.08984V6.65625C204.131 5.94531 203.977 5.36719 203.668 4.92188C203.359 4.47656 202.969 4.25391 202.496 4.25391C202.02 4.25391 201.637 4.4375 201.348 4.80469C201.059 5.16797 200.914 5.64844 200.914 6.24609C200.914 6.82812 201.053 7.30859 201.33 7.6875C201.611 8.0625 201.986 8.25 202.455 8.25Z" fill="white"/>
<path d="M166.795 12H165.705V4.77539L163.52 5.57812V4.59375L166.625 3.42773H166.795V12ZM175.32 8.36133C175.32 9.63086 175.104 10.5742 174.67 11.1914C174.236 11.8086 173.559 12.1172 172.637 12.1172C171.727 12.1172 171.053 11.8164 170.615 11.2148C170.178 10.6094 169.951 9.70703 169.936 8.50781V7.06055C169.936 5.80664 170.152 4.875 170.586 4.26562C171.02 3.65625 171.699 3.35156 172.625 3.35156C173.543 3.35156 174.219 3.64648 174.652 4.23633C175.086 4.82227 175.309 5.72852 175.32 6.95508V8.36133ZM174.236 6.87891C174.236 5.96094 174.107 5.29297 173.85 4.875C173.592 4.45312 173.184 4.24219 172.625 4.24219C172.07 4.24219 171.666 4.45117 171.412 4.86914C171.158 5.28711 171.027 5.92969 171.02 6.79688V8.53125C171.02 9.45312 171.152 10.1348 171.418 10.5762C171.688 11.0137 172.094 11.2324 172.637 11.2324C173.172 11.2324 173.568 11.0254 173.826 10.6113C174.088 10.1973 174.225 9.54492 174.236 8.6543V6.87891Z" fill="white"/>
<path d="M135.822 12H130.232V11.2207L133.186 7.93945C133.623 7.44336 133.924 7.04102 134.088 6.73242C134.256 6.41992 134.34 6.09766 134.34 5.76562C134.34 5.32031 134.205 4.95508 133.936 4.66992C133.666 4.38477 133.307 4.24219 132.857 4.24219C132.318 4.24219 131.898 4.39648 131.598 4.70508C131.301 5.00977 131.152 5.43555 131.152 5.98242H130.068C130.068 5.19727 130.32 4.5625 130.824 4.07812C131.332 3.59375 132.01 3.35156 132.857 3.35156C133.65 3.35156 134.277 3.56055 134.738 3.97852C135.199 4.39258 135.43 4.94531 135.43 5.63672C135.43 6.47656 134.895 7.47656 133.824 8.63672L131.539 11.1152H135.822V12ZM137.469 7.72266L137.902 3.46875H142.273V4.4707H138.822L138.564 6.79688C138.982 6.55078 139.457 6.42773 139.988 6.42773C140.766 6.42773 141.383 6.68555 141.84 7.20117C142.297 7.71289 142.525 8.40625 142.525 9.28125C142.525 10.1602 142.287 10.8535 141.811 11.3613C141.338 11.8652 140.676 12.1172 139.824 12.1172C139.07 12.1172 138.455 11.9082 137.979 11.4902C137.502 11.0723 137.23 10.4941 137.164 9.75586H138.189C138.256 10.2441 138.43 10.6133 138.711 10.8633C138.992 11.1094 139.363 11.2324 139.824 11.2324C140.328 11.2324 140.723 11.0605 141.008 10.7168C141.297 10.373 141.441 9.89844 141.441 9.29297C141.441 8.72266 141.285 8.26562 140.973 7.92188C140.664 7.57422 140.252 7.40039 139.736 7.40039C139.264 7.40039 138.893 7.50391 138.623 7.71094L138.336 7.94531L137.469 7.72266Z" fill="white"/>
<path d="M96.7305 7.72266L97.1641 3.46875H101.535V4.4707H98.084L97.8262 6.79688C98.2441 6.55078 98.7188 6.42773 99.25 6.42773C100.027 6.42773 100.645 6.68555 101.102 7.20117C101.559 7.71289 101.787 8.40625 101.787 9.28125C101.787 10.1602 101.549 10.8535 101.072 11.3613C100.6 11.8652 99.9375 12.1172 99.0859 12.1172C98.332 12.1172 97.7168 11.9082 97.2402 11.4902C96.7637 11.0723 96.4922 10.4941 96.4258 9.75586H97.4512C97.5176 10.2441 97.6914 10.6133 97.9727 10.8633C98.2539 11.1094 98.625 11.2324 99.0859 11.2324C99.5898 11.2324 99.9844 11.0605 100.27 10.7168C100.559 10.373 100.703 9.89844 100.703 9.29297C100.703 8.72266 100.547 8.26562 100.234 7.92188C99.9258 7.57422 99.5137 7.40039 98.998 7.40039C98.5254 7.40039 98.1543 7.50391 97.8848 7.71094L97.5977 7.94531L96.7305 7.72266ZM108.32 8.36133C108.32 9.63086 108.104 10.5742 107.67 11.1914C107.236 11.8086 106.559 12.1172 105.637 12.1172C104.727 12.1172 104.053 11.8164 103.615 11.2148C103.178 10.6094 102.951 9.70703 102.936 8.50781V7.06055C102.936 5.80664 103.152 4.875 103.586 4.26562C104.02 3.65625 104.699 3.35156 105.625 3.35156C106.543 3.35156 107.219 3.64648 107.652 4.23633C108.086 4.82227 108.309 5.72852 108.32 6.95508V8.36133ZM107.236 6.87891C107.236 5.96094 107.107 5.29297 106.85 4.875C106.592 4.45312 106.184 4.24219 105.625 4.24219C105.07 4.24219 104.666 4.45117 104.412 4.86914C104.158 5.28711 104.027 5.92969 104.02 6.79688V8.53125C104.02 9.45312 104.152 10.1348 104.418 10.5762C104.688 11.0137 105.094 11.2324 105.637 11.2324C106.172 11.2324 106.568 11.0254 106.826 10.6113C107.088 10.1973 107.225 9.54492 107.236 8.6543V6.87891Z" fill="white"/>
<rect y="40" width="540" height="92" fill="url(#paint0_linear)"/>
<rect y="24" width="32" height="14" fill="#B8261A"/>
<rect x="34" y="24" width="32" height="14" fill="#E7333D"/>
<rect x="68" y="24" width="32" height="14" fill="#EA6F2D"/>
<rect x="102" y="24" width="31" height="14" fill="#EF9D38"/>
<rect x="136" y="24" width="31" height="14" fill="#F6CD45"/>
<rect x="169" y="24" width="32" height="14" fill="#FFFE69"/>
<rect x="203" y="24" width="32" height="14" fill="#DBEB50"/>
<rect x="237" y="24" width="32" height="14" fill="#9EF862"/>
<rect x="271" y="24" width="32" height="14" fill="#7BFA8D"/>
<rect x="305" y="24" width="32" height="14" fill="#7CFBCF"/>
<rect x="339" y="24" width="32" height="14" fill="#62CAFA"/>
<rect x="373" y="24" width="31" height="14" fill="#4898F7"/>
<rect x="407" y="24" width="31" height="14" fill="#4268F6"/>
<rect x="440" y="24" width="32" height="14" fill="#353AF5"/>
<rect x="474" y="24" width="32" height="14" fill="#5F3AC4"/>
<rect x="508" y="24" width="32" height="14" fill="#8A22C5"/>
<line x1="539.5" y1="132" x2="539.5" y2="137" stroke="white"/>
<line x1="462.5" y1="132" x2="462.5" y2="137" stroke="white"/>
<line x1="385.5" y1="132" x2="385.5" y2="137" stroke="white"/>
<line x1="308.5" y1="132" x2="308.5" y2="137" stroke="white"/>
<line x1="231.5" y1="132" x2="231.5" y2="137" stroke="white"/>
<line x1="154.5" y1="132" x2="154.5" y2="137" stroke="white"/>
<line x1="77.5" y1="132" x2="77.5" y2="137" stroke="white"/>
<line x1="0.5" y1="132" x2="0.5" y2="137" stroke="white"/>
<line x1="0.5" y1="19" x2="0.5" y2="24" stroke="white"/>
<line x1="34.5" y1="19" x2="34.5" y2="24" stroke="white"/>
<line x1="67.5" y1="19" x2="67.5" y2="24" stroke="white"/>
<line x1="101.5" y1="19" x2="101.5" y2="24" stroke="white"/>
<line x1="135.5" y1="19" x2="135.5" y2="24" stroke="white"/>
<line x1="168.5" y1="19" x2="168.5" y2="24" stroke="white"/>
<line x1="202.5" y1="19" x2="202.5" y2="24" stroke="white"/>
<line x1="236.5" y1="19" x2="236.5" y2="24" stroke="white"/>
<line x1="269.5" y1="19" x2="269.5" y2="24" stroke="white"/>
<line x1="303.5" y1="19" x2="303.5" y2="24" stroke="white"/>
<line x1="337.5" y1="19" x2="337.5" y2="24" stroke="white"/>
<line x1="371.5" y1="19" x2="371.5" y2="24" stroke="white"/>
<line x1="404.5" y1="19" x2="404.5" y2="24" stroke="white"/>
<line x1="438.5" y1="19" x2="438.5" y2="24" stroke="white"/>
<line x1="472.5" y1="19" x2="472.5" y2="24" stroke="white"/>
<line x1="505.5" y1="19" x2="505.5" y2="24" stroke="white"/>
<line x1="539.5" y1="19" x2="539.5" y2="24" stroke="white"/>
<defs>
<linearGradient id="paint0_linear" x1="0" y1="40" x2="540" y2="40" gradientUnits="userSpaceOnUse">
<stop stop-color="#B8261A"/>
<stop offset="0.0660024" stop-color="#E7333D"/>
<stop offset="0.130208" stop-color="#EA6F2D"/>
<stop offset="0.197917" stop-color="#EF9D38"/>
<stop offset="0.265625" stop-color="#F6CD45"/>
<stop offset="0.354167" stop-color="#FFFE69"/>
<stop offset="0.421875" stop-color="#DBEB50"/>
<stop offset="0.47369" stop-color="#9EF862"/>
<stop offset="0.528454" stop-color="#7BFA8D"/>
<stop offset="0.607558" stop-color="#7CFBCF"/>
<stop offset="0.675506" stop-color="#62CAFA"/>
<stop offset="0.733312" stop-color="#4898F7"/>
<stop offset="0.77692" stop-color="#4268F6"/>
<stop offset="0.845883" stop-color="#353AF5"/>
<stop offset="0.927083" stop-color="#5F3AC4"/>
<stop offset="1" stop-color="#8A22C5"/>
</linearGradient>
</defs>
</svg>
