<svg width="300" height="156" viewBox="0 0 300 156" fill="none" xmlns="http://www.w3.org/2000/svg">
<path d="M6.2168 144.077L2.68359 151.999H1.54688L5.06836 144.358H0.451172V143.468H6.2168V144.077ZM11.7012 143.462V144.382H11.502C10.6582 144.397 9.98633 144.647 9.48633 145.132C8.98633 145.616 8.69727 146.298 8.61914 147.177C9.06836 146.661 9.68164 146.403 10.459 146.403C11.2012 146.403 11.793 146.665 12.2344 147.188C12.6797 147.712 12.9023 148.388 12.9023 149.216C12.9023 150.095 12.6621 150.798 12.1816 151.325C11.7051 151.853 11.0645 152.116 10.2598 152.116C9.44336 152.116 8.78125 151.804 8.27344 151.179C7.76562 150.55 7.51172 149.741 7.51172 148.753V148.337C7.51172 146.767 7.8457 145.567 8.51367 144.739C9.18555 143.907 10.1836 143.481 11.5078 143.462H11.7012ZM10.2773 147.306C9.90625 147.306 9.56445 147.417 9.25195 147.64C8.93945 147.862 8.72266 148.142 8.60156 148.478V148.876C8.60156 149.579 8.75977 150.146 9.07617 150.575C9.39258 151.005 9.78711 151.22 10.2598 151.22C10.748 151.22 11.1309 151.04 11.4082 150.681C11.6895 150.321 11.8301 149.851 11.8301 149.269C11.8301 148.683 11.6875 148.21 11.4023 147.851C11.1211 147.487 10.7461 147.306 10.2773 147.306ZM19.5352 148.36C19.5352 149.63 19.3184 150.573 18.8848 151.19C18.4512 151.808 17.7734 152.116 16.8516 152.116C15.9414 152.116 15.2676 151.815 14.8301 151.214C14.3926 150.608 14.166 149.706 14.1504 148.507V147.06C14.1504 145.806 14.3672 144.874 14.8008 144.265C15.2344 143.655 15.9141 143.351 16.8398 143.351C17.7578 143.351 18.4336 143.646 18.8672 144.235C19.3008 144.821 19.5234 145.728 19.5352 146.954V148.36ZM18.4512 146.878C18.4512 145.96 18.3223 145.292 18.0645 144.874C17.8066 144.452 17.3984 144.241 16.8398 144.241C16.2852 144.241 15.8809 144.45 15.627 144.868C15.373 145.286 15.2422 145.929 15.2344 146.796V148.53C15.2344 149.452 15.3672 150.134 15.6328 150.575C15.9023 151.013 16.3086 151.231 16.8516 151.231C17.3867 151.231 17.7832 151.024 18.041 150.61C18.3027 150.196 18.4395 149.544 18.4512 148.653V146.878Z" fill="white"/>
<path d="M4.27148 11.999H3.18164V4.77441L0.996094 5.57715V4.59277L4.10156 3.42676H4.27148V11.999ZM7.52344 13.6982L6.9082 13.2764C7.27539 12.7646 7.4668 12.2373 7.48242 11.6943V10.7158H8.54297V11.5654C8.54297 11.96 8.44531 12.3545 8.25 12.749C8.05859 13.1436 7.81641 13.46 7.52344 13.6982ZM15.1523 8.36035C15.1523 9.62988 14.9355 10.5732 14.502 11.1904C14.0684 11.8076 13.3906 12.1162 12.4688 12.1162C11.5586 12.1162 10.8848 11.8154 10.4473 11.2139C10.0098 10.6084 9.7832 9.70605 9.76758 8.50684V7.05957C9.76758 5.80566 9.98438 4.87402 10.418 4.26465C10.8516 3.65527 11.5312 3.35059 12.457 3.35059C13.375 3.35059 14.0508 3.64551 14.4844 4.23535C14.918 4.82129 15.1406 5.72754 15.1523 6.9541V8.36035ZM14.0684 6.87793C14.0684 5.95996 13.9395 5.29199 13.6816 4.87402C13.4238 4.45215 13.0156 4.24121 12.457 4.24121C11.9023 4.24121 11.498 4.4502 11.2441 4.86816C10.9902 5.28613 10.8594 5.92871 10.8516 6.7959V8.53027C10.8516 9.45215 10.9844 10.1338 11.25 10.5752C11.5195 11.0127 11.9258 11.2314 12.4688 11.2314C13.0039 11.2314 13.4004 11.0244 13.6582 10.6104C13.9199 10.1963 14.0566 9.54395 14.0684 8.65332V6.87793ZM21.8906 8.36035C21.8906 9.62988 21.6738 10.5732 21.2402 11.1904C20.8066 11.8076 20.1289 12.1162 19.207 12.1162C18.2969 12.1162 17.623 11.8154 17.1855 11.2139C16.748 10.6084 16.5215 9.70605 16.5059 8.50684V7.05957C16.5059 5.80566 16.7227 4.87402 17.1562 4.26465C17.5898 3.65527 18.2695 3.35059 19.1953 3.35059C20.1133 3.35059 20.7891 3.64551 21.2227 4.23535C21.6562 4.82129 21.8789 5.72754 21.8906 6.9541V8.36035ZM20.8066 6.87793C20.8066 5.95996 20.6777 5.29199 20.4199 4.87402C20.1621 4.45215 19.7539 4.24121 19.1953 4.24121C18.6406 4.24121 18.2363 4.4502 17.9824 4.86816C17.7285 5.28613 17.5977 5.92871 17.5898 6.7959V8.53027C17.5898 9.45215 17.7227 10.1338 17.9883 10.5752C18.2578 11.0127 18.6641 11.2314 19.207 11.2314C19.7422 11.2314 20.1387 11.0244 20.3965 10.6104C20.6582 10.1963 20.7949 9.54395 20.8066 8.65332V6.87793ZM28.6289 8.36035C28.6289 9.62988 28.4121 10.5732 27.9785 11.1904C27.5449 11.8076 26.8672 12.1162 25.9453 12.1162C25.0352 12.1162 24.3613 11.8154 23.9238 11.2139C23.4863 10.6084 23.2598 9.70605 23.2441 8.50684V7.05957C23.2441 5.80566 23.4609 4.87402 23.8945 4.26465C24.3281 3.65527 25.0078 3.35059 25.9336 3.35059C26.8516 3.35059 27.5273 3.64551 27.9609 4.23535C28.3945 4.82129 28.6172 5.72754 28.6289 6.9541V8.36035ZM27.5449 6.87793C27.5449 5.95996 27.416 5.29199 27.1582 4.87402C26.9004 4.45215 26.4922 4.24121 25.9336 4.24121C25.3789 4.24121 24.9746 4.4502 24.7207 4.86816C24.4668 5.28613 24.3359 5.92871 24.3281 6.7959V8.53027C24.3281 9.45215 24.4609 10.1338 24.7266 10.5752C24.9961 11.0127 25.4023 11.2314 25.9453 11.2314C26.4805 11.2314 26.877 11.0244 27.1348 10.6104C27.3965 10.1963 27.5332 9.54395 27.5449 8.65332V6.87793Z" fill="white"/>
<path d="M41.2715 11.999H40.1816V4.77441L37.9961 5.57715V4.59277L41.1016 3.42676H41.2715V11.999ZM49.7969 8.36035C49.7969 9.62988 49.5801 10.5732 49.1465 11.1904C48.7129 11.8076 48.0352 12.1162 47.1133 12.1162C46.2031 12.1162 45.5293 11.8154 45.0918 11.2139C44.6543 10.6084 44.4277 9.70605 44.4121 8.50684V7.05957C44.4121 5.80566 44.6289 4.87402 45.0625 4.26465C45.4961 3.65527 46.1758 3.35059 47.1016 3.35059C48.0195 3.35059 48.6953 3.64551 49.1289 4.23535C49.5625 4.82129 49.7852 5.72754 49.7969 6.9541V8.36035ZM48.7129 6.87793C48.7129 5.95996 48.584 5.29199 48.3262 4.87402C48.0684 4.45215 47.6602 4.24121 47.1016 4.24121C46.5469 4.24121 46.1426 4.4502 45.8887 4.86816C45.6348 5.28613 45.5039 5.92871 45.4961 6.7959V8.53027C45.4961 9.45215 45.6289 10.1338 45.8945 10.5752C46.1641 11.0127 46.5703 11.2314 47.1133 11.2314C47.6484 11.2314 48.0449 11.0244 48.3027 10.6104C48.5645 10.1963 48.7012 9.54395 48.7129 8.65332V6.87793ZM56.5352 8.36035C56.5352 9.62988 56.3184 10.5732 55.8848 11.1904C55.4512 11.8076 54.7734 12.1162 53.8516 12.1162C52.9414 12.1162 52.2676 11.8154 51.8301 11.2139C51.3926 10.6084 51.166 9.70605 51.1504 8.50684V7.05957C51.1504 5.80566 51.3672 4.87402 51.8008 4.26465C52.2344 3.65527 52.9141 3.35059 53.8398 3.35059C54.7578 3.35059 55.4336 3.64551 55.8672 4.23535C56.3008 4.82129 56.5234 5.72754 56.5352 6.9541V8.36035ZM55.4512 6.87793C55.4512 5.95996 55.3223 5.29199 55.0645 4.87402C54.8066 4.45215 54.3984 4.24121 53.8398 4.24121C53.2852 4.24121 52.8809 4.4502 52.627 4.86816C52.373 5.28613 52.2422 5.92871 52.2344 6.7959V8.53027C52.2344 9.45215 52.3672 10.1338 52.6328 10.5752C52.9023 11.0127 53.3086 11.2314 53.8516 11.2314C54.3867 11.2314 54.7832 11.0244 55.041 10.6104C55.3027 10.1963 55.4395 9.54395 55.4512 8.65332V6.87793Z" fill="white"/>
<path d="M37.3555 143.462V144.382H37.1562C36.3125 144.397 35.6406 144.647 35.1406 145.132C34.6406 145.616 34.3516 146.298 34.2734 147.177C34.7227 146.661 35.3359 146.403 36.1133 146.403C36.8555 146.403 37.4473 146.665 37.8887 147.188C38.334 147.712 38.5566 148.388 38.5566 149.216C38.5566 150.095 38.3164 150.798 37.8359 151.325C37.3594 151.853 36.7188 152.116 35.9141 152.116C35.0977 152.116 34.4355 151.804 33.9277 151.179C33.4199 150.55 33.166 149.741 33.166 148.753V148.337C33.166 146.767 33.5 145.567 34.168 144.739C34.8398 143.907 35.8379 143.481 37.1621 143.462H37.3555ZM35.9316 147.306C35.5605 147.306 35.2188 147.417 34.9062 147.64C34.5938 147.862 34.377 148.142 34.2559 148.478V148.876C34.2559 149.579 34.4141 150.146 34.7305 150.575C35.0469 151.005 35.4414 151.22 35.9141 151.22C36.4023 151.22 36.7852 151.04 37.0625 150.681C37.3438 150.321 37.4844 149.851 37.4844 149.269C37.4844 148.683 37.3418 148.21 37.0566 147.851C36.7754 147.487 36.4004 147.306 35.9316 147.306ZM43.4023 151.999H42.3125V144.774L40.127 145.577V144.593L43.2324 143.427H43.4023V151.999ZM51.9277 148.36C51.9277 149.63 51.7109 150.573 51.2773 151.19C50.8438 151.808 50.166 152.116 49.2441 152.116C48.334 152.116 47.6602 151.815 47.2227 151.214C46.7852 150.608 46.5586 149.706 46.543 148.507V147.06C46.543 145.806 46.7598 144.874 47.1934 144.265C47.627 143.655 48.3066 143.351 49.2324 143.351C50.1504 143.351 50.8262 143.646 51.2598 144.235C51.6934 144.821 51.916 145.728 51.9277 146.954V148.36ZM50.8438 146.878C50.8438 145.96 50.7148 145.292 50.457 144.874C50.1992 144.452 49.791 144.241 49.2324 144.241C48.6777 144.241 48.2734 144.45 48.0195 144.868C47.7656 145.286 47.6348 145.929 47.627 146.796V148.53C47.627 149.452 47.7598 150.134 48.0254 150.575C48.2949 151.013 48.7012 151.231 49.2441 151.231C49.7793 151.231 50.1758 151.024 50.4336 150.61C50.6953 150.196 50.832 149.544 50.8438 148.653V146.878Z" fill="white"/>
<path d="M76.5996 147.722L77.0332 143.468H81.4043V144.47H77.9531L77.6953 146.796C78.1133 146.55 78.5879 146.427 79.1191 146.427C79.8965 146.427 80.5137 146.685 80.9707 147.2C81.4277 147.712 81.6562 148.405 81.6562 149.28C81.6562 150.159 81.418 150.853 80.9414 151.36C80.4688 151.864 79.8066 152.116 78.9551 152.116C78.2012 152.116 77.5859 151.907 77.1094 151.489C76.6328 151.071 76.3613 150.493 76.2949 149.755H77.3203C77.3867 150.243 77.5605 150.612 77.8418 150.862C78.123 151.108 78.4941 151.231 78.9551 151.231C79.459 151.231 79.8535 151.06 80.1387 150.716C80.4277 150.372 80.5723 149.897 80.5723 149.292C80.5723 148.722 80.416 148.265 80.1035 147.921C79.7949 147.573 79.3828 147.399 78.8672 147.399C78.3945 147.399 78.0234 147.503 77.7539 147.71L77.4668 147.944L76.5996 147.722ZM86.9941 148.249C86.7676 148.519 86.4961 148.735 86.1797 148.899C85.8672 149.063 85.5234 149.146 85.1484 149.146C84.6562 149.146 84.2266 149.024 83.8594 148.782C83.4961 148.54 83.2148 148.2 83.0156 147.763C82.8164 147.321 82.7168 146.835 82.7168 146.304C82.7168 145.733 82.8242 145.22 83.0391 144.763C83.2578 144.306 83.5664 143.956 83.9648 143.714C84.3633 143.472 84.8281 143.351 85.3594 143.351C86.2031 143.351 86.8672 143.667 87.3516 144.3C87.8398 144.929 88.084 145.788 88.084 146.878V147.194C88.084 148.854 87.7559 150.067 87.0996 150.833C86.4434 151.595 85.4531 151.985 84.1289 152.005H83.918V151.091H84.1465C85.041 151.075 85.7285 150.843 86.209 150.394C86.6895 149.94 86.9512 149.226 86.9941 148.249ZM85.3242 148.249C85.6875 148.249 86.0215 148.138 86.3262 147.915C86.6348 147.692 86.8594 147.417 87 147.089V146.655C87 145.944 86.8457 145.366 86.5371 144.921C86.2285 144.476 85.8379 144.253 85.3652 144.253C84.8887 144.253 84.5059 144.437 84.2168 144.804C83.9277 145.167 83.7832 145.647 83.7832 146.245C83.7832 146.827 83.9219 147.308 84.1992 147.687C84.4805 148.062 84.8555 148.249 85.3242 148.249ZM94.9277 148.36C94.9277 149.63 94.7109 150.573 94.2773 151.19C93.8438 151.808 93.166 152.116 92.2441 152.116C91.334 152.116 90.6602 151.815 90.2227 151.214C89.7852 150.608 89.5586 149.706 89.543 148.507V147.06C89.543 145.806 89.7598 144.874 90.1934 144.265C90.627 143.655 91.3066 143.351 92.2324 143.351C93.1504 143.351 93.8262 143.646 94.2598 144.235C94.6934 144.821 94.916 145.728 94.9277 146.954V148.36ZM93.8438 146.878C93.8438 145.96 93.7148 145.292 93.457 144.874C93.1992 144.452 92.791 144.241 92.2324 144.241C91.6777 144.241 91.2734 144.45 91.0195 144.868C90.7656 145.286 90.6348 145.929 90.627 146.796V148.53C90.627 149.452 90.7598 150.134 91.0254 150.575C91.2949 151.013 91.7012 151.231 92.2441 151.231C92.7793 151.231 93.1758 151.024 93.4336 150.61C93.6953 150.196 93.832 149.544 93.8438 148.653V146.878Z" fill="white"/>
<path d="M119.6 147.722L120.033 143.468H124.404V144.47H120.953L120.695 146.796C121.113 146.55 121.588 146.427 122.119 146.427C122.896 146.427 123.514 146.685 123.971 147.2C124.428 147.712 124.656 148.405 124.656 149.28C124.656 150.159 124.418 150.853 123.941 151.36C123.469 151.864 122.807 152.116 121.955 152.116C121.201 152.116 120.586 151.907 120.109 151.489C119.633 151.071 119.361 150.493 119.295 149.755H120.32C120.387 150.243 120.561 150.612 120.842 150.862C121.123 151.108 121.494 151.231 121.955 151.231C122.459 151.231 122.854 151.06 123.139 150.716C123.428 150.372 123.572 149.897 123.572 149.292C123.572 148.722 123.416 148.265 123.104 147.921C122.795 147.573 122.383 147.399 121.867 147.399C121.395 147.399 121.023 147.503 120.754 147.71L120.467 147.944L119.6 147.722ZM131.348 144.077L127.814 151.999H126.678L130.199 144.358H125.582V143.468H131.348V144.077ZM137.928 148.36C137.928 149.63 137.711 150.573 137.277 151.19C136.844 151.808 136.166 152.116 135.244 152.116C134.334 152.116 133.66 151.815 133.223 151.214C132.785 150.608 132.559 149.706 132.543 148.507V147.06C132.543 145.806 132.76 144.874 133.193 144.265C133.627 143.655 134.307 143.351 135.232 143.351C136.15 143.351 136.826 143.646 137.26 144.235C137.693 144.821 137.916 145.728 137.928 146.954V148.36ZM136.844 146.878C136.844 145.96 136.715 145.292 136.457 144.874C136.199 144.452 135.791 144.241 135.232 144.241C134.678 144.241 134.273 144.45 134.02 144.868C133.766 145.286 133.635 145.929 133.627 146.796V148.53C133.627 149.452 133.76 150.134 134.025 150.575C134.295 151.013 134.701 151.231 135.244 151.231C135.779 151.231 136.176 151.024 136.434 150.61C136.695 150.196 136.832 149.544 136.844 148.653V146.878Z" fill="white"/>
<path d="M161.6 147.722L162.033 143.468H166.404V144.47H162.953L162.695 146.796C163.113 146.55 163.588 146.427 164.119 146.427C164.896 146.427 165.514 146.685 165.971 147.2C166.428 147.712 166.656 148.405 166.656 149.28C166.656 150.159 166.418 150.853 165.941 151.36C165.469 151.864 164.807 152.116 163.955 152.116C163.201 152.116 162.586 151.907 162.109 151.489C161.633 151.071 161.361 150.493 161.295 149.755H162.32C162.387 150.243 162.561 150.612 162.842 150.862C163.123 151.108 163.494 151.231 163.955 151.231C164.459 151.231 164.854 151.06 165.139 150.716C165.428 150.372 165.572 149.897 165.572 149.292C165.572 148.722 165.416 148.265 165.104 147.921C164.795 147.573 164.383 147.399 163.867 147.399C163.395 147.399 163.023 147.503 162.754 147.71L162.467 147.944L161.6 147.722ZM169.416 147.206H170.23C170.742 147.198 171.145 147.063 171.438 146.802C171.73 146.54 171.877 146.187 171.877 145.741C171.877 144.741 171.379 144.241 170.383 144.241C169.914 144.241 169.539 144.376 169.258 144.646C168.98 144.911 168.842 145.265 168.842 145.706H167.758C167.758 145.03 168.004 144.47 168.496 144.024C168.992 143.575 169.621 143.351 170.383 143.351C171.188 143.351 171.818 143.563 172.275 143.989C172.732 144.415 172.961 145.007 172.961 145.765C172.961 146.136 172.84 146.495 172.598 146.843C172.359 147.19 172.033 147.45 171.619 147.622C172.088 147.771 172.449 148.017 172.703 148.36C172.961 148.704 173.09 149.124 173.09 149.62C173.09 150.386 172.84 150.993 172.34 151.442C171.84 151.892 171.189 152.116 170.389 152.116C169.588 152.116 168.936 151.899 168.432 151.466C167.932 151.032 167.682 150.46 167.682 149.749H168.771C168.771 150.198 168.918 150.558 169.211 150.827C169.504 151.097 169.896 151.231 170.389 151.231C170.912 151.231 171.312 151.095 171.59 150.821C171.867 150.548 172.006 150.155 172.006 149.644C172.006 149.147 171.854 148.767 171.549 148.501C171.244 148.235 170.805 148.099 170.23 148.091H169.416V147.206ZM179.928 148.36C179.928 149.63 179.711 150.573 179.277 151.19C178.844 151.808 178.166 152.116 177.244 152.116C176.334 152.116 175.66 151.815 175.223 151.214C174.785 150.608 174.559 149.706 174.543 148.507V147.06C174.543 145.806 174.76 144.874 175.193 144.265C175.627 143.655 176.307 143.351 177.232 143.351C178.15 143.351 178.826 143.646 179.26 144.235C179.693 144.821 179.916 145.728 179.928 146.954V148.36ZM178.844 146.878C178.844 145.96 178.715 145.292 178.457 144.874C178.199 144.452 177.791 144.241 177.232 144.241C176.678 144.241 176.273 144.45 176.02 144.868C175.766 145.286 175.635 145.929 175.627 146.796V148.53C175.627 149.452 175.76 150.134 176.025 150.575C176.295 151.013 176.701 151.231 177.244 151.231C177.779 151.231 178.176 151.024 178.434 150.61C178.695 150.196 178.832 149.544 178.844 148.653V146.878Z" fill="white"/>
<path d="M151.479 4.07715L147.945 11.999H146.809L150.33 4.3584H145.713V3.46777H151.479V4.07715Z" fill="white"/>
<path d="M113.125 8.24902C112.898 8.51855 112.627 8.73535 112.311 8.89941C111.998 9.06348 111.654 9.14551 111.279 9.14551C110.787 9.14551 110.357 9.02441 109.99 8.78223C109.627 8.54004 109.346 8.2002 109.146 7.7627C108.947 7.32129 108.848 6.83496 108.848 6.30371C108.848 5.7334 108.955 5.21973 109.17 4.7627C109.389 4.30566 109.697 3.95605 110.096 3.71387C110.494 3.47168 110.959 3.35059 111.49 3.35059C112.334 3.35059 112.998 3.66699 113.482 4.2998C113.971 4.92871 114.215 5.78809 114.215 6.87793V7.19434C114.215 8.85449 113.887 10.0674 113.23 10.833C112.574 11.5947 111.584 11.9854 110.26 12.0049H110.049V11.0908H110.277C111.172 11.0752 111.859 10.8428 112.34 10.3936C112.82 9.94043 113.082 9.22559 113.125 8.24902ZM111.455 8.24902C111.818 8.24902 112.152 8.1377 112.457 7.91504C112.766 7.69238 112.99 7.41699 113.131 7.08887V6.65527C113.131 5.94434 112.977 5.36621 112.668 4.9209C112.359 4.47559 111.969 4.25293 111.496 4.25293C111.02 4.25293 110.637 4.43652 110.348 4.80371C110.059 5.16699 109.914 5.64746 109.914 6.24512C109.914 6.82715 110.053 7.30762 110.33 7.68652C110.611 8.06152 110.986 8.24902 111.455 8.24902Z" fill="white"/>
<path d="M75.8223 11.999H70.2324V11.2197L73.1855 7.93848C73.623 7.44238 73.9238 7.04004 74.0879 6.73145C74.2559 6.41895 74.3398 6.09668 74.3398 5.76465C74.3398 5.31934 74.2051 4.9541 73.9355 4.66895C73.666 4.38379 73.3066 4.24121 72.8574 4.24121C72.3184 4.24121 71.8984 4.39551 71.5977 4.7041C71.3008 5.00879 71.1523 5.43457 71.1523 5.98145H70.0684C70.0684 5.19629 70.3203 4.56152 70.8242 4.07715C71.332 3.59277 72.0098 3.35059 72.8574 3.35059C73.6504 3.35059 74.2773 3.55957 74.7383 3.97754C75.1992 4.3916 75.4297 4.94434 75.4297 5.63574C75.4297 6.47559 74.8945 7.47559 73.8242 8.63574L71.5391 11.1143H75.8223V11.999ZM77.4688 7.72168L77.9023 3.46777H82.2734V4.46973H78.8223L78.5645 6.7959C78.9824 6.5498 79.457 6.42676 79.9883 6.42676C80.7656 6.42676 81.3828 6.68457 81.8398 7.2002C82.2969 7.71191 82.5254 8.40527 82.5254 9.28027C82.5254 10.1592 82.2871 10.8525 81.8105 11.3604C81.3379 11.8643 80.6758 12.1162 79.8242 12.1162C79.0703 12.1162 78.4551 11.9072 77.9785 11.4893C77.502 11.0713 77.2305 10.4932 77.1641 9.75488H78.1895C78.2559 10.2432 78.4297 10.6123 78.7109 10.8623C78.9922 11.1084 79.3633 11.2314 79.8242 11.2314C80.3281 11.2314 80.7227 11.0596 81.0078 10.7158C81.2969 10.3721 81.4414 9.89746 81.4414 9.29199C81.4414 8.72168 81.2852 8.26465 80.9727 7.9209C80.6641 7.57324 80.252 7.39941 79.7363 7.39941C79.2637 7.39941 78.8926 7.50293 78.623 7.70996L78.3359 7.94434L77.4688 7.72168Z" fill="white"/>
<rect y="39.999" width="300" height="92" fill="url(#paint0_linear)"/>
<rect y="23.999" width="19" height="14" fill="#B8261A"/>
<rect x="19" y="23.999" width="19" height="14" fill="#E7333D"/>
<rect x="38" y="23.999" width="20" height="14" fill="#EA6F2D"/>
<rect x="58" y="23.999" width="18" height="14" fill="#EF9D38"/>
<rect x="76" y="23.999" width="17" height="14" fill="#F6CD45"/>
<rect x="93" y="23.999" width="20" height="14" fill="#FFFE69"/>
<rect x="113" y="23.999" width="19" height="14" fill="#DBEB50"/>
<rect x="132" y="23.999" width="18" height="14" fill="#9EF862"/>
<rect x="150" y="23.999" width="18" height="14" fill="#7BFA8D"/>
<rect x="168" y="23.999" width="19" height="14" fill="#7CFBCF"/>
<rect x="187" y="23.999" width="20" height="14" fill="#62CAFA"/>
<rect x="207" y="23.999" width="17" height="14" fill="#4898F7"/>
<rect x="224" y="23.999" width="18" height="14" fill="#4268F6"/>
<rect x="242" y="23.999" width="20" height="14" fill="#353AF5"/>
<rect x="262" y="23.999" width="19" height="14" fill="#5F3AC4"/>
<rect x="281" y="23.999" width="19" height="14" fill="#8A22C5"/>
<path d="M285.07 149.134H286.254V150.019H285.07V151.999H283.98V150.019H280.096V149.38L283.916 143.468H285.07V149.134ZM281.326 149.134H283.98V144.95L283.852 145.185L281.326 149.134ZM292.582 148.36C292.582 149.63 292.365 150.573 291.932 151.19C291.498 151.808 290.82 152.116 289.898 152.116C288.988 152.116 288.314 151.815 287.877 151.214C287.439 150.608 287.213 149.706 287.197 148.507V147.06C287.197 145.806 287.414 144.874 287.848 144.265C288.281 143.655 288.961 143.351 289.887 143.351C290.805 143.351 291.48 143.646 291.914 144.235C292.348 144.821 292.57 145.728 292.582 146.954V148.36ZM291.498 146.878C291.498 145.96 291.369 145.292 291.111 144.874C290.854 144.452 290.445 144.241 289.887 144.241C289.332 144.241 288.928 144.45 288.674 144.868C288.42 145.286 288.289 145.929 288.281 146.796V148.53C288.281 149.452 288.414 150.134 288.68 150.575C288.949 151.013 289.355 151.231 289.898 151.231C290.434 151.231 290.83 151.024 291.088 150.61C291.35 150.196 291.486 149.544 291.498 148.653V146.878ZM299.32 148.36C299.32 149.63 299.104 150.573 298.67 151.19C298.236 151.808 297.559 152.116 296.637 152.116C295.727 152.116 295.053 151.815 294.615 151.214C294.178 150.608 293.951 149.706 293.936 148.507V147.06C293.936 145.806 294.152 144.874 294.586 144.265C295.02 143.655 295.699 143.351 296.625 143.351C297.543 143.351 298.219 143.646 298.652 144.235C299.086 144.821 299.309 145.728 299.32 146.954V148.36ZM298.236 146.878C298.236 145.96 298.107 145.292 297.85 144.874C297.592 144.452 297.184 144.241 296.625 144.241C296.07 144.241 295.666 144.45 295.412 144.868C295.158 145.286 295.027 145.929 295.02 146.796V148.53C295.02 149.452 295.152 150.134 295.418 150.575C295.688 151.013 296.094 151.231 296.637 151.231C297.172 151.231 297.568 151.024 297.826 150.61C298.088 150.196 298.225 149.544 298.236 148.653V146.878Z" fill="white"/>
<path d="M250.678 149.134H251.861V150.019H250.678V151.999H249.588V150.019H245.703V149.38L249.523 143.468H250.678V149.134ZM246.934 149.134H249.588V144.95L249.459 145.185L246.934 149.134ZM258.348 144.077L254.814 151.999H253.678L257.199 144.358H252.582V143.468H258.348V144.077ZM260.076 147.722L260.51 143.468H264.881V144.47H261.43L261.172 146.796C261.59 146.55 262.064 146.427 262.596 146.427C263.373 146.427 263.99 146.685 264.447 147.2C264.904 147.712 265.133 148.405 265.133 149.28C265.133 150.159 264.895 150.853 264.418 151.36C263.945 151.864 263.283 152.116 262.432 152.116C261.678 152.116 261.062 151.907 260.586 151.489C260.109 151.071 259.838 150.493 259.771 149.755H260.797C260.863 150.243 261.037 150.612 261.318 150.862C261.6 151.108 261.971 151.231 262.432 151.231C262.936 151.231 263.33 151.06 263.615 150.716C263.904 150.372 264.049 149.897 264.049 149.292C264.049 148.722 263.893 148.265 263.58 147.921C263.271 147.573 262.859 147.399 262.344 147.399C261.871 147.399 261.5 147.503 261.23 147.71L260.943 147.944L260.076 147.722Z" fill="white"/>
<path d="M208.678 149.134H209.861V150.019H208.678V151.999H207.588V150.019H203.703V149.38L207.523 143.468H208.678V149.134ZM204.934 149.134H207.588V144.95L207.459 145.185L204.934 149.134ZM214.994 148.249C214.768 148.519 214.496 148.735 214.18 148.899C213.867 149.063 213.523 149.146 213.148 149.146C212.656 149.146 212.227 149.024 211.859 148.782C211.496 148.54 211.215 148.2 211.016 147.763C210.816 147.321 210.717 146.835 210.717 146.304C210.717 145.733 210.824 145.22 211.039 144.763C211.258 144.306 211.566 143.956 211.965 143.714C212.363 143.472 212.828 143.351 213.359 143.351C214.203 143.351 214.867 143.667 215.352 144.3C215.84 144.929 216.084 145.788 216.084 146.878V147.194C216.084 148.854 215.756 150.067 215.1 150.833C214.443 151.595 213.453 151.985 212.129 152.005H211.918V151.091H212.146C213.041 151.075 213.729 150.843 214.209 150.394C214.689 149.94 214.951 149.226 214.994 148.249ZM213.324 148.249C213.688 148.249 214.021 148.138 214.326 147.915C214.635 147.692 214.859 147.417 215 147.089V146.655C215 145.944 214.846 145.366 214.537 144.921C214.229 144.476 213.838 144.253 213.365 144.253C212.889 144.253 212.506 144.437 212.217 144.804C211.928 145.167 211.783 145.647 211.783 146.245C211.783 146.827 211.922 147.308 212.199 147.687C212.48 148.062 212.855 148.249 213.324 148.249ZM222.928 148.36C222.928 149.63 222.711 150.573 222.277 151.19C221.844 151.808 221.166 152.116 220.244 152.116C219.334 152.116 218.66 151.815 218.223 151.214C217.785 150.608 217.559 149.706 217.543 148.507V147.06C217.543 145.806 217.76 144.874 218.193 144.265C218.627 143.655 219.307 143.351 220.232 143.351C221.15 143.351 221.826 143.646 222.26 144.235C222.693 144.821 222.916 145.728 222.928 146.954V148.36ZM221.844 146.878C221.844 145.96 221.715 145.292 221.457 144.874C221.199 144.452 220.791 144.241 220.232 144.241C219.678 144.241 219.273 144.45 219.02 144.868C218.766 145.286 218.635 145.929 218.627 146.796V148.53C218.627 149.452 218.76 150.134 219.025 150.575C219.295 151.013 219.701 151.231 220.244 151.231C220.779 151.231 221.176 151.024 221.434 150.61C221.695 150.196 221.832 149.544 221.844 148.653V146.878Z" fill="white"/>
<line x1="299.5" y1="131.999" x2="299.5" y2="136.999" stroke="white"/>
<line x1="256.5" y1="131.999" x2="256.5" y2="136.999" stroke="white"/>
<line x1="214.5" y1="131.999" x2="214.5" y2="136.999" stroke="white"/>
<path d="M299.32 8.36035C299.32 9.62988 299.104 10.5732 298.67 11.1904C298.236 11.8076 297.559 12.1162 296.637 12.1162C295.727 12.1162 295.053 11.8154 294.615 11.2139C294.178 10.6084 293.951 9.70605 293.936 8.50684V7.05957C293.936 5.80566 294.152 4.87402 294.586 4.26465C295.02 3.65527 295.699 3.35059 296.625 3.35059C297.543 3.35059 298.219 3.64551 298.652 4.23535C299.086 4.82129 299.309 5.72754 299.32 6.9541V8.36035ZM298.236 6.87793C298.236 5.95996 298.107 5.29199 297.85 4.87402C297.592 4.45215 297.184 4.24121 296.625 4.24121C296.07 4.24121 295.666 4.4502 295.412 4.86816C295.158 5.28613 295.027 5.92871 295.02 6.7959V8.53027C295.02 9.45215 295.152 10.1338 295.418 10.5752C295.688 11.0127 296.094 11.2314 296.637 11.2314C297.172 11.2314 297.568 11.0244 297.826 10.6104C298.088 10.1963 298.225 9.54395 298.236 8.65332V6.87793Z" fill="white"/>
<path d="M262.533 11.999H261.443V4.77441L259.258 5.57715V4.59277L262.363 3.42676H262.533V11.999Z" fill="white"/>
<path d="M222.547 7.20605H223.361C223.873 7.19824 224.275 7.06348 224.568 6.80176C224.861 6.54004 225.008 6.18652 225.008 5.74121C225.008 4.74121 224.51 4.24121 223.514 4.24121C223.045 4.24121 222.67 4.37598 222.389 4.64551C222.111 4.91113 221.973 5.26465 221.973 5.70605H220.889C220.889 5.03027 221.135 4.46973 221.627 4.02441C222.123 3.5752 222.752 3.35059 223.514 3.35059C224.318 3.35059 224.949 3.56348 225.406 3.98926C225.863 4.41504 226.092 5.00684 226.092 5.76465C226.092 6.13574 225.971 6.49512 225.729 6.84277C225.49 7.19043 225.164 7.4502 224.75 7.62207C225.219 7.77051 225.58 8.0166 225.834 8.36035C226.092 8.7041 226.221 9.12402 226.221 9.62012C226.221 10.3857 225.971 10.9932 225.471 11.4424C224.971 11.8916 224.32 12.1162 223.52 12.1162C222.719 12.1162 222.066 11.8994 221.562 11.4658C221.062 11.0322 220.812 10.46 220.812 9.74902H221.902C221.902 10.1982 222.049 10.5576 222.342 10.8271C222.635 11.0967 223.027 11.2314 223.52 11.2314C224.043 11.2314 224.443 11.0947 224.721 10.8213C224.998 10.5479 225.137 10.1553 225.137 9.64355C225.137 9.14746 224.984 8.7666 224.68 8.50098C224.375 8.23535 223.936 8.09863 223.361 8.09082H222.547V7.20605Z" fill="white"/>
<path d="M184.469 7.72168L184.902 3.46777H189.273V4.46973H185.822L185.564 6.7959C185.982 6.5498 186.457 6.42676 186.988 6.42676C187.766 6.42676 188.383 6.68457 188.84 7.2002C189.297 7.71191 189.525 8.40527 189.525 9.28027C189.525 10.1592 189.287 10.8525 188.811 11.3604C188.338 11.8643 187.676 12.1162 186.824 12.1162C186.07 12.1162 185.455 11.9072 184.979 11.4893C184.502 11.0713 184.23 10.4932 184.164 9.75488H185.189C185.256 10.2432 185.43 10.6123 185.711 10.8623C185.992 11.1084 186.363 11.2314 186.824 11.2314C187.328 11.2314 187.723 11.0596 188.008 10.7158C188.297 10.3721 188.441 9.89746 188.441 9.29199C188.441 8.72168 188.285 8.26465 187.973 7.9209C187.664 7.57324 187.252 7.39941 186.736 7.39941C186.264 7.39941 185.893 7.50293 185.623 7.70996L185.336 7.94434L184.469 7.72168Z" fill="white"/>
<line x1="171.5" y1="131.999" x2="171.5" y2="136.999" stroke="white"/>
<line x1="128.5" y1="131.999" x2="128.5" y2="136.999" stroke="white"/>
<line x1="85.5" y1="131.999" x2="85.5" y2="136.999" stroke="white"/>
<line x1="43.5" y1="131.999" x2="43.5" y2="136.999" stroke="white"/>
<line x1="0.5" y1="131.999" x2="0.5" y2="136.999" stroke="white"/>
<line x1="0.5" y1="18.999" x2="0.5" y2="23.999" stroke="white"/>
<line x1="37.5" y1="18.999" x2="37.5" y2="23.999" stroke="white"/>
<line x1="75.5" y1="18.999" x2="75.5" y2="23.999" stroke="white"/>
<line x1="112.5" y1="18.999" x2="112.5" y2="23.999" stroke="white"/>
<line x1="149.5" y1="18.999" x2="149.5" y2="23.999" stroke="white"/>
<line x1="299.5" y1="18.999" x2="299.5" y2="23.999" stroke="white"/>
<line x1="262.5" y1="18.999" x2="262.5" y2="23.999" stroke="white"/>
<line x1="224.5" y1="18.999" x2="224.5" y2="23.999" stroke="white"/>
<line x1="187.5" y1="18.999" x2="187.5" y2="23.999" stroke="white"/>
<defs>
<linearGradient id="paint0_linear" x1="0" y1="39.999" x2="300" y2="39.999" gradientUnits="userSpaceOnUse">
<stop stop-color="#B8261A"/>
<stop offset="0.0660024" stop-color="#E7333D"/>
<stop offset="0.130208" stop-color="#EA6F2D"/>
<stop offset="0.197917" stop-color="#EF9D38"/>
<stop offset="0.265625" stop-color="#F6CD45"/>
<stop offset="0.354167" stop-color="#FFFE69"/>
<stop offset="0.421875" stop-color="#DBEB50"/>
<stop offset="0.47369" stop-color="#9EF862"/>
<stop offset="0.528454" stop-color="#7BFA8D"/>
<stop offset="0.607558" stop-color="#7CFBCF"/>
<stop offset="0.675506" stop-color="#62CAFA"/>
<stop offset="0.733312" stop-color="#4898F7"/>
<stop offset="0.77692" stop-color="#4268F6"/>
<stop offset="0.845883" stop-color="#353AF5"/>
<stop offset="0.927083" stop-color="#5F3AC4"/>
<stop offset="1" stop-color="#8A22C5"/>
</linearGradient>
</defs>
</svg>
