<svg width="587" height="611" viewBox="0 0 587 611" fill="none" xmlns="http://www.w3.org/2000/svg">
<path d="M524.635 506.839L525.936 507.616L526.7 506.308L583.295 409.397L584.067 408.076L582.731 407.331L401.487 306.192L582.731 205.054L584.044 204.321L583.308 203.009L528.092 104.714L527.332 103.36L526.005 104.167L346.145 213.494L351.595 3.03883L351.635 1.5H350.096H236.904H235.375L235.405 3.02932L239.492 212.105L63.7611 104.17L62.4679 103.376L61.6888 104.678L3.71276 201.589L2.91659 202.92L4.27323 203.671L186.875 304.808L4.27323 405.944L2.93908 406.683L3.70008 408.005L60.2958 506.3L61.0631 507.633L62.3763 506.832L239.492 398.884L235.405 607.971L235.375 609.5H236.904H350.096H351.636L351.595 607.961L346.145 400.25L524.635 506.839Z" stroke="url(#paint0_linear)" stroke-width="3"/>
<defs>
<linearGradient id="paint0_linear" x1="293.5" y1="3" x2="293.5" y2="608" gradientUnits="userSpaceOnUse">
<stop offset="0.00520833" stop-color="#FFD26D"/>
<stop offset="0.526042" stop-color="#F32740"/>
<stop offset="1" stop-color="#B314E2"/>
</linearGradient>
</defs>
</svg>
