<svg width="48" height="24" viewBox="0 0 48 24" fill="none" xmlns="http://www.w3.org/2000/svg">
<path d="M23.939 7.05609C23.8828 5.78087 23.6765 4.90417 23.381 4.1445C23.0762 3.33813 22.6073 2.61618 21.9929 2.01602C21.3927 1.40653 20.6658 0.932924 19.8686 0.632938C19.1044 0.33753 18.2321 0.131313 16.9567 0.0750881C15.6717 0.0141019 15.2638 0 12.0047 0C8.74559 0 8.33766 0.0141019 7.05743 0.0703264C5.78197 0.126551 4.90511 0.332952 4.14547 0.628176C3.33876 0.932924 2.61668 1.40177 2.01641 2.01602C1.4068 2.61618 0.933285 3.34289 0.633059 4.13992C0.337595 4.90417 0.131338 5.77611 0.0751024 7.05133C0.0141046 8.33606 0 8.74392 0 12.0024C0 15.2608 0.0141046 15.6687 0.0703399 16.9487C0.126575 18.2239 0.333015 19.1006 0.628479 19.8603C0.933285 20.6666 1.4068 21.3886 2.01641 21.9887C2.61668 22.5982 3.34353 23.0718 4.14071 23.3718C4.90511 23.6672 5.77721 23.8734 7.05285 23.9297C8.33289 23.9861 8.74101 24 12.0001 24C15.2592 24 15.6671 23.9861 16.9473 23.9297C18.2228 23.8734 19.0997 23.6672 19.8593 23.3718C21.4725 22.7482 22.748 21.473 23.3717 19.8603C23.667 19.096 23.8734 18.2239 23.9297 16.9487C23.9859 15.6687 24 15.2608 24 12.0024C24 8.74392 23.9952 8.33606 23.939 7.05609ZM21.7773 16.8549C21.7257 18.027 21.5288 18.66 21.3646 19.0819C20.9613 20.1275 20.1313 20.9573 19.0856 21.3606C18.6635 21.5247 18.0259 21.7215 16.8581 21.773C15.592 21.8294 15.2123 21.8433 12.0094 21.8433C8.80659 21.8433 8.4221 21.8294 7.16056 21.773C5.98823 21.7215 5.35517 21.5247 4.93313 21.3606C4.41273 21.1683 3.93903 20.8635 3.55454 20.465C3.15595 20.0758 2.85115 19.607 2.65881 19.0867C2.49468 18.6647 2.29777 18.027 2.2463 16.8597C2.18988 15.5938 2.17596 15.214 2.17596 12.0117C2.17596 8.80949 2.18988 8.42507 2.2463 7.16396C2.29777 5.99185 2.49468 5.35891 2.65881 4.93695C2.85115 4.41646 3.15595 3.94304 3.55931 3.55844C3.94837 3.15993 4.41731 2.85518 4.9379 2.66306C5.35993 2.49897 5.99776 2.30209 7.16532 2.25045C8.43144 2.19422 8.81135 2.18012 12.014 2.18012C15.2216 2.18012 15.6013 2.19422 16.8629 2.25045C18.0352 2.30209 18.6683 2.49897 19.0903 2.66306C19.6107 2.85518 20.0844 3.15993 20.4689 3.55844C20.8675 3.94762 21.1723 4.41646 21.3646 4.93695C21.5288 5.35891 21.7257 5.99643 21.7773 7.16396C21.8336 8.42983 21.8477 8.80949 21.8477 12.0117C21.8477 15.214 21.8336 15.589 21.7773 16.8549Z" fill="url(#paint0_linear)"/>
<path d="M12.0044 5.83691C8.60001 5.83691 5.83789 8.59833 5.83789 12.0022C5.83789 15.4061 8.60001 18.1675 12.0044 18.1675C15.4089 18.1675 18.1708 15.4061 18.1708 12.0022C18.1708 8.59833 15.4089 5.83691 12.0044 5.83691ZM12.0044 16.0015C9.79579 16.0015 8.00432 14.2105 8.00432 12.0022C8.00432 9.79388 9.79579 8.00293 12.0044 8.00293C14.2131 8.00293 16.0044 9.79388 16.0044 12.0022C16.0044 14.2105 14.2131 16.0015 12.0044 16.0015V16.0015Z" fill="#F2203E"/>
<path d="M19.8549 5.59312C19.8549 6.38796 19.2103 7.03243 18.4152 7.03243C17.6202 7.03243 16.9756 6.38796 16.9756 5.59312C16.9756 4.7981 17.6202 4.15381 18.4152 4.15381C19.2103 4.15381 19.8549 4.7981 19.8549 5.59312V5.59312Z" fill="#F2203E"/>
<path d="M47.939 7.05609C47.8828 5.78087 47.6765 4.90417 47.381 4.1445C47.0762 3.33813 46.6073 2.61618 45.9929 2.01602C45.3927 1.40653 44.6658 0.932924 43.8686 0.632938C43.1044 0.33753 42.2321 0.131313 40.9567 0.0750881C39.6717 0.0141019 39.2638 0 36.0047 0C32.7456 0 32.3377 0.0141019 31.0574 0.0703264C29.782 0.126551 28.9051 0.332952 28.1455 0.628176C27.3388 0.932924 26.6167 1.40177 26.0164 2.01602C25.4068 2.61618 24.9333 3.34289 24.6331 4.13992C24.3376 4.90417 24.1313 5.77611 24.0751 7.05133C24.0141 8.33606 24 8.74392 24 12.0024C24 15.2608 24.0141 15.6687 24.0703 16.9487C24.1266 18.2239 24.333 19.1006 24.6285 19.8603C24.9333 20.6666 25.4068 21.3886 26.0164 21.9887C26.6167 22.5982 27.3435 23.0718 28.1407 23.3718C28.9051 23.6672 29.7772 23.8734 31.0529 23.9297C32.3329 23.9861 32.741 24 36.0001 24C39.2592 24 39.6671 23.9861 40.9473 23.9297C42.2228 23.8734 43.0997 23.6672 43.8593 23.3718C45.4725 22.7482 46.748 21.473 47.3717 19.8603C47.667 19.096 47.8734 18.2239 47.9297 16.9487C47.9859 15.6687 48 15.2608 48 12.0024C48 8.74392 47.9952 8.33606 47.939 7.05609ZM45.7773 16.8549C45.7257 18.027 45.5288 18.66 45.3646 19.0819C44.9613 20.1275 44.1313 20.9573 43.0856 21.3606C42.6635 21.5247 42.0259 21.7215 40.8581 21.773C39.592 21.8294 39.2123 21.8433 36.0094 21.8433C32.8066 21.8433 32.4221 21.8294 31.1606 21.773C29.9882 21.7215 29.3552 21.5247 28.9331 21.3606C28.4127 21.1683 27.939 20.8635 27.5545 20.465C27.156 20.0758 26.8511 19.607 26.6588 19.0867C26.4947 18.6647 26.2978 18.027 26.2463 16.8597C26.1899 15.5938 26.176 15.214 26.176 12.0117C26.176 8.80949 26.1899 8.42507 26.2463 7.16396C26.2978 5.99185 26.4947 5.35891 26.6588 4.93695C26.8511 4.41646 27.156 3.94304 27.5593 3.55844C27.9484 3.15993 28.4173 2.85518 28.9379 2.66306C29.3599 2.49897 29.9978 2.30209 31.1653 2.25045C32.4314 2.19422 32.8114 2.18012 36.014 2.18012C39.2216 2.18012 39.6013 2.19422 40.8629 2.25045C42.0352 2.30209 42.6683 2.49897 43.0903 2.66306C43.6107 2.85518 44.0844 3.15993 44.4689 3.55844C44.8675 3.94762 45.1723 4.41646 45.3646 4.93695C45.5288 5.35891 45.7257 5.99643 45.7773 7.16396C45.8336 8.42983 45.8477 8.80949 45.8477 12.0117C45.8477 15.214 45.8336 15.589 45.7773 16.8549Z" fill="url(#paint1_radial)"/>
<path d="M36.0044 5.83691C32.6 5.83691 29.8379 8.59833 29.8379 12.0022C29.8379 15.4061 32.6 18.1675 36.0044 18.1675C39.4089 18.1675 42.1708 15.4061 42.1708 12.0022C42.1708 8.59833 39.4089 5.83691 36.0044 5.83691ZM36.0044 16.0015C33.7958 16.0015 32.0043 14.2105 32.0043 12.0022C32.0043 9.79388 33.7958 8.00293 36.0044 8.00293C38.2131 8.00293 40.0044 9.79388 40.0044 12.0022C40.0044 14.2105 38.2131 16.0015 36.0044 16.0015V16.0015Z" fill="#F2203E"/>
<path d="M43.8549 5.59312C43.8549 6.38796 43.2103 7.03243 42.4152 7.03243C41.6202 7.03243 40.9756 6.38796 40.9756 5.59312C40.9756 4.7981 41.6202 4.15381 42.4152 4.15381C43.2103 4.15381 43.8549 4.7981 43.8549 5.59312V5.59312Z" fill="#F2203E"/>
<defs>
<linearGradient id="paint0_linear" x1="21" y1="22.5" x2="3.5" y2="2.50002" gradientUnits="userSpaceOnUse">
<stop stop-color="#B729A8"/>
<stop offset="1" stop-color="#F2203E"/>
</linearGradient>
<radialGradient id="paint1_radial" cx="0" cy="0" r="1" gradientUnits="userSpaceOnUse" gradientTransform="translate(25.95 21.4588) rotate(4.07596) scale(21.8481 46.6161)">
<stop stop-color="#FFD26D"/>
<stop offset="0.3273" stop-color="#F2203E"/>
<stop offset="0.6485" stop-color="#B729A8"/>
<stop offset="1" stop-color="#5342D6"/>
</radialGradient>
</defs>
</svg>
