<svg width="48" height="24" viewBox="0 0 48 24" fill="none" xmlns="http://www.w3.org/2000/svg">
<g clip-path="url(#clip0)">
<path d="M23.9939 3.84606L20.3628 21.004C20.0888 22.215 19.3744 22.5164 18.3592 21.9459L12.8264 17.8609L10.1568 20.4335C9.86133 20.7296 9.61424 20.9771 9.04485 20.9771L9.44235 15.3314L19.6967 6.04732C20.1425 5.64905 19.6 5.42839 19.0037 5.82666L6.32684 13.8244L0.869318 12.1129C-0.3178 11.7415 -0.339286 10.9235 1.11641 10.353L22.463 2.11304C23.4514 1.74168 24.3162 2.33371 23.9939 3.84606V3.84606Z" fill="#F2203E"/>
<path d="M23.9939 3.84606L20.3628 21.004C20.0888 22.215 19.3744 22.5164 18.3592 21.9459L12.8264 17.8609L10.1568 20.4335C9.86133 20.7296 9.61424 20.9771 9.04485 20.9771L9.44235 15.3314L19.6967 6.04732C20.1425 5.64905 19.6 5.42839 19.0037 5.82666L6.32684 13.8244L0.869318 12.1129C-0.3178 11.7415 -0.339286 10.9235 1.11641 10.353L22.463 2.11304C23.4514 1.74168 24.3162 2.33371 23.9939 3.84606V3.84606Z" fill="url(#paint0_linear)"/>
</g>
<g clip-path="url(#clip1)">
<path d="M47.9939 3.84606L44.3628 21.004C44.0888 22.215 43.3744 22.5164 42.3592 21.9459L36.8264 17.8609L34.1568 20.4335C33.8613 20.7296 33.6142 20.9771 33.0449 20.9771L33.4423 15.3314L43.6967 6.04732C44.1425 5.64905 43.6 5.42839 43.0037 5.82666L30.3268 13.8244L24.8693 12.1129C23.6822 11.7415 23.6607 10.9235 25.1164 10.353L46.463 2.11304C47.4514 1.74168 48.3162 2.33371 47.9939 3.84606V3.84606Z" fill="url(#paint1_radial)"/>
</g>
<defs>
<linearGradient id="paint0_linear" x1="21.0547" y1="20.9609" x2="6.8567" y2="1.65026" gradientUnits="userSpaceOnUse">
<stop stop-color="#B729A8"/>
<stop offset="1" stop-color="#F2203E"/>
</linearGradient>
<radialGradient id="paint1_radial" cx="0" cy="0" r="1" gradientUnits="userSpaceOnUse" gradientTransform="translate(25.9551 20.0837) rotate(3.42664) scale(21.8887 39.3016)">
<stop stop-color="#FFD26D"/>
<stop offset="0.3273" stop-color="#F2203E"/>
<stop offset="0.6485" stop-color="#B729A8"/>
<stop offset="1" stop-color="#5342D6"/>
</radialGradient>
<clipPath id="clip0">
<rect width="24" height="24" fill="white"/>
</clipPath>
<clipPath id="clip1">
<rect width="24" height="24" fill="white" transform="translate(24)"/>
</clipPath>
</defs>
</svg>
