<svg width="48" height="24" viewBox="0 0 48 24" fill="none" xmlns="http://www.w3.org/2000/svg">
<g clip-path="url(#clip0)">
<path d="M15.4722 11.4297C15.4722 12.1636 14.9308 12.7652 14.245 12.7652C13.5713 12.7652 13.0178 12.1636 13.0178 11.4297C13.0178 10.6958 13.5592 10.0942 14.245 10.0942C14.9308 10.0942 15.4722 10.6958 15.4722 11.4297ZM9.85359 10.0942C9.16781 10.0942 8.62641 10.6958 8.62641 11.4297C8.62641 12.1636 9.17984 12.7652 9.85359 12.7652C10.5394 12.7652 11.0808 12.1636 11.0808 11.4297C11.0928 10.6958 10.5394 10.0942 9.85359 10.0942ZM22.5586 2.47844V24.0625C19.5276 21.3839 20.4969 22.2706 16.9761 18.9973L17.6137 21.2231H3.97031C2.61078 21.2231 1.50391 20.1162 1.50391 18.7447V2.47844C1.50391 1.10687 2.61078 0 3.97031 0H20.0922C21.4517 0 22.5586 1.10687 22.5586 2.47844ZM19.1297 13.8841C19.1297 10.01 17.3972 6.86984 17.3972 6.86984C15.6647 5.57047 14.0164 5.60656 14.0164 5.60656L13.848 5.79906C15.8933 6.42469 16.8437 7.32703 16.8437 7.32703C13.9858 5.76067 10.6287 5.76038 7.85641 6.97812C7.41125 7.18266 7.14656 7.32703 7.14656 7.32703C7.14656 7.32703 8.14516 6.37656 10.3108 5.75094L10.1905 5.60656C10.1905 5.60656 8.54219 5.57047 6.80969 6.86984C6.80969 6.86984 5.07719 10.01 5.07719 13.8841C5.07719 13.8841 6.08781 15.6286 8.74672 15.7128C8.74672 15.7128 9.19188 15.1714 9.55281 14.7142C8.02484 14.257 7.44734 13.2945 7.44734 13.2945C7.62433 13.4184 7.91619 13.579 7.94063 13.5953C9.97137 14.7325 12.856 15.1051 15.4481 14.0164C15.8692 13.86 16.3384 13.6314 16.8317 13.3066C16.8317 13.3066 16.2302 14.2931 14.6541 14.7383C15.015 15.1955 15.4481 15.7128 15.4481 15.7128C18.107 15.6286 19.1297 13.8841 19.1297 13.8841Z" fill="#F2203E"/>
<path d="M15.4722 11.4297C15.4722 12.1636 14.9308 12.7652 14.245 12.7652C13.5713 12.7652 13.0178 12.1636 13.0178 11.4297C13.0178 10.6958 13.5592 10.0942 14.245 10.0942C14.9308 10.0942 15.4722 10.6958 15.4722 11.4297ZM9.85359 10.0942C9.16781 10.0942 8.62641 10.6958 8.62641 11.4297C8.62641 12.1636 9.17984 12.7652 9.85359 12.7652C10.5394 12.7652 11.0808 12.1636 11.0808 11.4297C11.0928 10.6958 10.5394 10.0942 9.85359 10.0942ZM22.5586 2.47844V24.0625C19.5276 21.3839 20.4969 22.2706 16.9761 18.9973L17.6137 21.2231H3.97031C2.61078 21.2231 1.50391 20.1162 1.50391 18.7447V2.47844C1.50391 1.10687 2.61078 0 3.97031 0H20.0922C21.4517 0 22.5586 1.10687 22.5586 2.47844ZM19.1297 13.8841C19.1297 10.01 17.3972 6.86984 17.3972 6.86984C15.6647 5.57047 14.0164 5.60656 14.0164 5.60656L13.848 5.79906C15.8933 6.42469 16.8437 7.32703 16.8437 7.32703C13.9858 5.76067 10.6287 5.76038 7.85641 6.97812C7.41125 7.18266 7.14656 7.32703 7.14656 7.32703C7.14656 7.32703 8.14516 6.37656 10.3108 5.75094L10.1905 5.60656C10.1905 5.60656 8.54219 5.57047 6.80969 6.86984C6.80969 6.86984 5.07719 10.01 5.07719 13.8841C5.07719 13.8841 6.08781 15.6286 8.74672 15.7128C8.74672 15.7128 9.19188 15.1714 9.55281 14.7142C8.02484 14.257 7.44734 13.2945 7.44734 13.2945C7.62433 13.4184 7.91619 13.579 7.94063 13.5953C9.97137 14.7325 12.856 15.1051 15.4481 14.0164C15.8692 13.86 16.3384 13.6314 16.8317 13.3066C16.8317 13.3066 16.2302 14.2931 14.6541 14.7383C15.015 15.1955 15.4481 15.7128 15.4481 15.7128C18.107 15.6286 19.1297 13.8841 19.1297 13.8841Z" fill="url(#paint0_linear)"/>
</g>
<g clip-path="url(#clip1)">
<path d="M39.4722 11.4297C39.4722 12.1636 38.9308 12.7652 38.245 12.7652C37.5713 12.7652 37.0178 12.1636 37.0178 11.4297C37.0178 10.6958 37.5592 10.0942 38.245 10.0942C38.9308 10.0942 39.4722 10.6958 39.4722 11.4297ZM33.8536 10.0942C33.1678 10.0942 32.6264 10.6958 32.6264 11.4297C32.6264 12.1636 33.1798 12.7652 33.8536 12.7652C34.5394 12.7652 35.0808 12.1636 35.0808 11.4297C35.0928 10.6958 34.5394 10.0942 33.8536 10.0942ZM46.5586 2.47844V24.0625C43.5276 21.3839 44.4969 22.2706 40.9761 18.9973L41.6137 21.2231H27.9703C26.6108 21.2231 25.5039 20.1162 25.5039 18.7447V2.47844C25.5039 1.10687 26.6108 0 27.9703 0H44.0922C45.4517 0 46.5586 1.10687 46.5586 2.47844ZM43.1297 13.8841C43.1297 10.01 41.3972 6.86984 41.3972 6.86984C39.6647 5.57047 38.0164 5.60656 38.0164 5.60656L37.848 5.79906C39.8933 6.42469 40.8437 7.32703 40.8437 7.32703C37.9858 5.76067 34.6287 5.76038 31.8564 6.97812C31.4112 7.18266 31.1466 7.32703 31.1466 7.32703C31.1466 7.32703 32.1452 6.37656 34.3108 5.75094L34.1905 5.60656C34.1905 5.60656 32.5422 5.57047 30.8097 6.86984C30.8097 6.86984 29.0772 10.01 29.0772 13.8841C29.0772 13.8841 30.0878 15.6286 32.7467 15.7128C32.7467 15.7128 33.1919 15.1714 33.5528 14.7142C32.0248 14.257 31.4473 13.2945 31.4473 13.2945C31.6243 13.4184 31.9162 13.579 31.9406 13.5953C33.9714 14.7325 36.856 15.1051 39.4481 14.0164C39.8692 13.86 40.3384 13.6314 40.8317 13.3066C40.8317 13.3066 40.2302 14.2931 38.6541 14.7383C39.015 15.1955 39.4481 15.7128 39.4481 15.7128C42.107 15.6286 43.1297 13.8841 43.1297 13.8841Z" fill="url(#paint1_radial)"/>
</g>
<defs>
<linearGradient id="paint0_linear" x1="19.9268" y1="22.5586" x2="2.22453" y2="4.85638" gradientUnits="userSpaceOnUse">
<stop stop-color="#B729A8"/>
<stop offset="1" stop-color="#F2203E"/>
</linearGradient>
<radialGradient id="paint1_radial" cx="0" cy="0" r="1" gradientUnits="userSpaceOnUse" gradientTransform="translate(27.2146 21.5147) rotate(4.65584) scale(19.1817 46.7014)">
<stop stop-color="#FFD26D"/>
<stop offset="0.3273" stop-color="#F2203E"/>
<stop offset="0.6485" stop-color="#B729A8"/>
<stop offset="1" stop-color="#5342D6"/>
</radialGradient>
<clipPath id="clip0">
<rect width="24" height="24" fill="white"/>
</clipPath>
<clipPath id="clip1">
<rect width="24" height="24" fill="white" transform="translate(24)"/>
</clipPath>
</defs>
</svg>
