<svg width="48" height="24" viewBox="0 0 48 24" fill="none" xmlns="http://www.w3.org/2000/svg">
<path d="M21.533 7.19134C21.5482 7.40453 21.5482 7.61776 21.5482 7.83095C21.5482 14.3334 16.599 21.8259 7.5533 21.8259C4.76648 21.8259 2.17767 21.0187 0 19.6178C0.395953 19.6634 0.776625 19.6787 1.18781 19.6787C3.48727 19.6787 5.60405 18.902 7.29441 17.5772C5.13197 17.5314 3.31978 16.1152 2.69541 14.166C3 14.2116 3.30455 14.2421 3.62437 14.2421C4.06598 14.2421 4.50764 14.1812 4.91878 14.0746C2.66498 13.6177 0.974578 11.638 0.974578 9.24718V9.18629C1.62937 9.55178 2.39086 9.7802 3.19791 9.81062C1.87303 8.92736 1.00505 7.41976 1.00505 5.71417C1.00505 4.80048 1.24866 3.96292 1.67508 3.23195C4.09641 6.21671 7.73602 8.16592 11.8172 8.37915C11.7411 8.01367 11.6954 7.633 11.6954 7.25228C11.6954 4.54159 13.8883 2.3335 16.6141 2.3335C18.0304 2.3335 19.3095 2.9274 20.208 3.88679C21.3197 3.67361 22.3857 3.26242 23.3299 2.69898C22.9643 3.84114 22.1877 4.80053 21.1674 5.40962C22.1573 5.30307 23.1167 5.0289 23.9999 4.64823C23.33 5.62281 22.4924 6.49079 21.533 7.19134V7.19134Z" fill="#F2203E"/>
<path d="M21.533 7.19134C21.5482 7.40453 21.5482 7.61776 21.5482 7.83095C21.5482 14.3334 16.599 21.8259 7.5533 21.8259C4.76648 21.8259 2.17767 21.0187 0 19.6178C0.395953 19.6634 0.776625 19.6787 1.18781 19.6787C3.48727 19.6787 5.60405 18.902 7.29441 17.5772C5.13197 17.5314 3.31978 16.1152 2.69541 14.166C3 14.2116 3.30455 14.2421 3.62437 14.2421C4.06598 14.2421 4.50764 14.1812 4.91878 14.0746C2.66498 13.6177 0.974578 11.638 0.974578 9.24718V9.18629C1.62937 9.55178 2.39086 9.7802 3.19791 9.81062C1.87303 8.92736 1.00505 7.41976 1.00505 5.71417C1.00505 4.80048 1.24866 3.96292 1.67508 3.23195C4.09641 6.21671 7.73602 8.16592 11.8172 8.37915C11.7411 8.01367 11.6954 7.633 11.6954 7.25228C11.6954 4.54159 13.8883 2.3335 16.6141 2.3335C18.0304 2.3335 19.3095 2.9274 20.208 3.88679C21.3197 3.67361 22.3857 3.26242 23.3299 2.69898C22.9643 3.84114 22.1877 4.80053 21.1674 5.40962C22.1573 5.30307 23.1167 5.0289 23.9999 4.64823C23.33 5.62281 22.4924 6.49079 21.533 7.19134V7.19134Z" fill="url(#paint0_linear)"/>
<path d="M45.533 7.19134C45.5482 7.40453 45.5482 7.61776 45.5482 7.83095C45.5482 14.3334 40.599 21.8259 31.5533 21.8259C28.7665 21.8259 26.1777 21.0187 24 19.6178C24.396 19.6634 24.7766 19.6787 25.1878 19.6787C27.4873 19.6787 29.604 18.902 31.2944 17.5772C29.132 17.5314 27.3198 16.1152 26.6954 14.166C27 14.2116 27.3045 14.2421 27.6244 14.2421C28.066 14.2421 28.5076 14.1812 28.9188 14.0746C26.665 13.6177 24.9746 11.638 24.9746 9.24718V9.18629C25.6294 9.55178 26.3909 9.7802 27.1979 9.81062C25.873 8.92736 25.005 7.41976 25.005 5.71417C25.005 4.80048 25.2487 3.96292 25.6751 3.23195C28.0964 6.21671 31.736 8.16592 35.8172 8.37915C35.7411 8.01367 35.6954 7.633 35.6954 7.25228C35.6954 4.54159 37.8883 2.3335 40.6141 2.3335C42.0304 2.3335 43.3095 2.9274 44.208 3.88679C45.3197 3.67361 46.3857 3.26242 47.3299 2.69898C46.9643 3.84114 46.1877 4.80053 45.1674 5.40962C46.1573 5.30307 47.1167 5.0289 47.9999 4.64823C47.33 5.62281 46.4924 6.49079 45.533 7.19134V7.19134Z" fill="url(#paint1_radial)"/>
<defs>
<linearGradient id="paint0_linear" x1="20.9999" y1="20.6076" x2="7.45749" y2="1.55152" gradientUnits="userSpaceOnUse">
<stop stop-color="#B729A8"/>
<stop offset="1" stop-color="#F2203E"/>
</linearGradient>
<radialGradient id="paint1_radial" cx="0" cy="0" r="1" gradientUnits="userSpaceOnUse" gradientTransform="translate(25.95 19.762) rotate(3.31234) scale(21.8292 37.8933)">
<stop stop-color="#FFD26D"/>
<stop offset="0.3273" stop-color="#F2203E"/>
<stop offset="0.6485" stop-color="#B729A8"/>
<stop offset="1" stop-color="#5342D6"/>
</radialGradient>
</defs>
</svg>
