<svg width="625" height="282" viewBox="0 0 625 282" fill="none" xmlns="http://www.w3.org/2000/svg">
<path opacity="0.5" d="M53.8 14L54.7934 13.8856L54.6915 13H53.8V14ZM29.9 14V13H29.0118L28.907 13.882L29.9 14ZM22.7 74.6V75.6H23.5882L23.693 74.718L22.7 74.6ZM16.8 74.6L15.8 74.5967L15.7967 75.6H16.8V74.6ZM17 14L18 14.0033L18.0033 13H17V14ZM6 14V13H5V14H6ZM6 84H5V85H6V84ZM32.3 84V85H33.1982L33.2943 84.107L32.3 84ZM38.8 23.6V22.6H37.9018L37.8057 23.493L38.8 23.6ZM44.6 23.6L45.5943 23.493L45.4982 22.6H44.6V23.6ZM51.1 84L50.1057 84.107L50.2018 85H51.1V84ZM77.4 84V85H78.4V84H77.4ZM77.4 14H78.4V13H77.4V14ZM66.8 14V13H65.8V14H66.8ZM66.8 74.8V75.8H67.8V74.8H66.8ZM60.8 74.8L59.8066 74.9144L59.9085 75.8H60.8V74.8ZM53.8 13H29.9V15H53.8V13ZM28.907 13.882L21.707 74.482L23.693 74.718L30.893 14.118L28.907 13.882ZM22.7 73.6H16.8V75.6H22.7V73.6ZM17.8 74.6033L18 14.0033L16 13.9967L15.8 74.5967L17.8 74.6033ZM17 13H6V15H17V13ZM5 14V84H7V14H5ZM6 85H32.3V83H6V85ZM33.2943 84.107L39.7943 23.707L37.8057 23.493L31.3057 83.893L33.2943 84.107ZM38.8 24.6H44.6V22.6H38.8V24.6ZM43.6057 23.707L50.1057 84.107L52.0943 83.893L45.5943 23.493L43.6057 23.707ZM51.1 85H77.4V83H51.1V85ZM78.4 84V14H76.4V84H78.4ZM77.4 13H66.8V15H77.4V13ZM65.8 14V74.8H67.8V14H65.8ZM66.8 73.8H60.8V75.8H66.8V73.8ZM61.7934 74.6856L54.7934 13.8856L52.8066 14.1144L59.8066 74.9144L61.7934 74.6856ZM156.218 63.7L157.137 64.0939L157.686 62.8137L156.297 62.7032L156.218 63.7ZM144.918 62.8L144.997 61.8032L144.385 61.7544L144.065 62.2785L144.918 62.8ZM140.918 67.9L141.625 68.6071L141.636 68.5957L141.648 68.5839L140.918 67.9ZM102.918 67.9L103.625 67.1929L103.625 67.1929L102.918 67.9ZM95.318 52.4V51.4H94.1923L94.3249 52.5178L95.318 52.4ZM159.118 52.4V53.4H160.031L160.114 52.4905L159.118 52.4ZM140.918 29.9L140.211 30.6071L140.211 30.6071L140.918 29.9ZM147.918 42.1V43.1H149.22L148.884 41.8423L147.918 42.1ZM95.918 42.1L94.9517 41.8423L94.6164 43.1H95.918V42.1ZM102.918 29.9L103.625 30.6071L103.625 30.6071L102.918 29.9ZM156.297 62.7032L144.997 61.8032L144.839 63.7968L156.139 64.6968L156.297 62.7032ZM144.065 62.2785C143.013 63.9994 141.662 65.6441 140.188 67.2161L141.648 68.5839C143.174 66.9559 144.623 65.2006 145.771 63.3214L144.065 62.2785ZM140.211 67.1929C135.297 72.1072 128.85 74.8 121.918 74.8V76.8C129.386 76.8 136.339 73.8928 141.625 68.6071L140.211 67.1929ZM121.918 74.8C114.986 74.8 108.539 72.1072 103.625 67.1929L102.211 68.6071C107.497 73.8928 114.45 76.8 121.918 76.8V74.8ZM103.625 67.1929C99.5777 63.1455 96.9835 57.9507 96.311 52.2822L94.3249 52.5178C95.0524 58.6493 97.8583 64.2545 102.211 68.6071L103.625 67.1929ZM95.318 53.4H159.118V51.4H95.318V53.4ZM160.114 52.4905C160.214 51.3899 160.318 50.1498 160.318 48.9H158.318C158.318 50.0502 158.222 51.2101 158.122 52.3095L160.114 52.4905ZM160.318 48.9C160.318 27.6477 143.17 10.5 121.918 10.5V12.5C142.066 12.5 158.318 28.7523 158.318 48.9H160.318ZM121.918 10.5C100.666 10.5 83.518 27.6477 83.518 48.9H85.518C85.518 28.7523 101.77 12.5 121.918 12.5V10.5ZM83.518 48.9C83.518 70.1523 100.666 87.3 121.918 87.3V85.3C101.77 85.3 85.518 69.0477 85.518 48.9H83.518ZM121.918 87.3C137.731 87.3 151.285 77.7491 157.137 64.0939L155.299 63.3061C149.751 76.2509 136.905 85.3 121.918 85.3V87.3ZM121.918 23C128.85 23 135.297 25.6928 140.211 30.6071L141.625 29.1929C136.339 23.9072 129.386 21 121.918 21V23ZM140.211 30.6071C143.481 33.8777 145.795 38.0207 146.952 42.3577L148.884 41.8423C147.641 37.1793 145.154 32.7223 141.625 29.1929L140.211 30.6071ZM147.918 41.1H95.918V43.1H147.918V41.1ZM96.8842 42.3577C98.0407 38.0207 100.354 33.8777 103.625 30.6071L102.211 29.1929C98.6815 32.7223 96.1952 37.1793 94.9517 41.8423L96.8842 42.3577ZM103.625 30.6071C108.539 25.6928 114.986 23 121.918 23V21C114.45 21 107.497 23.9072 102.211 29.1929L103.625 30.6071ZM260.01 83.8V84.8H261.01V83.8H260.01ZM260.01 42.2H261.01V41.2H260.01V42.2ZM259.91 42.2H258.91V43.2H259.91V42.2ZM259.91 41.5H260.91V40.5H259.91V41.5ZM240.31 41.5H239.31V42.5H240.31V41.5ZM240.31 14H241.31V13H240.31V14ZM200.41 14V13H199.41V14H200.41ZM200.41 83.8H199.41V84.8H200.41V83.8ZM230.01 41.5V42.5H231.01V41.5H230.01ZM210.71 41.5H209.71V42.5H210.71V41.5ZM210.71 24.3V23.3H209.71V24.3H210.71ZM230.01 24.3H231.01V23.3H230.01V24.3ZM210.71 73.5H209.71V74.5H210.71V73.5ZM210.71 51.7V50.7H209.71V51.7H210.71ZM249.71 51.7H250.71V50.7H249.71V51.7ZM249.71 73.5V74.5H250.71V73.5H249.71ZM261.01 83.8V42.2H259.01V83.8H261.01ZM260.01 41.2H259.91V43.2H260.01V41.2ZM260.91 42.2V41.5H258.91V42.2H260.91ZM259.91 40.5H240.31V42.5H259.91V40.5ZM241.31 41.5V14H239.31V41.5H241.31ZM240.31 13H200.41V15H240.31V13ZM199.41 14V83.8H201.41V14H199.41ZM200.41 84.8H260.01V82.8H200.41V84.8ZM230.01 40.5H210.71V42.5H230.01V40.5ZM211.71 41.5V24.3H209.71V41.5H211.71ZM210.71 25.3H230.01V23.3H210.71V25.3ZM229.01 24.3V41.5H231.01V24.3H229.01ZM211.71 73.5V51.7H209.71V73.5H211.71ZM210.71 52.7H249.71V50.7H210.71V52.7ZM248.71 51.7V73.5H250.71V51.7H248.71ZM249.71 72.5H210.71V74.5H249.71V72.5ZM337.761 63.7L338.68 64.0939L339.229 62.8137L337.84 62.7032L337.761 63.7ZM326.461 62.8L326.54 61.8032L325.928 61.7544L325.608 62.2785L326.461 62.8ZM322.461 67.9L323.168 68.6071L323.179 68.5957L323.19 68.5839L322.461 67.9ZM284.461 67.9L285.168 67.1929L285.168 67.1929L284.461 67.9ZM276.861 52.4V51.4H275.735L275.868 52.5178L276.861 52.4ZM340.661 52.4V53.4H341.574L341.657 52.4905L340.661 52.4ZM322.461 29.9L321.754 30.6071L321.754 30.6071L322.461 29.9ZM329.461 42.1V43.1H330.763L330.427 41.8423L329.461 42.1ZM277.461 42.1L276.495 41.8423L276.159 43.1H277.461V42.1ZM284.461 29.9L285.168 30.6071L285.168 30.6071L284.461 29.9ZM337.84 62.7032L326.54 61.8032L326.382 63.7968L337.682 64.6968L337.84 62.7032ZM325.608 62.2785C324.556 63.9994 323.205 65.6441 321.731 67.2161L323.19 68.5839C324.717 66.9559 326.166 65.2006 327.314 63.3214L325.608 62.2785ZM321.754 67.1929C316.84 72.1072 310.393 74.8 303.461 74.8V76.8C310.929 76.8 317.882 73.8928 323.168 68.6071L321.754 67.1929ZM303.461 74.8C296.529 74.8 290.082 72.1072 285.168 67.1929L283.754 68.6071C289.04 73.8928 295.993 76.8 303.461 76.8V74.8ZM285.168 67.1929C281.121 63.1455 278.527 57.9507 277.854 52.2822L275.868 52.5178C276.595 58.6493 279.401 64.2545 283.754 68.6071L285.168 67.1929ZM276.861 53.4H340.661V51.4H276.861V53.4ZM341.657 52.4905C341.757 51.3899 341.861 50.1498 341.861 48.9H339.861C339.861 50.0502 339.765 51.2101 339.665 52.3095L341.657 52.4905ZM341.861 48.9C341.861 27.6477 324.713 10.5 303.461 10.5V12.5C323.609 12.5 339.861 28.7523 339.861 48.9H341.861ZM303.461 10.5C282.209 10.5 265.061 27.6477 265.061 48.9H267.061C267.061 28.7523 283.313 12.5 303.461 12.5V10.5ZM265.061 48.9C265.061 70.1523 282.209 87.3 303.461 87.3V85.3C283.313 85.3 267.061 69.0477 267.061 48.9H265.061ZM303.461 87.3C319.274 87.3 332.828 77.7491 338.68 64.0939L336.842 63.3061C331.294 76.2509 318.448 85.3 303.461 85.3V87.3ZM303.461 23C310.393 23 316.84 25.6928 321.754 30.6071L323.168 29.1929C317.882 23.9072 310.929 21 303.461 21V23ZM321.754 30.6071C325.024 33.8777 327.338 38.0207 328.495 42.3577L330.427 41.8423C329.184 37.1793 326.697 32.7223 323.168 29.1929L321.754 30.6071ZM329.461 41.1H277.461V43.1H329.461V41.1ZM278.427 42.3577C279.584 38.0207 281.897 33.8777 285.168 30.6071L283.754 29.1929C280.224 32.7223 277.738 37.1793 276.495 41.8423L278.427 42.3577ZM285.168 30.6071C290.082 25.6928 296.529 23 303.461 23V21C295.993 21 289.04 23.9072 283.754 29.1929L285.168 30.6071ZM358.244 74.2H357.244V75.2H358.244V74.2ZM358.244 14H359.244V13H358.244V14ZM347.744 14V13H346.744V14H347.744ZM347.744 84H346.744V85H347.744V84ZM382.044 84V85H383.044V84H382.044ZM382.044 74.2H383.044V73.2H382.044V74.2ZM359.244 74.2V14H357.244V74.2H359.244ZM358.244 13H347.744V15H358.244V13ZM346.744 14V84H348.744V14H346.744ZM347.744 85H382.044V83H347.744V85ZM383.044 84V74.2H381.044V84H383.044ZM382.044 73.2H358.244V75.2H382.044V73.2ZM407.235 24.3V23.3H406.235V24.3H407.235ZM416.335 24.3V25.3H417.335V24.3H416.335ZM416.335 14H417.335V13H416.335V14ZM388.035 14V13H387.035V14H388.035ZM388.035 24.3H387.035V25.3H388.035V24.3ZM397.235 24.3H398.235V23.3H397.235V24.3ZM397.235 74.2V75.2H398.235V74.2H397.235ZM388.035 74.2V73.2H387.035V74.2H388.035ZM388.035 84H387.035V85H388.035V84ZM416.335 84V85H417.335V84H416.335ZM416.335 74.2H417.335V73.2H416.335V74.2ZM407.235 74.2H406.235V75.2H407.235V74.2ZM407.235 25.3H416.335V23.3H407.235V25.3ZM417.335 24.3V14H415.335V24.3H417.335ZM416.335 13H388.035V15H416.335V13ZM387.035 14V24.3H389.035V14H387.035ZM388.035 25.3H397.235V23.3H388.035V25.3ZM396.235 24.3V74.2H398.235V24.3H396.235ZM397.235 73.2H388.035V75.2H397.235V73.2ZM387.035 74.2V84H389.035V74.2H387.035ZM388.035 85H416.335V83H388.035V85ZM417.335 84V74.2H415.335V84H417.335ZM416.335 73.2H407.235V75.2H416.335V73.2ZM408.235 74.2V24.3H406.235V74.2H408.235ZM489.128 63.7L490.047 64.0939L490.596 62.8137L489.208 62.7032L489.128 63.7ZM477.828 62.8L477.908 61.8032L477.295 61.7544L476.975 62.2785L477.828 62.8ZM473.828 67.9L474.535 68.6071L474.547 68.5957L474.558 68.5839L473.828 67.9ZM435.828 67.9L436.535 67.1929L436.535 67.1929L435.828 67.9ZM428.228 52.4V51.4H427.102L427.235 52.5178L428.228 52.4ZM492.028 52.4V53.4H492.941L493.024 52.4905L492.028 52.4ZM473.828 29.9L473.121 30.6071L473.121 30.6071L473.828 29.9ZM480.828 42.1V43.1H482.13L481.794 41.8423L480.828 42.1ZM428.828 42.1L427.862 41.8423L427.527 43.1H428.828V42.1ZM435.828 29.9L436.535 30.6071L436.535 30.6071L435.828 29.9ZM489.208 62.7032L477.908 61.8032L477.749 63.7968L489.049 64.6968L489.208 62.7032ZM476.975 62.2785C475.923 63.9994 474.572 65.6441 473.099 67.2161L474.558 68.5839C476.084 66.9559 477.533 65.2006 478.681 63.3214L476.975 62.2785ZM473.121 67.1929C468.207 72.1072 461.76 74.8 454.828 74.8V76.8C462.296 76.8 469.25 73.8928 474.535 68.6071L473.121 67.1929ZM454.828 74.8C447.896 74.8 441.45 72.1072 436.535 67.1929L435.121 68.6071C440.407 73.8928 447.36 76.8 454.828 76.8V74.8ZM436.535 67.1929C432.488 63.1455 429.894 57.9507 429.221 52.2822L427.235 52.5178C427.963 58.6493 430.768 64.2545 435.121 68.6071L436.535 67.1929ZM428.228 53.4H492.028V51.4H428.228V53.4ZM493.024 52.4905C493.124 51.3899 493.228 50.1498 493.228 48.9H491.228C491.228 50.0502 491.132 51.2101 491.032 52.3095L493.024 52.4905ZM493.228 48.9C493.228 27.6477 476.08 10.5 454.828 10.5V12.5C474.976 12.5 491.228 28.7523 491.228 48.9H493.228ZM454.828 10.5C433.576 10.5 416.428 27.6477 416.428 48.9H418.428C418.428 28.7523 434.68 12.5 454.828 12.5V10.5ZM416.428 48.9C416.428 70.1523 433.576 87.3 454.828 87.3V85.3C434.68 85.3 418.428 69.0477 418.428 48.9H416.428ZM454.828 87.3C470.642 87.3 484.195 77.7491 490.047 64.0939L488.209 63.3061C482.661 76.2509 469.815 85.3 454.828 85.3V87.3ZM454.828 23C461.76 23 468.207 25.6928 473.121 30.6071L474.535 29.1929C469.25 23.9072 462.296 21 454.828 21V23ZM473.121 30.6071C476.392 33.8777 478.705 38.0207 479.862 42.3577L481.794 41.8423C480.551 37.1793 478.065 32.7223 474.535 29.1929L473.121 30.6071ZM480.828 41.1H428.828V43.1H480.828V41.1ZM429.794 42.3577C430.951 38.0207 433.265 33.8777 436.535 30.6071L435.121 29.1929C431.592 32.7223 429.105 37.1793 427.862 41.8423L429.794 42.3577ZM436.535 30.6071C441.45 25.6928 447.896 23 454.828 23V21C447.36 21 440.407 23.9072 435.121 29.1929L436.535 30.6071ZM530.532 14V13H529.671L529.543 13.8509L530.532 14ZM521.532 73.7V74.7H522.393L522.521 73.8491L521.532 73.7ZM515.032 73.7L514.046 73.8652L514.186 74.7H515.032V73.7ZM505.032 14L506.018 13.8348L505.878 13H505.032V14ZM494.832 14V13H493.679L493.842 14.1414L494.832 14ZM504.832 84L503.842 84.1414L503.965 85H504.832V84ZM531.832 84V85H532.712L532.824 84.1275L531.832 84ZM540.832 14L541.824 14.1275L541.969 13H540.832V14ZM529.543 13.8509L520.543 73.5509L522.521 73.8491L531.521 14.1491L529.543 13.8509ZM521.532 72.7H515.032V74.7H521.532V72.7ZM516.018 73.5348L506.018 13.8348L504.046 14.1652L514.046 73.8652L516.018 73.5348ZM505.032 13H494.832V15H505.032V13ZM493.842 14.1414L503.842 84.1414L505.822 83.8586L495.822 13.8586L493.842 14.1414ZM504.832 85H531.832V83H504.832V85ZM532.824 84.1275L541.824 14.1275L539.84 13.8725L530.84 83.8725L532.824 84.1275ZM540.832 13H530.532V15H540.832V13ZM618.132 63.7L619.051 64.0939L619.6 62.8137L618.211 62.7032L618.132 63.7ZM606.832 62.8L606.911 61.8032L606.299 61.7544L605.979 62.2785L606.832 62.8ZM602.832 67.9L603.539 68.6071L603.551 68.5957L603.562 68.5839L602.832 67.9ZM564.832 67.9L565.539 67.1929L565.539 67.1929L564.832 67.9ZM557.232 52.4V51.4H556.106L556.239 52.5178L557.232 52.4ZM621.032 52.4V53.4H621.945L622.028 52.4905L621.032 52.4ZM602.832 29.9L602.125 30.6071L602.125 30.6071L602.832 29.9ZM609.832 42.1V43.1H611.134L610.798 41.8423L609.832 42.1ZM557.832 42.1L556.866 41.8423L556.53 43.1H557.832V42.1ZM564.832 29.9L565.539 30.6071L565.539 30.6071L564.832 29.9ZM618.211 62.7032L606.911 61.8032L606.753 63.7968L618.053 64.6968L618.211 62.7032ZM605.979 62.2785C604.927 63.9994 603.576 65.6441 602.102 67.2161L603.562 68.5839C605.088 66.9559 606.537 65.2006 607.685 63.3214L605.979 62.2785ZM602.125 67.1929C597.211 72.1072 590.764 74.8 583.832 74.8V76.8C591.3 76.8 598.253 73.8928 603.539 68.6071L602.125 67.1929ZM583.832 74.8C576.9 74.8 570.453 72.1072 565.539 67.1929L564.125 68.6071C569.411 73.8928 576.364 76.8 583.832 76.8V74.8ZM565.539 67.1929C561.492 63.1455 558.898 57.9507 558.225 52.2822L556.239 52.5178C556.966 58.6493 559.772 64.2545 564.125 68.6071L565.539 67.1929ZM557.232 53.4H621.032V51.4H557.232V53.4ZM622.028 52.4905C622.128 51.3899 622.232 50.1498 622.232 48.9H620.232C620.232 50.0502 620.136 51.2101 620.036 52.3095L622.028 52.4905ZM622.232 48.9C622.232 27.6477 605.084 10.5 583.832 10.5V12.5C603.98 12.5 620.232 28.7523 620.232 48.9H622.232ZM583.832 10.5C562.58 10.5 545.432 27.6477 545.432 48.9H547.432C547.432 28.7523 563.684 12.5 583.832 12.5V10.5ZM545.432 48.9C545.432 70.1523 562.58 87.3 583.832 87.3V85.3C563.684 85.3 547.432 69.0477 547.432 48.9H545.432ZM583.832 87.3C599.645 87.3 613.199 77.7491 619.051 64.0939L617.213 63.3061C611.665 76.2509 598.819 85.3 583.832 85.3V87.3ZM583.832 23C590.764 23 597.211 25.6928 602.125 30.6071L603.539 29.1929C598.253 23.9072 591.3 21 583.832 21V23ZM602.125 30.6071C605.396 33.8777 607.709 38.0207 608.866 42.3577L610.798 41.8423C609.555 37.1793 607.069 32.7223 603.539 29.1929L602.125 30.6071ZM609.832 41.1H557.832V43.1H609.832V41.1ZM558.798 42.3577C559.955 38.0207 562.269 33.8777 565.539 30.6071L564.125 29.1929C560.596 32.7223 558.109 37.1793 556.866 41.8423L558.798 42.3577ZM565.539 30.6071C570.453 25.6928 576.9 23 583.832 23V21C576.364 21 569.411 23.9072 564.125 29.1929L565.539 30.6071Z" fill="url(#paint0_linear)"/>
<g opacity="0.3">
<path d="M53.8 110L54.7934 109.886L54.6915 109H53.8V110ZM29.9 110V109H29.0118L28.907 109.882L29.9 110ZM22.7 170.6V171.6H23.5882L23.693 170.718L22.7 170.6ZM16.8 170.6L15.8 170.597L15.7967 171.6H16.8V170.6ZM17 110L18 110.003L18.0033 109H17V110ZM6 110V109H5V110H6ZM6 180H5V181H6V180ZM32.3 180V181H33.1982L33.2943 180.107L32.3 180ZM38.8 119.6V118.6H37.9018L37.8057 119.493L38.8 119.6ZM44.6 119.6L45.5943 119.493L45.4982 118.6H44.6V119.6ZM51.1 180L50.1057 180.107L50.2018 181H51.1V180ZM77.4 180V181H78.4V180H77.4ZM77.4 110H78.4V109H77.4V110ZM66.8 110V109H65.8V110H66.8ZM66.8 170.8V171.8H67.8V170.8H66.8ZM60.8 170.8L59.8066 170.914L59.9085 171.8H60.8V170.8ZM53.8 109H29.9V111H53.8V109ZM28.907 109.882L21.707 170.482L23.693 170.718L30.893 110.118L28.907 109.882ZM22.7 169.6H16.8V171.6H22.7V169.6ZM17.8 170.603L18 110.003L16 109.997L15.8 170.597L17.8 170.603ZM17 109H6V111H17V109ZM5 110V180H7V110H5ZM6 181H32.3V179H6V181ZM33.2943 180.107L39.7943 119.707L37.8057 119.493L31.3057 179.893L33.2943 180.107ZM38.8 120.6H44.6V118.6H38.8V120.6ZM43.6057 119.707L50.1057 180.107L52.0943 179.893L45.5943 119.493L43.6057 119.707ZM51.1 181H77.4V179H51.1V181ZM78.4 180V110H76.4V180H78.4ZM77.4 109H66.8V111H77.4V109ZM65.8 110V170.8H67.8V110H65.8ZM66.8 169.8H60.8V171.8H66.8V169.8ZM61.7934 170.686L54.7934 109.886L52.8066 110.114L59.8066 170.914L61.7934 170.686ZM156.218 159.7L157.137 160.094L157.686 158.814L156.297 158.703L156.218 159.7ZM144.918 158.8L144.997 157.803L144.385 157.754L144.065 158.279L144.918 158.8ZM140.918 163.9L141.625 164.607L141.636 164.596L141.648 164.584L140.918 163.9ZM102.918 163.9L103.625 163.193L103.625 163.193L102.918 163.9ZM95.318 148.4V147.4H94.1923L94.3249 148.518L95.318 148.4ZM159.118 148.4V149.4H160.031L160.114 148.491L159.118 148.4ZM140.918 125.9L140.211 126.607L140.211 126.607L140.918 125.9ZM147.918 138.1V139.1H149.22L148.884 137.842L147.918 138.1ZM95.918 138.1L94.9517 137.842L94.6164 139.1H95.918V138.1ZM102.918 125.9L103.625 126.607L103.625 126.607L102.918 125.9ZM156.297 158.703L144.997 157.803L144.839 159.797L156.139 160.697L156.297 158.703ZM144.065 158.279C143.013 159.999 141.662 161.644 140.188 163.216L141.648 164.584C143.174 162.956 144.623 161.201 145.771 159.321L144.065 158.279ZM140.211 163.193C135.297 168.107 128.85 170.8 121.918 170.8V172.8C129.386 172.8 136.339 169.893 141.625 164.607L140.211 163.193ZM121.918 170.8C114.986 170.8 108.539 168.107 103.625 163.193L102.211 164.607C107.497 169.893 114.45 172.8 121.918 172.8V170.8ZM103.625 163.193C99.5777 159.145 96.9835 153.951 96.311 148.282L94.3249 148.518C95.0524 154.649 97.8583 160.255 102.211 164.607L103.625 163.193ZM95.318 149.4H159.118V147.4H95.318V149.4ZM160.114 148.491C160.214 147.39 160.318 146.15 160.318 144.9H158.318C158.318 146.05 158.222 147.21 158.122 148.309L160.114 148.491ZM160.318 144.9C160.318 123.648 143.17 106.5 121.918 106.5V108.5C142.066 108.5 158.318 124.752 158.318 144.9H160.318ZM121.918 106.5C100.666 106.5 83.518 123.648 83.518 144.9H85.518C85.518 124.752 101.77 108.5 121.918 108.5V106.5ZM83.518 144.9C83.518 166.152 100.666 183.3 121.918 183.3V181.3C101.77 181.3 85.518 165.048 85.518 144.9H83.518ZM121.918 183.3C137.731 183.3 151.285 173.749 157.137 160.094L155.299 159.306C149.751 172.251 136.905 181.3 121.918 181.3V183.3ZM121.918 119C128.85 119 135.297 121.693 140.211 126.607L141.625 125.193C136.339 119.907 129.386 117 121.918 117V119ZM140.211 126.607C143.481 129.878 145.795 134.021 146.952 138.358L148.884 137.842C147.641 133.179 145.154 128.722 141.625 125.193L140.211 126.607ZM147.918 137.1H95.918V139.1H147.918V137.1ZM96.8842 138.358C98.0407 134.021 100.354 129.878 103.625 126.607L102.211 125.193C98.6815 128.722 96.1952 133.179 94.9517 137.842L96.8842 138.358ZM103.625 126.607C108.539 121.693 114.986 119 121.918 119V117C114.45 117 107.497 119.907 102.211 125.193L103.625 126.607ZM260.01 179.8V180.8H261.01V179.8H260.01ZM260.01 138.2H261.01V137.2H260.01V138.2ZM259.91 138.2H258.91V139.2H259.91V138.2ZM259.91 137.5H260.91V136.5H259.91V137.5ZM240.31 137.5H239.31V138.5H240.31V137.5ZM240.31 110H241.31V109H240.31V110ZM200.41 110V109H199.41V110H200.41ZM200.41 179.8H199.41V180.8H200.41V179.8ZM230.01 137.5V138.5H231.01V137.5H230.01ZM210.71 137.5H209.71V138.5H210.71V137.5ZM210.71 120.3V119.3H209.71V120.3H210.71ZM230.01 120.3H231.01V119.3H230.01V120.3ZM210.71 169.5H209.71V170.5H210.71V169.5ZM210.71 147.7V146.7H209.71V147.7H210.71ZM249.71 147.7H250.71V146.7H249.71V147.7ZM249.71 169.5V170.5H250.71V169.5H249.71ZM261.01 179.8V138.2H259.01V179.8H261.01ZM260.01 137.2H259.91V139.2H260.01V137.2ZM260.91 138.2V137.5H258.91V138.2H260.91ZM259.91 136.5H240.31V138.5H259.91V136.5ZM241.31 137.5V110H239.31V137.5H241.31ZM240.31 109H200.41V111H240.31V109ZM199.41 110V179.8H201.41V110H199.41ZM200.41 180.8H260.01V178.8H200.41V180.8ZM230.01 136.5H210.71V138.5H230.01V136.5ZM211.71 137.5V120.3H209.71V137.5H211.71ZM210.71 121.3H230.01V119.3H210.71V121.3ZM229.01 120.3V137.5H231.01V120.3H229.01ZM211.71 169.5V147.7H209.71V169.5H211.71ZM210.71 148.7H249.71V146.7H210.71V148.7ZM248.71 147.7V169.5H250.71V147.7H248.71ZM249.71 168.5H210.71V170.5H249.71V168.5ZM337.761 159.7L338.68 160.094L339.229 158.814L337.84 158.703L337.761 159.7ZM326.461 158.8L326.54 157.803L325.928 157.754L325.608 158.279L326.461 158.8ZM322.461 163.9L323.168 164.607L323.179 164.596L323.19 164.584L322.461 163.9ZM284.461 163.9L285.168 163.193L285.168 163.193L284.461 163.9ZM276.861 148.4V147.4H275.735L275.868 148.518L276.861 148.4ZM340.661 148.4V149.4H341.574L341.657 148.491L340.661 148.4ZM322.461 125.9L321.754 126.607L321.754 126.607L322.461 125.9ZM329.461 138.1V139.1H330.763L330.427 137.842L329.461 138.1ZM277.461 138.1L276.495 137.842L276.159 139.1H277.461V138.1ZM284.461 125.9L285.168 126.607L285.168 126.607L284.461 125.9ZM337.84 158.703L326.54 157.803L326.382 159.797L337.682 160.697L337.84 158.703ZM325.608 158.279C324.556 159.999 323.205 161.644 321.731 163.216L323.19 164.584C324.717 162.956 326.166 161.201 327.314 159.321L325.608 158.279ZM321.754 163.193C316.84 168.107 310.393 170.8 303.461 170.8V172.8C310.929 172.8 317.882 169.893 323.168 164.607L321.754 163.193ZM303.461 170.8C296.529 170.8 290.082 168.107 285.168 163.193L283.754 164.607C289.04 169.893 295.993 172.8 303.461 172.8V170.8ZM285.168 163.193C281.121 159.145 278.527 153.951 277.854 148.282L275.868 148.518C276.595 154.649 279.401 160.255 283.754 164.607L285.168 163.193ZM276.861 149.4H340.661V147.4H276.861V149.4ZM341.657 148.491C341.757 147.39 341.861 146.15 341.861 144.9H339.861C339.861 146.05 339.765 147.21 339.665 148.309L341.657 148.491ZM341.861 144.9C341.861 123.648 324.713 106.5 303.461 106.5V108.5C323.609 108.5 339.861 124.752 339.861 144.9H341.861ZM303.461 106.5C282.209 106.5 265.061 123.648 265.061 144.9H267.061C267.061 124.752 283.313 108.5 303.461 108.5V106.5ZM265.061 144.9C265.061 166.152 282.209 183.3 303.461 183.3V181.3C283.313 181.3 267.061 165.048 267.061 144.9H265.061ZM303.461 183.3C319.274 183.3 332.828 173.749 338.68 160.094L336.842 159.306C331.294 172.251 318.448 181.3 303.461 181.3V183.3ZM303.461 119C310.393 119 316.84 121.693 321.754 126.607L323.168 125.193C317.882 119.907 310.929 117 303.461 117V119ZM321.754 126.607C325.024 129.878 327.338 134.021 328.495 138.358L330.427 137.842C329.184 133.179 326.697 128.722 323.168 125.193L321.754 126.607ZM329.461 137.1H277.461V139.1H329.461V137.1ZM278.427 138.358C279.584 134.021 281.897 129.878 285.168 126.607L283.754 125.193C280.224 128.722 277.738 133.179 276.495 137.842L278.427 138.358ZM285.168 126.607C290.082 121.693 296.529 119 303.461 119V117C295.993 117 289.04 119.907 283.754 125.193L285.168 126.607ZM358.244 170.2H357.244V171.2H358.244V170.2ZM358.244 110H359.244V109H358.244V110ZM347.744 110V109H346.744V110H347.744ZM347.744 180H346.744V181H347.744V180ZM382.044 180V181H383.044V180H382.044ZM382.044 170.2H383.044V169.2H382.044V170.2ZM359.244 170.2V110H357.244V170.2H359.244ZM358.244 109H347.744V111H358.244V109ZM346.744 110V180H348.744V110H346.744ZM347.744 181H382.044V179H347.744V181ZM383.044 180V170.2H381.044V180H383.044ZM382.044 169.2H358.244V171.2H382.044V169.2ZM407.235 120.3V119.3H406.235V120.3H407.235ZM416.335 120.3V121.3H417.335V120.3H416.335ZM416.335 110H417.335V109H416.335V110ZM388.035 110V109H387.035V110H388.035ZM388.035 120.3H387.035V121.3H388.035V120.3ZM397.235 120.3H398.235V119.3H397.235V120.3ZM397.235 170.2V171.2H398.235V170.2H397.235ZM388.035 170.2V169.2H387.035V170.2H388.035ZM388.035 180H387.035V181H388.035V180ZM416.335 180V181H417.335V180H416.335ZM416.335 170.2H417.335V169.2H416.335V170.2ZM407.235 170.2H406.235V171.2H407.235V170.2ZM407.235 121.3H416.335V119.3H407.235V121.3ZM417.335 120.3V110H415.335V120.3H417.335ZM416.335 109H388.035V111H416.335V109ZM387.035 110V120.3H389.035V110H387.035ZM388.035 121.3H397.235V119.3H388.035V121.3ZM396.235 120.3V170.2H398.235V120.3H396.235ZM397.235 169.2H388.035V171.2H397.235V169.2ZM387.035 170.2V180H389.035V170.2H387.035ZM388.035 181H416.335V179H388.035V181ZM417.335 180V170.2H415.335V180H417.335ZM416.335 169.2H407.235V171.2H416.335V169.2ZM408.235 170.2V120.3H406.235V170.2H408.235ZM489.128 159.7L490.047 160.094L490.596 158.814L489.208 158.703L489.128 159.7ZM477.828 158.8L477.908 157.803L477.295 157.754L476.975 158.279L477.828 158.8ZM473.828 163.9L474.535 164.607L474.547 164.596L474.558 164.584L473.828 163.9ZM435.828 163.9L436.535 163.193L436.535 163.193L435.828 163.9ZM428.228 148.4V147.4H427.102L427.235 148.518L428.228 148.4ZM492.028 148.4V149.4H492.941L493.024 148.491L492.028 148.4ZM473.828 125.9L473.121 126.607L473.121 126.607L473.828 125.9ZM480.828 138.1V139.1H482.13L481.794 137.842L480.828 138.1ZM428.828 138.1L427.862 137.842L427.527 139.1H428.828V138.1ZM435.828 125.9L436.535 126.607L436.535 126.607L435.828 125.9ZM489.208 158.703L477.908 157.803L477.749 159.797L489.049 160.697L489.208 158.703ZM476.975 158.279C475.923 159.999 474.572 161.644 473.099 163.216L474.558 164.584C476.084 162.956 477.533 161.201 478.681 159.321L476.975 158.279ZM473.121 163.193C468.207 168.107 461.76 170.8 454.828 170.8V172.8C462.296 172.8 469.25 169.893 474.535 164.607L473.121 163.193ZM454.828 170.8C447.896 170.8 441.45 168.107 436.535 163.193L435.121 164.607C440.407 169.893 447.36 172.8 454.828 172.8V170.8ZM436.535 163.193C432.488 159.145 429.894 153.951 429.221 148.282L427.235 148.518C427.963 154.649 430.768 160.255 435.121 164.607L436.535 163.193ZM428.228 149.4H492.028V147.4H428.228V149.4ZM493.024 148.491C493.124 147.39 493.228 146.15 493.228 144.9H491.228C491.228 146.05 491.132 147.21 491.032 148.309L493.024 148.491ZM493.228 144.9C493.228 123.648 476.08 106.5 454.828 106.5V108.5C474.976 108.5 491.228 124.752 491.228 144.9H493.228ZM454.828 106.5C433.576 106.5 416.428 123.648 416.428 144.9H418.428C418.428 124.752 434.68 108.5 454.828 108.5V106.5ZM416.428 144.9C416.428 166.152 433.576 183.3 454.828 183.3V181.3C434.68 181.3 418.428 165.048 418.428 144.9H416.428ZM454.828 183.3C470.642 183.3 484.195 173.749 490.047 160.094L488.209 159.306C482.661 172.251 469.815 181.3 454.828 181.3V183.3ZM454.828 119C461.76 119 468.207 121.693 473.121 126.607L474.535 125.193C469.25 119.907 462.296 117 454.828 117V119ZM473.121 126.607C476.392 129.878 478.705 134.021 479.862 138.358L481.794 137.842C480.551 133.179 478.065 128.722 474.535 125.193L473.121 126.607ZM480.828 137.1H428.828V139.1H480.828V137.1ZM429.794 138.358C430.951 134.021 433.265 129.878 436.535 126.607L435.121 125.193C431.592 128.722 429.105 133.179 427.862 137.842L429.794 138.358ZM436.535 126.607C441.45 121.693 447.896 119 454.828 119V117C447.36 117 440.407 119.907 435.121 125.193L436.535 126.607ZM530.532 110V109H529.671L529.543 109.851L530.532 110ZM521.532 169.7V170.7H522.393L522.521 169.849L521.532 169.7ZM515.032 169.7L514.046 169.865L514.186 170.7H515.032V169.7ZM505.032 110L506.018 109.835L505.878 109H505.032V110ZM494.832 110V109H493.679L493.842 110.141L494.832 110ZM504.832 180L503.842 180.141L503.965 181H504.832V180ZM531.832 180V181H532.712L532.824 180.128L531.832 180ZM540.832 110L541.824 110.128L541.969 109H540.832V110ZM529.543 109.851L520.543 169.551L522.521 169.849L531.521 110.149L529.543 109.851ZM521.532 168.7H515.032V170.7H521.532V168.7ZM516.018 169.535L506.018 109.835L504.046 110.165L514.046 169.865L516.018 169.535ZM505.032 109H494.832V111H505.032V109ZM493.842 110.141L503.842 180.141L505.822 179.859L495.822 109.859L493.842 110.141ZM504.832 181H531.832V179H504.832V181ZM532.824 180.128L541.824 110.128L539.84 109.872L530.84 179.872L532.824 180.128ZM540.832 109H530.532V111H540.832V109ZM618.132 159.7L619.051 160.094L619.6 158.814L618.211 158.703L618.132 159.7ZM606.832 158.8L606.911 157.803L606.299 157.754L605.979 158.279L606.832 158.8ZM602.832 163.9L603.539 164.607L603.551 164.596L603.562 164.584L602.832 163.9ZM564.832 163.9L565.539 163.193L565.539 163.193L564.832 163.9ZM557.232 148.4V147.4H556.106L556.239 148.518L557.232 148.4ZM621.032 148.4V149.4H621.945L622.028 148.491L621.032 148.4ZM602.832 125.9L602.125 126.607L602.125 126.607L602.832 125.9ZM609.832 138.1V139.1H611.134L610.798 137.842L609.832 138.1ZM557.832 138.1L556.866 137.842L556.53 139.1H557.832V138.1ZM564.832 125.9L565.539 126.607L565.539 126.607L564.832 125.9ZM618.211 158.703L606.911 157.803L606.753 159.797L618.053 160.697L618.211 158.703ZM605.979 158.279C604.927 159.999 603.576 161.644 602.102 163.216L603.562 164.584C605.088 162.956 606.537 161.201 607.685 159.321L605.979 158.279ZM602.125 163.193C597.211 168.107 590.764 170.8 583.832 170.8V172.8C591.3 172.8 598.253 169.893 603.539 164.607L602.125 163.193ZM583.832 170.8C576.9 170.8 570.453 168.107 565.539 163.193L564.125 164.607C569.411 169.893 576.364 172.8 583.832 172.8V170.8ZM565.539 163.193C561.492 159.145 558.898 153.951 558.225 148.282L556.239 148.518C556.966 154.649 559.772 160.255 564.125 164.607L565.539 163.193ZM557.232 149.4H621.032V147.4H557.232V149.4ZM622.028 148.491C622.128 147.39 622.232 146.15 622.232 144.9H620.232C620.232 146.05 620.136 147.21 620.036 148.309L622.028 148.491ZM622.232 144.9C622.232 123.648 605.084 106.5 583.832 106.5V108.5C603.98 108.5 620.232 124.752 620.232 144.9H622.232ZM583.832 106.5C562.58 106.5 545.432 123.648 545.432 144.9H547.432C547.432 124.752 563.684 108.5 583.832 108.5V106.5ZM545.432 144.9C545.432 166.152 562.58 183.3 583.832 183.3V181.3C563.684 181.3 547.432 165.048 547.432 144.9H545.432ZM583.832 183.3C599.645 183.3 613.199 173.749 619.051 160.094L617.213 159.306C611.665 172.251 598.819 181.3 583.832 181.3V183.3ZM583.832 119C590.764 119 597.211 121.693 602.125 126.607L603.539 125.193C598.253 119.907 591.3 117 583.832 117V119ZM602.125 126.607C605.396 129.878 607.709 134.021 608.866 138.358L610.798 137.842C609.555 133.179 607.069 128.722 603.539 125.193L602.125 126.607ZM609.832 137.1H557.832V139.1H609.832V137.1ZM558.798 138.358C559.955 134.021 562.269 129.878 565.539 126.607L564.125 125.193C560.596 128.722 558.109 133.179 556.866 137.842L558.798 138.358ZM565.539 126.607C570.453 121.693 576.9 119 583.832 119V117C576.364 117 569.411 119.907 564.125 125.193L565.539 126.607Z" fill="black"/>
<path d="M53.8 110L54.7934 109.886L54.6915 109H53.8V110ZM29.9 110V109H29.0118L28.907 109.882L29.9 110ZM22.7 170.6V171.6H23.5882L23.693 170.718L22.7 170.6ZM16.8 170.6L15.8 170.597L15.7967 171.6H16.8V170.6ZM17 110L18 110.003L18.0033 109H17V110ZM6 110V109H5V110H6ZM6 180H5V181H6V180ZM32.3 180V181H33.1982L33.2943 180.107L32.3 180ZM38.8 119.6V118.6H37.9018L37.8057 119.493L38.8 119.6ZM44.6 119.6L45.5943 119.493L45.4982 118.6H44.6V119.6ZM51.1 180L50.1057 180.107L50.2018 181H51.1V180ZM77.4 180V181H78.4V180H77.4ZM77.4 110H78.4V109H77.4V110ZM66.8 110V109H65.8V110H66.8ZM66.8 170.8V171.8H67.8V170.8H66.8ZM60.8 170.8L59.8066 170.914L59.9085 171.8H60.8V170.8ZM53.8 109H29.9V111H53.8V109ZM28.907 109.882L21.707 170.482L23.693 170.718L30.893 110.118L28.907 109.882ZM22.7 169.6H16.8V171.6H22.7V169.6ZM17.8 170.603L18 110.003L16 109.997L15.8 170.597L17.8 170.603ZM17 109H6V111H17V109ZM5 110V180H7V110H5ZM6 181H32.3V179H6V181ZM33.2943 180.107L39.7943 119.707L37.8057 119.493L31.3057 179.893L33.2943 180.107ZM38.8 120.6H44.6V118.6H38.8V120.6ZM43.6057 119.707L50.1057 180.107L52.0943 179.893L45.5943 119.493L43.6057 119.707ZM51.1 181H77.4V179H51.1V181ZM78.4 180V110H76.4V180H78.4ZM77.4 109H66.8V111H77.4V109ZM65.8 110V170.8H67.8V110H65.8ZM66.8 169.8H60.8V171.8H66.8V169.8ZM61.7934 170.686L54.7934 109.886L52.8066 110.114L59.8066 170.914L61.7934 170.686ZM156.218 159.7L157.137 160.094L157.686 158.814L156.297 158.703L156.218 159.7ZM144.918 158.8L144.997 157.803L144.385 157.754L144.065 158.279L144.918 158.8ZM140.918 163.9L141.625 164.607L141.636 164.596L141.648 164.584L140.918 163.9ZM102.918 163.9L103.625 163.193L103.625 163.193L102.918 163.9ZM95.318 148.4V147.4H94.1923L94.3249 148.518L95.318 148.4ZM159.118 148.4V149.4H160.031L160.114 148.491L159.118 148.4ZM140.918 125.9L140.211 126.607L140.211 126.607L140.918 125.9ZM147.918 138.1V139.1H149.22L148.884 137.842L147.918 138.1ZM95.918 138.1L94.9517 137.842L94.6164 139.1H95.918V138.1ZM102.918 125.9L103.625 126.607L103.625 126.607L102.918 125.9ZM156.297 158.703L144.997 157.803L144.839 159.797L156.139 160.697L156.297 158.703ZM144.065 158.279C143.013 159.999 141.662 161.644 140.188 163.216L141.648 164.584C143.174 162.956 144.623 161.201 145.771 159.321L144.065 158.279ZM140.211 163.193C135.297 168.107 128.85 170.8 121.918 170.8V172.8C129.386 172.8 136.339 169.893 141.625 164.607L140.211 163.193ZM121.918 170.8C114.986 170.8 108.539 168.107 103.625 163.193L102.211 164.607C107.497 169.893 114.45 172.8 121.918 172.8V170.8ZM103.625 163.193C99.5777 159.145 96.9835 153.951 96.311 148.282L94.3249 148.518C95.0524 154.649 97.8583 160.255 102.211 164.607L103.625 163.193ZM95.318 149.4H159.118V147.4H95.318V149.4ZM160.114 148.491C160.214 147.39 160.318 146.15 160.318 144.9H158.318C158.318 146.05 158.222 147.21 158.122 148.309L160.114 148.491ZM160.318 144.9C160.318 123.648 143.17 106.5 121.918 106.5V108.5C142.066 108.5 158.318 124.752 158.318 144.9H160.318ZM121.918 106.5C100.666 106.5 83.518 123.648 83.518 144.9H85.518C85.518 124.752 101.77 108.5 121.918 108.5V106.5ZM83.518 144.9C83.518 166.152 100.666 183.3 121.918 183.3V181.3C101.77 181.3 85.518 165.048 85.518 144.9H83.518ZM121.918 183.3C137.731 183.3 151.285 173.749 157.137 160.094L155.299 159.306C149.751 172.251 136.905 181.3 121.918 181.3V183.3ZM121.918 119C128.85 119 135.297 121.693 140.211 126.607L141.625 125.193C136.339 119.907 129.386 117 121.918 117V119ZM140.211 126.607C143.481 129.878 145.795 134.021 146.952 138.358L148.884 137.842C147.641 133.179 145.154 128.722 141.625 125.193L140.211 126.607ZM147.918 137.1H95.918V139.1H147.918V137.1ZM96.8842 138.358C98.0407 134.021 100.354 129.878 103.625 126.607L102.211 125.193C98.6815 128.722 96.1952 133.179 94.9517 137.842L96.8842 138.358ZM103.625 126.607C108.539 121.693 114.986 119 121.918 119V117C114.45 117 107.497 119.907 102.211 125.193L103.625 126.607ZM260.01 179.8V180.8H261.01V179.8H260.01ZM260.01 138.2H261.01V137.2H260.01V138.2ZM259.91 138.2H258.91V139.2H259.91V138.2ZM259.91 137.5H260.91V136.5H259.91V137.5ZM240.31 137.5H239.31V138.5H240.31V137.5ZM240.31 110H241.31V109H240.31V110ZM200.41 110V109H199.41V110H200.41ZM200.41 179.8H199.41V180.8H200.41V179.8ZM230.01 137.5V138.5H231.01V137.5H230.01ZM210.71 137.5H209.71V138.5H210.71V137.5ZM210.71 120.3V119.3H209.71V120.3H210.71ZM230.01 120.3H231.01V119.3H230.01V120.3ZM210.71 169.5H209.71V170.5H210.71V169.5ZM210.71 147.7V146.7H209.71V147.7H210.71ZM249.71 147.7H250.71V146.7H249.71V147.7ZM249.71 169.5V170.5H250.71V169.5H249.71ZM261.01 179.8V138.2H259.01V179.8H261.01ZM260.01 137.2H259.91V139.2H260.01V137.2ZM260.91 138.2V137.5H258.91V138.2H260.91ZM259.91 136.5H240.31V138.5H259.91V136.5ZM241.31 137.5V110H239.31V137.5H241.31ZM240.31 109H200.41V111H240.31V109ZM199.41 110V179.8H201.41V110H199.41ZM200.41 180.8H260.01V178.8H200.41V180.8ZM230.01 136.5H210.71V138.5H230.01V136.5ZM211.71 137.5V120.3H209.71V137.5H211.71ZM210.71 121.3H230.01V119.3H210.71V121.3ZM229.01 120.3V137.5H231.01V120.3H229.01ZM211.71 169.5V147.7H209.71V169.5H211.71ZM210.71 148.7H249.71V146.7H210.71V148.7ZM248.71 147.7V169.5H250.71V147.7H248.71ZM249.71 168.5H210.71V170.5H249.71V168.5ZM337.761 159.7L338.68 160.094L339.229 158.814L337.84 158.703L337.761 159.7ZM326.461 158.8L326.54 157.803L325.928 157.754L325.608 158.279L326.461 158.8ZM322.461 163.9L323.168 164.607L323.179 164.596L323.19 164.584L322.461 163.9ZM284.461 163.9L285.168 163.193L285.168 163.193L284.461 163.9ZM276.861 148.4V147.4H275.735L275.868 148.518L276.861 148.4ZM340.661 148.4V149.4H341.574L341.657 148.491L340.661 148.4ZM322.461 125.9L321.754 126.607L321.754 126.607L322.461 125.9ZM329.461 138.1V139.1H330.763L330.427 137.842L329.461 138.1ZM277.461 138.1L276.495 137.842L276.159 139.1H277.461V138.1ZM284.461 125.9L285.168 126.607L285.168 126.607L284.461 125.9ZM337.84 158.703L326.54 157.803L326.382 159.797L337.682 160.697L337.84 158.703ZM325.608 158.279C324.556 159.999 323.205 161.644 321.731 163.216L323.19 164.584C324.717 162.956 326.166 161.201 327.314 159.321L325.608 158.279ZM321.754 163.193C316.84 168.107 310.393 170.8 303.461 170.8V172.8C310.929 172.8 317.882 169.893 323.168 164.607L321.754 163.193ZM303.461 170.8C296.529 170.8 290.082 168.107 285.168 163.193L283.754 164.607C289.04 169.893 295.993 172.8 303.461 172.8V170.8ZM285.168 163.193C281.121 159.145 278.527 153.951 277.854 148.282L275.868 148.518C276.595 154.649 279.401 160.255 283.754 164.607L285.168 163.193ZM276.861 149.4H340.661V147.4H276.861V149.4ZM341.657 148.491C341.757 147.39 341.861 146.15 341.861 144.9H339.861C339.861 146.05 339.765 147.21 339.665 148.309L341.657 148.491ZM341.861 144.9C341.861 123.648 324.713 106.5 303.461 106.5V108.5C323.609 108.5 339.861 124.752 339.861 144.9H341.861ZM303.461 106.5C282.209 106.5 265.061 123.648 265.061 144.9H267.061C267.061 124.752 283.313 108.5 303.461 108.5V106.5ZM265.061 144.9C265.061 166.152 282.209 183.3 303.461 183.3V181.3C283.313 181.3 267.061 165.048 267.061 144.9H265.061ZM303.461 183.3C319.274 183.3 332.828 173.749 338.68 160.094L336.842 159.306C331.294 172.251 318.448 181.3 303.461 181.3V183.3ZM303.461 119C310.393 119 316.84 121.693 321.754 126.607L323.168 125.193C317.882 119.907 310.929 117 303.461 117V119ZM321.754 126.607C325.024 129.878 327.338 134.021 328.495 138.358L330.427 137.842C329.184 133.179 326.697 128.722 323.168 125.193L321.754 126.607ZM329.461 137.1H277.461V139.1H329.461V137.1ZM278.427 138.358C279.584 134.021 281.897 129.878 285.168 126.607L283.754 125.193C280.224 128.722 277.738 133.179 276.495 137.842L278.427 138.358ZM285.168 126.607C290.082 121.693 296.529 119 303.461 119V117C295.993 117 289.04 119.907 283.754 125.193L285.168 126.607ZM358.244 170.2H357.244V171.2H358.244V170.2ZM358.244 110H359.244V109H358.244V110ZM347.744 110V109H346.744V110H347.744ZM347.744 180H346.744V181H347.744V180ZM382.044 180V181H383.044V180H382.044ZM382.044 170.2H383.044V169.2H382.044V170.2ZM359.244 170.2V110H357.244V170.2H359.244ZM358.244 109H347.744V111H358.244V109ZM346.744 110V180H348.744V110H346.744ZM347.744 181H382.044V179H347.744V181ZM383.044 180V170.2H381.044V180H383.044ZM382.044 169.2H358.244V171.2H382.044V169.2ZM407.235 120.3V119.3H406.235V120.3H407.235ZM416.335 120.3V121.3H417.335V120.3H416.335ZM416.335 110H417.335V109H416.335V110ZM388.035 110V109H387.035V110H388.035ZM388.035 120.3H387.035V121.3H388.035V120.3ZM397.235 120.3H398.235V119.3H397.235V120.3ZM397.235 170.2V171.2H398.235V170.2H397.235ZM388.035 170.2V169.2H387.035V170.2H388.035ZM388.035 180H387.035V181H388.035V180ZM416.335 180V181H417.335V180H416.335ZM416.335 170.2H417.335V169.2H416.335V170.2ZM407.235 170.2H406.235V171.2H407.235V170.2ZM407.235 121.3H416.335V119.3H407.235V121.3ZM417.335 120.3V110H415.335V120.3H417.335ZM416.335 109H388.035V111H416.335V109ZM387.035 110V120.3H389.035V110H387.035ZM388.035 121.3H397.235V119.3H388.035V121.3ZM396.235 120.3V170.2H398.235V120.3H396.235ZM397.235 169.2H388.035V171.2H397.235V169.2ZM387.035 170.2V180H389.035V170.2H387.035ZM388.035 181H416.335V179H388.035V181ZM417.335 180V170.2H415.335V180H417.335ZM416.335 169.2H407.235V171.2H416.335V169.2ZM408.235 170.2V120.3H406.235V170.2H408.235ZM489.128 159.7L490.047 160.094L490.596 158.814L489.208 158.703L489.128 159.7ZM477.828 158.8L477.908 157.803L477.295 157.754L476.975 158.279L477.828 158.8ZM473.828 163.9L474.535 164.607L474.547 164.596L474.558 164.584L473.828 163.9ZM435.828 163.9L436.535 163.193L436.535 163.193L435.828 163.9ZM428.228 148.4V147.4H427.102L427.235 148.518L428.228 148.4ZM492.028 148.4V149.4H492.941L493.024 148.491L492.028 148.4ZM473.828 125.9L473.121 126.607L473.121 126.607L473.828 125.9ZM480.828 138.1V139.1H482.13L481.794 137.842L480.828 138.1ZM428.828 138.1L427.862 137.842L427.527 139.1H428.828V138.1ZM435.828 125.9L436.535 126.607L436.535 126.607L435.828 125.9ZM489.208 158.703L477.908 157.803L477.749 159.797L489.049 160.697L489.208 158.703ZM476.975 158.279C475.923 159.999 474.572 161.644 473.099 163.216L474.558 164.584C476.084 162.956 477.533 161.201 478.681 159.321L476.975 158.279ZM473.121 163.193C468.207 168.107 461.76 170.8 454.828 170.8V172.8C462.296 172.8 469.25 169.893 474.535 164.607L473.121 163.193ZM454.828 170.8C447.896 170.8 441.45 168.107 436.535 163.193L435.121 164.607C440.407 169.893 447.36 172.8 454.828 172.8V170.8ZM436.535 163.193C432.488 159.145 429.894 153.951 429.221 148.282L427.235 148.518C427.963 154.649 430.768 160.255 435.121 164.607L436.535 163.193ZM428.228 149.4H492.028V147.4H428.228V149.4ZM493.024 148.491C493.124 147.39 493.228 146.15 493.228 144.9H491.228C491.228 146.05 491.132 147.21 491.032 148.309L493.024 148.491ZM493.228 144.9C493.228 123.648 476.08 106.5 454.828 106.5V108.5C474.976 108.5 491.228 124.752 491.228 144.9H493.228ZM454.828 106.5C433.576 106.5 416.428 123.648 416.428 144.9H418.428C418.428 124.752 434.68 108.5 454.828 108.5V106.5ZM416.428 144.9C416.428 166.152 433.576 183.3 454.828 183.3V181.3C434.68 181.3 418.428 165.048 418.428 144.9H416.428ZM454.828 183.3C470.642 183.3 484.195 173.749 490.047 160.094L488.209 159.306C482.661 172.251 469.815 181.3 454.828 181.3V183.3ZM454.828 119C461.76 119 468.207 121.693 473.121 126.607L474.535 125.193C469.25 119.907 462.296 117 454.828 117V119ZM473.121 126.607C476.392 129.878 478.705 134.021 479.862 138.358L481.794 137.842C480.551 133.179 478.065 128.722 474.535 125.193L473.121 126.607ZM480.828 137.1H428.828V139.1H480.828V137.1ZM429.794 138.358C430.951 134.021 433.265 129.878 436.535 126.607L435.121 125.193C431.592 128.722 429.105 133.179 427.862 137.842L429.794 138.358ZM436.535 126.607C441.45 121.693 447.896 119 454.828 119V117C447.36 117 440.407 119.907 435.121 125.193L436.535 126.607ZM530.532 110V109H529.671L529.543 109.851L530.532 110ZM521.532 169.7V170.7H522.393L522.521 169.849L521.532 169.7ZM515.032 169.7L514.046 169.865L514.186 170.7H515.032V169.7ZM505.032 110L506.018 109.835L505.878 109H505.032V110ZM494.832 110V109H493.679L493.842 110.141L494.832 110ZM504.832 180L503.842 180.141L503.965 181H504.832V180ZM531.832 180V181H532.712L532.824 180.128L531.832 180ZM540.832 110L541.824 110.128L541.969 109H540.832V110ZM529.543 109.851L520.543 169.551L522.521 169.849L531.521 110.149L529.543 109.851ZM521.532 168.7H515.032V170.7H521.532V168.7ZM516.018 169.535L506.018 109.835L504.046 110.165L514.046 169.865L516.018 169.535ZM505.032 109H494.832V111H505.032V109ZM493.842 110.141L503.842 180.141L505.822 179.859L495.822 109.859L493.842 110.141ZM504.832 181H531.832V179H504.832V181ZM532.824 180.128L541.824 110.128L539.84 109.872L530.84 179.872L532.824 180.128ZM540.832 109H530.532V111H540.832V109ZM618.132 159.7L619.051 160.094L619.6 158.814L618.211 158.703L618.132 159.7ZM606.832 158.8L606.911 157.803L606.299 157.754L605.979 158.279L606.832 158.8ZM602.832 163.9L603.539 164.607L603.551 164.596L603.562 164.584L602.832 163.9ZM564.832 163.9L565.539 163.193L565.539 163.193L564.832 163.9ZM557.232 148.4V147.4H556.106L556.239 148.518L557.232 148.4ZM621.032 148.4V149.4H621.945L622.028 148.491L621.032 148.4ZM602.832 125.9L602.125 126.607L602.125 126.607L602.832 125.9ZM609.832 138.1V139.1H611.134L610.798 137.842L609.832 138.1ZM557.832 138.1L556.866 137.842L556.53 139.1H557.832V138.1ZM564.832 125.9L565.539 126.607L565.539 126.607L564.832 125.9ZM618.211 158.703L606.911 157.803L606.753 159.797L618.053 160.697L618.211 158.703ZM605.979 158.279C604.927 159.999 603.576 161.644 602.102 163.216L603.562 164.584C605.088 162.956 606.537 161.201 607.685 159.321L605.979 158.279ZM602.125 163.193C597.211 168.107 590.764 170.8 583.832 170.8V172.8C591.3 172.8 598.253 169.893 603.539 164.607L602.125 163.193ZM583.832 170.8C576.9 170.8 570.453 168.107 565.539 163.193L564.125 164.607C569.411 169.893 576.364 172.8 583.832 172.8V170.8ZM565.539 163.193C561.492 159.145 558.898 153.951 558.225 148.282L556.239 148.518C556.966 154.649 559.772 160.255 564.125 164.607L565.539 163.193ZM557.232 149.4H621.032V147.4H557.232V149.4ZM622.028 148.491C622.128 147.39 622.232 146.15 622.232 144.9H620.232C620.232 146.05 620.136 147.21 620.036 148.309L622.028 148.491ZM622.232 144.9C622.232 123.648 605.084 106.5 583.832 106.5V108.5C603.98 108.5 620.232 124.752 620.232 144.9H622.232ZM583.832 106.5C562.58 106.5 545.432 123.648 545.432 144.9H547.432C547.432 124.752 563.684 108.5 583.832 108.5V106.5ZM545.432 144.9C545.432 166.152 562.58 183.3 583.832 183.3V181.3C563.684 181.3 547.432 165.048 547.432 144.9H545.432ZM583.832 183.3C599.645 183.3 613.199 173.749 619.051 160.094L617.213 159.306C611.665 172.251 598.819 181.3 583.832 181.3V183.3ZM583.832 119C590.764 119 597.211 121.693 602.125 126.607L603.539 125.193C598.253 119.907 591.3 117 583.832 117V119ZM602.125 126.607C605.396 129.878 607.709 134.021 608.866 138.358L610.798 137.842C609.555 133.179 607.069 128.722 603.539 125.193L602.125 126.607ZM609.832 137.1H557.832V139.1H609.832V137.1ZM558.798 138.358C559.955 134.021 562.269 129.878 565.539 126.607L564.125 125.193C560.596 128.722 558.109 133.179 556.866 137.842L558.798 138.358ZM565.539 126.607C570.453 121.693 576.9 119 583.832 119V117C576.364 117 569.411 119.907 564.125 125.193L565.539 126.607Z" fill="url(#paint1_linear)"/>
</g>
<g opacity="0.1">
<path d="M53.8 208L54.7934 207.886L54.6915 207H53.8V208ZM29.9 208V207H29.0118L28.907 207.882L29.9 208ZM22.7 268.6V269.6H23.5882L23.693 268.718L22.7 268.6ZM16.8 268.6L15.8 268.597L15.7967 269.6H16.8V268.6ZM17 208L18 208.003L18.0033 207H17V208ZM6 208V207H5V208H6ZM6 278H5V279H6V278ZM32.3 278V279H33.1982L33.2943 278.107L32.3 278ZM38.8 217.6V216.6H37.9018L37.8057 217.493L38.8 217.6ZM44.6 217.6L45.5943 217.493L45.4982 216.6H44.6V217.6ZM51.1 278L50.1057 278.107L50.2018 279H51.1V278ZM77.4 278V279H78.4V278H77.4ZM77.4 208H78.4V207H77.4V208ZM66.8 208V207H65.8V208H66.8ZM66.8 268.8V269.8H67.8V268.8H66.8ZM60.8 268.8L59.8066 268.914L59.9085 269.8H60.8V268.8ZM53.8 207H29.9V209H53.8V207ZM28.907 207.882L21.707 268.482L23.693 268.718L30.893 208.118L28.907 207.882ZM22.7 267.6H16.8V269.6H22.7V267.6ZM17.8 268.603L18 208.003L16 207.997L15.8 268.597L17.8 268.603ZM17 207H6V209H17V207ZM5 208V278H7V208H5ZM6 279H32.3V277H6V279ZM33.2943 278.107L39.7943 217.707L37.8057 217.493L31.3057 277.893L33.2943 278.107ZM38.8 218.6H44.6V216.6H38.8V218.6ZM43.6057 217.707L50.1057 278.107L52.0943 277.893L45.5943 217.493L43.6057 217.707ZM51.1 279H77.4V277H51.1V279ZM78.4 278V208H76.4V278H78.4ZM77.4 207H66.8V209H77.4V207ZM65.8 208V268.8H67.8V208H65.8ZM66.8 267.8H60.8V269.8H66.8V267.8ZM61.7934 268.686L54.7934 207.886L52.8066 208.114L59.8066 268.914L61.7934 268.686ZM156.218 257.7L157.137 258.094L157.686 256.814L156.297 256.703L156.218 257.7ZM144.918 256.8L144.997 255.803L144.385 255.754L144.065 256.279L144.918 256.8ZM140.918 261.9L141.625 262.607L141.636 262.596L141.648 262.584L140.918 261.9ZM102.918 261.9L103.625 261.193L103.625 261.193L102.918 261.9ZM95.318 246.4V245.4H94.1923L94.3249 246.518L95.318 246.4ZM159.118 246.4V247.4H160.031L160.114 246.491L159.118 246.4ZM140.918 223.9L140.211 224.607L140.211 224.607L140.918 223.9ZM147.918 236.1V237.1H149.22L148.884 235.842L147.918 236.1ZM95.918 236.1L94.9517 235.842L94.6164 237.1H95.918V236.1ZM102.918 223.9L103.625 224.607L103.625 224.607L102.918 223.9ZM156.297 256.703L144.997 255.803L144.839 257.797L156.139 258.697L156.297 256.703ZM144.065 256.279C143.013 257.999 141.662 259.644 140.188 261.216L141.648 262.584C143.174 260.956 144.623 259.201 145.771 257.321L144.065 256.279ZM140.211 261.193C135.297 266.107 128.85 268.8 121.918 268.8V270.8C129.386 270.8 136.339 267.893 141.625 262.607L140.211 261.193ZM121.918 268.8C114.986 268.8 108.539 266.107 103.625 261.193L102.211 262.607C107.497 267.893 114.45 270.8 121.918 270.8V268.8ZM103.625 261.193C99.5777 257.145 96.9835 251.951 96.311 246.282L94.3249 246.518C95.0524 252.649 97.8583 258.255 102.211 262.607L103.625 261.193ZM95.318 247.4H159.118V245.4H95.318V247.4ZM160.114 246.491C160.214 245.39 160.318 244.15 160.318 242.9H158.318C158.318 244.05 158.222 245.21 158.122 246.309L160.114 246.491ZM160.318 242.9C160.318 221.648 143.17 204.5 121.918 204.5V206.5C142.066 206.5 158.318 222.752 158.318 242.9H160.318ZM121.918 204.5C100.666 204.5 83.518 221.648 83.518 242.9H85.518C85.518 222.752 101.77 206.5 121.918 206.5V204.5ZM83.518 242.9C83.518 264.152 100.666 281.3 121.918 281.3V279.3C101.77 279.3 85.518 263.048 85.518 242.9H83.518ZM121.918 281.3C137.731 281.3 151.285 271.749 157.137 258.094L155.299 257.306C149.751 270.251 136.905 279.3 121.918 279.3V281.3ZM121.918 217C128.85 217 135.297 219.693 140.211 224.607L141.625 223.193C136.339 217.907 129.386 215 121.918 215V217ZM140.211 224.607C143.481 227.878 145.795 232.021 146.952 236.358L148.884 235.842C147.641 231.179 145.154 226.722 141.625 223.193L140.211 224.607ZM147.918 235.1H95.918V237.1H147.918V235.1ZM96.8842 236.358C98.0407 232.021 100.354 227.878 103.625 224.607L102.211 223.193C98.6815 226.722 96.1952 231.179 94.9517 235.842L96.8842 236.358ZM103.625 224.607C108.539 219.693 114.986 217 121.918 217V215C114.45 215 107.497 217.907 102.211 223.193L103.625 224.607ZM260.01 277.8V278.8H261.01V277.8H260.01ZM260.01 236.2H261.01V235.2H260.01V236.2ZM259.91 236.2H258.91V237.2H259.91V236.2ZM259.91 235.5H260.91V234.5H259.91V235.5ZM240.31 235.5H239.31V236.5H240.31V235.5ZM240.31 208H241.31V207H240.31V208ZM200.41 208V207H199.41V208H200.41ZM200.41 277.8H199.41V278.8H200.41V277.8ZM230.01 235.5V236.5H231.01V235.5H230.01ZM210.71 235.5H209.71V236.5H210.71V235.5ZM210.71 218.3V217.3H209.71V218.3H210.71ZM230.01 218.3H231.01V217.3H230.01V218.3ZM210.71 267.5H209.71V268.5H210.71V267.5ZM210.71 245.7V244.7H209.71V245.7H210.71ZM249.71 245.7H250.71V244.7H249.71V245.7ZM249.71 267.5V268.5H250.71V267.5H249.71ZM261.01 277.8V236.2H259.01V277.8H261.01ZM260.01 235.2H259.91V237.2H260.01V235.2ZM260.91 236.2V235.5H258.91V236.2H260.91ZM259.91 234.5H240.31V236.5H259.91V234.5ZM241.31 235.5V208H239.31V235.5H241.31ZM240.31 207H200.41V209H240.31V207ZM199.41 208V277.8H201.41V208H199.41ZM200.41 278.8H260.01V276.8H200.41V278.8ZM230.01 234.5H210.71V236.5H230.01V234.5ZM211.71 235.5V218.3H209.71V235.5H211.71ZM210.71 219.3H230.01V217.3H210.71V219.3ZM229.01 218.3V235.5H231.01V218.3H229.01ZM211.71 267.5V245.7H209.71V267.5H211.71ZM210.71 246.7H249.71V244.7H210.71V246.7ZM248.71 245.7V267.5H250.71V245.7H248.71ZM249.71 266.5H210.71V268.5H249.71V266.5ZM337.761 257.7L338.68 258.094L339.229 256.814L337.84 256.703L337.761 257.7ZM326.461 256.8L326.54 255.803L325.928 255.754L325.608 256.279L326.461 256.8ZM322.461 261.9L323.168 262.607L323.179 262.596L323.19 262.584L322.461 261.9ZM284.461 261.9L285.168 261.193L285.168 261.193L284.461 261.9ZM276.861 246.4V245.4H275.735L275.868 246.518L276.861 246.4ZM340.661 246.4V247.4H341.574L341.657 246.491L340.661 246.4ZM322.461 223.9L321.754 224.607L321.754 224.607L322.461 223.9ZM329.461 236.1V237.1H330.763L330.427 235.842L329.461 236.1ZM277.461 236.1L276.495 235.842L276.159 237.1H277.461V236.1ZM284.461 223.9L285.168 224.607L285.168 224.607L284.461 223.9ZM337.84 256.703L326.54 255.803L326.382 257.797L337.682 258.697L337.84 256.703ZM325.608 256.279C324.556 257.999 323.205 259.644 321.731 261.216L323.19 262.584C324.717 260.956 326.166 259.201 327.314 257.321L325.608 256.279ZM321.754 261.193C316.84 266.107 310.393 268.8 303.461 268.8V270.8C310.929 270.8 317.882 267.893 323.168 262.607L321.754 261.193ZM303.461 268.8C296.529 268.8 290.082 266.107 285.168 261.193L283.754 262.607C289.04 267.893 295.993 270.8 303.461 270.8V268.8ZM285.168 261.193C281.121 257.145 278.527 251.951 277.854 246.282L275.868 246.518C276.595 252.649 279.401 258.255 283.754 262.607L285.168 261.193ZM276.861 247.4H340.661V245.4H276.861V247.4ZM341.657 246.491C341.757 245.39 341.861 244.15 341.861 242.9H339.861C339.861 244.05 339.765 245.21 339.665 246.309L341.657 246.491ZM341.861 242.9C341.861 221.648 324.713 204.5 303.461 204.5V206.5C323.609 206.5 339.861 222.752 339.861 242.9H341.861ZM303.461 204.5C282.209 204.5 265.061 221.648 265.061 242.9H267.061C267.061 222.752 283.313 206.5 303.461 206.5V204.5ZM265.061 242.9C265.061 264.152 282.209 281.3 303.461 281.3V279.3C283.313 279.3 267.061 263.048 267.061 242.9H265.061ZM303.461 281.3C319.274 281.3 332.828 271.749 338.68 258.094L336.842 257.306C331.294 270.251 318.448 279.3 303.461 279.3V281.3ZM303.461 217C310.393 217 316.84 219.693 321.754 224.607L323.168 223.193C317.882 217.907 310.929 215 303.461 215V217ZM321.754 224.607C325.024 227.878 327.338 232.021 328.495 236.358L330.427 235.842C329.184 231.179 326.697 226.722 323.168 223.193L321.754 224.607ZM329.461 235.1H277.461V237.1H329.461V235.1ZM278.427 236.358C279.584 232.021 281.897 227.878 285.168 224.607L283.754 223.193C280.224 226.722 277.738 231.179 276.495 235.842L278.427 236.358ZM285.168 224.607C290.082 219.693 296.529 217 303.461 217V215C295.993 215 289.04 217.907 283.754 223.193L285.168 224.607ZM358.244 268.2H357.244V269.2H358.244V268.2ZM358.244 208H359.244V207H358.244V208ZM347.744 208V207H346.744V208H347.744ZM347.744 278H346.744V279H347.744V278ZM382.044 278V279H383.044V278H382.044ZM382.044 268.2H383.044V267.2H382.044V268.2ZM359.244 268.2V208H357.244V268.2H359.244ZM358.244 207H347.744V209H358.244V207ZM346.744 208V278H348.744V208H346.744ZM347.744 279H382.044V277H347.744V279ZM383.044 278V268.2H381.044V278H383.044ZM382.044 267.2H358.244V269.2H382.044V267.2ZM407.235 218.3V217.3H406.235V218.3H407.235ZM416.335 218.3V219.3H417.335V218.3H416.335ZM416.335 208H417.335V207H416.335V208ZM388.035 208V207H387.035V208H388.035ZM388.035 218.3H387.035V219.3H388.035V218.3ZM397.235 218.3H398.235V217.3H397.235V218.3ZM397.235 268.2V269.2H398.235V268.2H397.235ZM388.035 268.2V267.2H387.035V268.2H388.035ZM388.035 278H387.035V279H388.035V278ZM416.335 278V279H417.335V278H416.335ZM416.335 268.2H417.335V267.2H416.335V268.2ZM407.235 268.2H406.235V269.2H407.235V268.2ZM407.235 219.3H416.335V217.3H407.235V219.3ZM417.335 218.3V208H415.335V218.3H417.335ZM416.335 207H388.035V209H416.335V207ZM387.035 208V218.3H389.035V208H387.035ZM388.035 219.3H397.235V217.3H388.035V219.3ZM396.235 218.3V268.2H398.235V218.3H396.235ZM397.235 267.2H388.035V269.2H397.235V267.2ZM387.035 268.2V278H389.035V268.2H387.035ZM388.035 279H416.335V277H388.035V279ZM417.335 278V268.2H415.335V278H417.335ZM416.335 267.2H407.235V269.2H416.335V267.2ZM408.235 268.2V218.3H406.235V268.2H408.235ZM489.128 257.7L490.047 258.094L490.596 256.814L489.208 256.703L489.128 257.7ZM477.828 256.8L477.908 255.803L477.295 255.754L476.975 256.279L477.828 256.8ZM473.828 261.9L474.535 262.607L474.547 262.596L474.558 262.584L473.828 261.9ZM435.828 261.9L436.535 261.193L436.535 261.193L435.828 261.9ZM428.228 246.4V245.4H427.102L427.235 246.518L428.228 246.4ZM492.028 246.4V247.4H492.941L493.024 246.491L492.028 246.4ZM473.828 223.9L473.121 224.607L473.121 224.607L473.828 223.9ZM480.828 236.1V237.1H482.13L481.794 235.842L480.828 236.1ZM428.828 236.1L427.862 235.842L427.527 237.1H428.828V236.1ZM435.828 223.9L436.535 224.607L436.535 224.607L435.828 223.9ZM489.208 256.703L477.908 255.803L477.749 257.797L489.049 258.697L489.208 256.703ZM476.975 256.279C475.923 257.999 474.572 259.644 473.099 261.216L474.558 262.584C476.084 260.956 477.533 259.201 478.681 257.321L476.975 256.279ZM473.121 261.193C468.207 266.107 461.76 268.8 454.828 268.8V270.8C462.296 270.8 469.25 267.893 474.535 262.607L473.121 261.193ZM454.828 268.8C447.896 268.8 441.45 266.107 436.535 261.193L435.121 262.607C440.407 267.893 447.36 270.8 454.828 270.8V268.8ZM436.535 261.193C432.488 257.145 429.894 251.951 429.221 246.282L427.235 246.518C427.963 252.649 430.768 258.255 435.121 262.607L436.535 261.193ZM428.228 247.4H492.028V245.4H428.228V247.4ZM493.024 246.491C493.124 245.39 493.228 244.15 493.228 242.9H491.228C491.228 244.05 491.132 245.21 491.032 246.309L493.024 246.491ZM493.228 242.9C493.228 221.648 476.08 204.5 454.828 204.5V206.5C474.976 206.5 491.228 222.752 491.228 242.9H493.228ZM454.828 204.5C433.576 204.5 416.428 221.648 416.428 242.9H418.428C418.428 222.752 434.68 206.5 454.828 206.5V204.5ZM416.428 242.9C416.428 264.152 433.576 281.3 454.828 281.3V279.3C434.68 279.3 418.428 263.048 418.428 242.9H416.428ZM454.828 281.3C470.642 281.3 484.195 271.749 490.047 258.094L488.209 257.306C482.661 270.251 469.815 279.3 454.828 279.3V281.3ZM454.828 217C461.76 217 468.207 219.693 473.121 224.607L474.535 223.193C469.25 217.907 462.296 215 454.828 215V217ZM473.121 224.607C476.392 227.878 478.705 232.021 479.862 236.358L481.794 235.842C480.551 231.179 478.065 226.722 474.535 223.193L473.121 224.607ZM480.828 235.1H428.828V237.1H480.828V235.1ZM429.794 236.358C430.951 232.021 433.265 227.878 436.535 224.607L435.121 223.193C431.592 226.722 429.105 231.179 427.862 235.842L429.794 236.358ZM436.535 224.607C441.45 219.693 447.896 217 454.828 217V215C447.36 215 440.407 217.907 435.121 223.193L436.535 224.607ZM530.532 208V207H529.671L529.543 207.851L530.532 208ZM521.532 267.7V268.7H522.393L522.521 267.849L521.532 267.7ZM515.032 267.7L514.046 267.865L514.186 268.7H515.032V267.7ZM505.032 208L506.018 207.835L505.878 207H505.032V208ZM494.832 208V207H493.679L493.842 208.141L494.832 208ZM504.832 278L503.842 278.141L503.965 279H504.832V278ZM531.832 278V279H532.712L532.824 278.128L531.832 278ZM540.832 208L541.824 208.128L541.969 207H540.832V208ZM529.543 207.851L520.543 267.551L522.521 267.849L531.521 208.149L529.543 207.851ZM521.532 266.7H515.032V268.7H521.532V266.7ZM516.018 267.535L506.018 207.835L504.046 208.165L514.046 267.865L516.018 267.535ZM505.032 207H494.832V209H505.032V207ZM493.842 208.141L503.842 278.141L505.822 277.859L495.822 207.859L493.842 208.141ZM504.832 279H531.832V277H504.832V279ZM532.824 278.128L541.824 208.128L539.84 207.872L530.84 277.872L532.824 278.128ZM540.832 207H530.532V209H540.832V207ZM618.132 257.7L619.051 258.094L619.6 256.814L618.211 256.703L618.132 257.7ZM606.832 256.8L606.911 255.803L606.299 255.754L605.979 256.279L606.832 256.8ZM602.832 261.9L603.539 262.607L603.551 262.596L603.562 262.584L602.832 261.9ZM564.832 261.9L565.539 261.193L565.539 261.193L564.832 261.9ZM557.232 246.4V245.4H556.106L556.239 246.518L557.232 246.4ZM621.032 246.4V247.4H621.945L622.028 246.491L621.032 246.4ZM602.832 223.9L602.125 224.607L602.125 224.607L602.832 223.9ZM609.832 236.1V237.1H611.134L610.798 235.842L609.832 236.1ZM557.832 236.1L556.866 235.842L556.53 237.1H557.832V236.1ZM564.832 223.9L565.539 224.607L565.539 224.607L564.832 223.9ZM618.211 256.703L606.911 255.803L606.753 257.797L618.053 258.697L618.211 256.703ZM605.979 256.279C604.927 257.999 603.576 259.644 602.102 261.216L603.562 262.584C605.088 260.956 606.537 259.201 607.685 257.321L605.979 256.279ZM602.125 261.193C597.211 266.107 590.764 268.8 583.832 268.8V270.8C591.3 270.8 598.253 267.893 603.539 262.607L602.125 261.193ZM583.832 268.8C576.9 268.8 570.453 266.107 565.539 261.193L564.125 262.607C569.411 267.893 576.364 270.8 583.832 270.8V268.8ZM565.539 261.193C561.492 257.145 558.898 251.951 558.225 246.282L556.239 246.518C556.966 252.649 559.772 258.255 564.125 262.607L565.539 261.193ZM557.232 247.4H621.032V245.4H557.232V247.4ZM622.028 246.491C622.128 245.39 622.232 244.15 622.232 242.9H620.232C620.232 244.05 620.136 245.21 620.036 246.309L622.028 246.491ZM622.232 242.9C622.232 221.648 605.084 204.5 583.832 204.5V206.5C603.98 206.5 620.232 222.752 620.232 242.9H622.232ZM583.832 204.5C562.58 204.5 545.432 221.648 545.432 242.9H547.432C547.432 222.752 563.684 206.5 583.832 206.5V204.5ZM545.432 242.9C545.432 264.152 562.58 281.3 583.832 281.3V279.3C563.684 279.3 547.432 263.048 547.432 242.9H545.432ZM583.832 281.3C599.645 281.3 613.199 271.749 619.051 258.094L617.213 257.306C611.665 270.251 598.819 279.3 583.832 279.3V281.3ZM583.832 217C590.764 217 597.211 219.693 602.125 224.607L603.539 223.193C598.253 217.907 591.3 215 583.832 215V217ZM602.125 224.607C605.396 227.878 607.709 232.021 608.866 236.358L610.798 235.842C609.555 231.179 607.069 226.722 603.539 223.193L602.125 224.607ZM609.832 235.1H557.832V237.1H609.832V235.1ZM558.798 236.358C559.955 232.021 562.269 227.878 565.539 224.607L564.125 223.193C560.596 226.722 558.109 231.179 556.866 235.842L558.798 236.358ZM565.539 224.607C570.453 219.693 576.9 217 583.832 217V215C576.364 215 569.411 217.907 564.125 223.193L565.539 224.607Z" fill="black"/>
<path d="M53.8 208L54.7934 207.886L54.6915 207H53.8V208ZM29.9 208V207H29.0118L28.907 207.882L29.9 208ZM22.7 268.6V269.6H23.5882L23.693 268.718L22.7 268.6ZM16.8 268.6L15.8 268.597L15.7967 269.6H16.8V268.6ZM17 208L18 208.003L18.0033 207H17V208ZM6 208V207H5V208H6ZM6 278H5V279H6V278ZM32.3 278V279H33.1982L33.2943 278.107L32.3 278ZM38.8 217.6V216.6H37.9018L37.8057 217.493L38.8 217.6ZM44.6 217.6L45.5943 217.493L45.4982 216.6H44.6V217.6ZM51.1 278L50.1057 278.107L50.2018 279H51.1V278ZM77.4 278V279H78.4V278H77.4ZM77.4 208H78.4V207H77.4V208ZM66.8 208V207H65.8V208H66.8ZM66.8 268.8V269.8H67.8V268.8H66.8ZM60.8 268.8L59.8066 268.914L59.9085 269.8H60.8V268.8ZM53.8 207H29.9V209H53.8V207ZM28.907 207.882L21.707 268.482L23.693 268.718L30.893 208.118L28.907 207.882ZM22.7 267.6H16.8V269.6H22.7V267.6ZM17.8 268.603L18 208.003L16 207.997L15.8 268.597L17.8 268.603ZM17 207H6V209H17V207ZM5 208V278H7V208H5ZM6 279H32.3V277H6V279ZM33.2943 278.107L39.7943 217.707L37.8057 217.493L31.3057 277.893L33.2943 278.107ZM38.8 218.6H44.6V216.6H38.8V218.6ZM43.6057 217.707L50.1057 278.107L52.0943 277.893L45.5943 217.493L43.6057 217.707ZM51.1 279H77.4V277H51.1V279ZM78.4 278V208H76.4V278H78.4ZM77.4 207H66.8V209H77.4V207ZM65.8 208V268.8H67.8V208H65.8ZM66.8 267.8H60.8V269.8H66.8V267.8ZM61.7934 268.686L54.7934 207.886L52.8066 208.114L59.8066 268.914L61.7934 268.686ZM156.218 257.7L157.137 258.094L157.686 256.814L156.297 256.703L156.218 257.7ZM144.918 256.8L144.997 255.803L144.385 255.754L144.065 256.279L144.918 256.8ZM140.918 261.9L141.625 262.607L141.636 262.596L141.648 262.584L140.918 261.9ZM102.918 261.9L103.625 261.193L103.625 261.193L102.918 261.9ZM95.318 246.4V245.4H94.1923L94.3249 246.518L95.318 246.4ZM159.118 246.4V247.4H160.031L160.114 246.491L159.118 246.4ZM140.918 223.9L140.211 224.607L140.211 224.607L140.918 223.9ZM147.918 236.1V237.1H149.22L148.884 235.842L147.918 236.1ZM95.918 236.1L94.9517 235.842L94.6164 237.1H95.918V236.1ZM102.918 223.9L103.625 224.607L103.625 224.607L102.918 223.9ZM156.297 256.703L144.997 255.803L144.839 257.797L156.139 258.697L156.297 256.703ZM144.065 256.279C143.013 257.999 141.662 259.644 140.188 261.216L141.648 262.584C143.174 260.956 144.623 259.201 145.771 257.321L144.065 256.279ZM140.211 261.193C135.297 266.107 128.85 268.8 121.918 268.8V270.8C129.386 270.8 136.339 267.893 141.625 262.607L140.211 261.193ZM121.918 268.8C114.986 268.8 108.539 266.107 103.625 261.193L102.211 262.607C107.497 267.893 114.45 270.8 121.918 270.8V268.8ZM103.625 261.193C99.5777 257.145 96.9835 251.951 96.311 246.282L94.3249 246.518C95.0524 252.649 97.8583 258.255 102.211 262.607L103.625 261.193ZM95.318 247.4H159.118V245.4H95.318V247.4ZM160.114 246.491C160.214 245.39 160.318 244.15 160.318 242.9H158.318C158.318 244.05 158.222 245.21 158.122 246.309L160.114 246.491ZM160.318 242.9C160.318 221.648 143.17 204.5 121.918 204.5V206.5C142.066 206.5 158.318 222.752 158.318 242.9H160.318ZM121.918 204.5C100.666 204.5 83.518 221.648 83.518 242.9H85.518C85.518 222.752 101.77 206.5 121.918 206.5V204.5ZM83.518 242.9C83.518 264.152 100.666 281.3 121.918 281.3V279.3C101.77 279.3 85.518 263.048 85.518 242.9H83.518ZM121.918 281.3C137.731 281.3 151.285 271.749 157.137 258.094L155.299 257.306C149.751 270.251 136.905 279.3 121.918 279.3V281.3ZM121.918 217C128.85 217 135.297 219.693 140.211 224.607L141.625 223.193C136.339 217.907 129.386 215 121.918 215V217ZM140.211 224.607C143.481 227.878 145.795 232.021 146.952 236.358L148.884 235.842C147.641 231.179 145.154 226.722 141.625 223.193L140.211 224.607ZM147.918 235.1H95.918V237.1H147.918V235.1ZM96.8842 236.358C98.0407 232.021 100.354 227.878 103.625 224.607L102.211 223.193C98.6815 226.722 96.1952 231.179 94.9517 235.842L96.8842 236.358ZM103.625 224.607C108.539 219.693 114.986 217 121.918 217V215C114.45 215 107.497 217.907 102.211 223.193L103.625 224.607ZM260.01 277.8V278.8H261.01V277.8H260.01ZM260.01 236.2H261.01V235.2H260.01V236.2ZM259.91 236.2H258.91V237.2H259.91V236.2ZM259.91 235.5H260.91V234.5H259.91V235.5ZM240.31 235.5H239.31V236.5H240.31V235.5ZM240.31 208H241.31V207H240.31V208ZM200.41 208V207H199.41V208H200.41ZM200.41 277.8H199.41V278.8H200.41V277.8ZM230.01 235.5V236.5H231.01V235.5H230.01ZM210.71 235.5H209.71V236.5H210.71V235.5ZM210.71 218.3V217.3H209.71V218.3H210.71ZM230.01 218.3H231.01V217.3H230.01V218.3ZM210.71 267.5H209.71V268.5H210.71V267.5ZM210.71 245.7V244.7H209.71V245.7H210.71ZM249.71 245.7H250.71V244.7H249.71V245.7ZM249.71 267.5V268.5H250.71V267.5H249.71ZM261.01 277.8V236.2H259.01V277.8H261.01ZM260.01 235.2H259.91V237.2H260.01V235.2ZM260.91 236.2V235.5H258.91V236.2H260.91ZM259.91 234.5H240.31V236.5H259.91V234.5ZM241.31 235.5V208H239.31V235.5H241.31ZM240.31 207H200.41V209H240.31V207ZM199.41 208V277.8H201.41V208H199.41ZM200.41 278.8H260.01V276.8H200.41V278.8ZM230.01 234.5H210.71V236.5H230.01V234.5ZM211.71 235.5V218.3H209.71V235.5H211.71ZM210.71 219.3H230.01V217.3H210.71V219.3ZM229.01 218.3V235.5H231.01V218.3H229.01ZM211.71 267.5V245.7H209.71V267.5H211.71ZM210.71 246.7H249.71V244.7H210.71V246.7ZM248.71 245.7V267.5H250.71V245.7H248.71ZM249.71 266.5H210.71V268.5H249.71V266.5ZM337.761 257.7L338.68 258.094L339.229 256.814L337.84 256.703L337.761 257.7ZM326.461 256.8L326.54 255.803L325.928 255.754L325.608 256.279L326.461 256.8ZM322.461 261.9L323.168 262.607L323.179 262.596L323.19 262.584L322.461 261.9ZM284.461 261.9L285.168 261.193L285.168 261.193L284.461 261.9ZM276.861 246.4V245.4H275.735L275.868 246.518L276.861 246.4ZM340.661 246.4V247.4H341.574L341.657 246.491L340.661 246.4ZM322.461 223.9L321.754 224.607L321.754 224.607L322.461 223.9ZM329.461 236.1V237.1H330.763L330.427 235.842L329.461 236.1ZM277.461 236.1L276.495 235.842L276.159 237.1H277.461V236.1ZM284.461 223.9L285.168 224.607L285.168 224.607L284.461 223.9ZM337.84 256.703L326.54 255.803L326.382 257.797L337.682 258.697L337.84 256.703ZM325.608 256.279C324.556 257.999 323.205 259.644 321.731 261.216L323.19 262.584C324.717 260.956 326.166 259.201 327.314 257.321L325.608 256.279ZM321.754 261.193C316.84 266.107 310.393 268.8 303.461 268.8V270.8C310.929 270.8 317.882 267.893 323.168 262.607L321.754 261.193ZM303.461 268.8C296.529 268.8 290.082 266.107 285.168 261.193L283.754 262.607C289.04 267.893 295.993 270.8 303.461 270.8V268.8ZM285.168 261.193C281.121 257.145 278.527 251.951 277.854 246.282L275.868 246.518C276.595 252.649 279.401 258.255 283.754 262.607L285.168 261.193ZM276.861 247.4H340.661V245.4H276.861V247.4ZM341.657 246.491C341.757 245.39 341.861 244.15 341.861 242.9H339.861C339.861 244.05 339.765 245.21 339.665 246.309L341.657 246.491ZM341.861 242.9C341.861 221.648 324.713 204.5 303.461 204.5V206.5C323.609 206.5 339.861 222.752 339.861 242.9H341.861ZM303.461 204.5C282.209 204.5 265.061 221.648 265.061 242.9H267.061C267.061 222.752 283.313 206.5 303.461 206.5V204.5ZM265.061 242.9C265.061 264.152 282.209 281.3 303.461 281.3V279.3C283.313 279.3 267.061 263.048 267.061 242.9H265.061ZM303.461 281.3C319.274 281.3 332.828 271.749 338.68 258.094L336.842 257.306C331.294 270.251 318.448 279.3 303.461 279.3V281.3ZM303.461 217C310.393 217 316.84 219.693 321.754 224.607L323.168 223.193C317.882 217.907 310.929 215 303.461 215V217ZM321.754 224.607C325.024 227.878 327.338 232.021 328.495 236.358L330.427 235.842C329.184 231.179 326.697 226.722 323.168 223.193L321.754 224.607ZM329.461 235.1H277.461V237.1H329.461V235.1ZM278.427 236.358C279.584 232.021 281.897 227.878 285.168 224.607L283.754 223.193C280.224 226.722 277.738 231.179 276.495 235.842L278.427 236.358ZM285.168 224.607C290.082 219.693 296.529 217 303.461 217V215C295.993 215 289.04 217.907 283.754 223.193L285.168 224.607ZM358.244 268.2H357.244V269.2H358.244V268.2ZM358.244 208H359.244V207H358.244V208ZM347.744 208V207H346.744V208H347.744ZM347.744 278H346.744V279H347.744V278ZM382.044 278V279H383.044V278H382.044ZM382.044 268.2H383.044V267.2H382.044V268.2ZM359.244 268.2V208H357.244V268.2H359.244ZM358.244 207H347.744V209H358.244V207ZM346.744 208V278H348.744V208H346.744ZM347.744 279H382.044V277H347.744V279ZM383.044 278V268.2H381.044V278H383.044ZM382.044 267.2H358.244V269.2H382.044V267.2ZM407.235 218.3V217.3H406.235V218.3H407.235ZM416.335 218.3V219.3H417.335V218.3H416.335ZM416.335 208H417.335V207H416.335V208ZM388.035 208V207H387.035V208H388.035ZM388.035 218.3H387.035V219.3H388.035V218.3ZM397.235 218.3H398.235V217.3H397.235V218.3ZM397.235 268.2V269.2H398.235V268.2H397.235ZM388.035 268.2V267.2H387.035V268.2H388.035ZM388.035 278H387.035V279H388.035V278ZM416.335 278V279H417.335V278H416.335ZM416.335 268.2H417.335V267.2H416.335V268.2ZM407.235 268.2H406.235V269.2H407.235V268.2ZM407.235 219.3H416.335V217.3H407.235V219.3ZM417.335 218.3V208H415.335V218.3H417.335ZM416.335 207H388.035V209H416.335V207ZM387.035 208V218.3H389.035V208H387.035ZM388.035 219.3H397.235V217.3H388.035V219.3ZM396.235 218.3V268.2H398.235V218.3H396.235ZM397.235 267.2H388.035V269.2H397.235V267.2ZM387.035 268.2V278H389.035V268.2H387.035ZM388.035 279H416.335V277H388.035V279ZM417.335 278V268.2H415.335V278H417.335ZM416.335 267.2H407.235V269.2H416.335V267.2ZM408.235 268.2V218.3H406.235V268.2H408.235ZM489.128 257.7L490.047 258.094L490.596 256.814L489.208 256.703L489.128 257.7ZM477.828 256.8L477.908 255.803L477.295 255.754L476.975 256.279L477.828 256.8ZM473.828 261.9L474.535 262.607L474.547 262.596L474.558 262.584L473.828 261.9ZM435.828 261.9L436.535 261.193L436.535 261.193L435.828 261.9ZM428.228 246.4V245.4H427.102L427.235 246.518L428.228 246.4ZM492.028 246.4V247.4H492.941L493.024 246.491L492.028 246.4ZM473.828 223.9L473.121 224.607L473.121 224.607L473.828 223.9ZM480.828 236.1V237.1H482.13L481.794 235.842L480.828 236.1ZM428.828 236.1L427.862 235.842L427.527 237.1H428.828V236.1ZM435.828 223.9L436.535 224.607L436.535 224.607L435.828 223.9ZM489.208 256.703L477.908 255.803L477.749 257.797L489.049 258.697L489.208 256.703ZM476.975 256.279C475.923 257.999 474.572 259.644 473.099 261.216L474.558 262.584C476.084 260.956 477.533 259.201 478.681 257.321L476.975 256.279ZM473.121 261.193C468.207 266.107 461.76 268.8 454.828 268.8V270.8C462.296 270.8 469.25 267.893 474.535 262.607L473.121 261.193ZM454.828 268.8C447.896 268.8 441.45 266.107 436.535 261.193L435.121 262.607C440.407 267.893 447.36 270.8 454.828 270.8V268.8ZM436.535 261.193C432.488 257.145 429.894 251.951 429.221 246.282L427.235 246.518C427.963 252.649 430.768 258.255 435.121 262.607L436.535 261.193ZM428.228 247.4H492.028V245.4H428.228V247.4ZM493.024 246.491C493.124 245.39 493.228 244.15 493.228 242.9H491.228C491.228 244.05 491.132 245.21 491.032 246.309L493.024 246.491ZM493.228 242.9C493.228 221.648 476.08 204.5 454.828 204.5V206.5C474.976 206.5 491.228 222.752 491.228 242.9H493.228ZM454.828 204.5C433.576 204.5 416.428 221.648 416.428 242.9H418.428C418.428 222.752 434.68 206.5 454.828 206.5V204.5ZM416.428 242.9C416.428 264.152 433.576 281.3 454.828 281.3V279.3C434.68 279.3 418.428 263.048 418.428 242.9H416.428ZM454.828 281.3C470.642 281.3 484.195 271.749 490.047 258.094L488.209 257.306C482.661 270.251 469.815 279.3 454.828 279.3V281.3ZM454.828 217C461.76 217 468.207 219.693 473.121 224.607L474.535 223.193C469.25 217.907 462.296 215 454.828 215V217ZM473.121 224.607C476.392 227.878 478.705 232.021 479.862 236.358L481.794 235.842C480.551 231.179 478.065 226.722 474.535 223.193L473.121 224.607ZM480.828 235.1H428.828V237.1H480.828V235.1ZM429.794 236.358C430.951 232.021 433.265 227.878 436.535 224.607L435.121 223.193C431.592 226.722 429.105 231.179 427.862 235.842L429.794 236.358ZM436.535 224.607C441.45 219.693 447.896 217 454.828 217V215C447.36 215 440.407 217.907 435.121 223.193L436.535 224.607ZM530.532 208V207H529.671L529.543 207.851L530.532 208ZM521.532 267.7V268.7H522.393L522.521 267.849L521.532 267.7ZM515.032 267.7L514.046 267.865L514.186 268.7H515.032V267.7ZM505.032 208L506.018 207.835L505.878 207H505.032V208ZM494.832 208V207H493.679L493.842 208.141L494.832 208ZM504.832 278L503.842 278.141L503.965 279H504.832V278ZM531.832 278V279H532.712L532.824 278.128L531.832 278ZM540.832 208L541.824 208.128L541.969 207H540.832V208ZM529.543 207.851L520.543 267.551L522.521 267.849L531.521 208.149L529.543 207.851ZM521.532 266.7H515.032V268.7H521.532V266.7ZM516.018 267.535L506.018 207.835L504.046 208.165L514.046 267.865L516.018 267.535ZM505.032 207H494.832V209H505.032V207ZM493.842 208.141L503.842 278.141L505.822 277.859L495.822 207.859L493.842 208.141ZM504.832 279H531.832V277H504.832V279ZM532.824 278.128L541.824 208.128L539.84 207.872L530.84 277.872L532.824 278.128ZM540.832 207H530.532V209H540.832V207ZM618.132 257.7L619.051 258.094L619.6 256.814L618.211 256.703L618.132 257.7ZM606.832 256.8L606.911 255.803L606.299 255.754L605.979 256.279L606.832 256.8ZM602.832 261.9L603.539 262.607L603.551 262.596L603.562 262.584L602.832 261.9ZM564.832 261.9L565.539 261.193L565.539 261.193L564.832 261.9ZM557.232 246.4V245.4H556.106L556.239 246.518L557.232 246.4ZM621.032 246.4V247.4H621.945L622.028 246.491L621.032 246.4ZM602.832 223.9L602.125 224.607L602.125 224.607L602.832 223.9ZM609.832 236.1V237.1H611.134L610.798 235.842L609.832 236.1ZM557.832 236.1L556.866 235.842L556.53 237.1H557.832V236.1ZM564.832 223.9L565.539 224.607L565.539 224.607L564.832 223.9ZM618.211 256.703L606.911 255.803L606.753 257.797L618.053 258.697L618.211 256.703ZM605.979 256.279C604.927 257.999 603.576 259.644 602.102 261.216L603.562 262.584C605.088 260.956 606.537 259.201 607.685 257.321L605.979 256.279ZM602.125 261.193C597.211 266.107 590.764 268.8 583.832 268.8V270.8C591.3 270.8 598.253 267.893 603.539 262.607L602.125 261.193ZM583.832 268.8C576.9 268.8 570.453 266.107 565.539 261.193L564.125 262.607C569.411 267.893 576.364 270.8 583.832 270.8V268.8ZM565.539 261.193C561.492 257.145 558.898 251.951 558.225 246.282L556.239 246.518C556.966 252.649 559.772 258.255 564.125 262.607L565.539 261.193ZM557.232 247.4H621.032V245.4H557.232V247.4ZM622.028 246.491C622.128 245.39 622.232 244.15 622.232 242.9H620.232C620.232 244.05 620.136 245.21 620.036 246.309L622.028 246.491ZM622.232 242.9C622.232 221.648 605.084 204.5 583.832 204.5V206.5C603.98 206.5 620.232 222.752 620.232 242.9H622.232ZM583.832 204.5C562.58 204.5 545.432 221.648 545.432 242.9H547.432C547.432 222.752 563.684 206.5 583.832 206.5V204.5ZM545.432 242.9C545.432 264.152 562.58 281.3 583.832 281.3V279.3C563.684 279.3 547.432 263.048 547.432 242.9H545.432ZM583.832 281.3C599.645 281.3 613.199 271.749 619.051 258.094L617.213 257.306C611.665 270.251 598.819 279.3 583.832 279.3V281.3ZM583.832 217C590.764 217 597.211 219.693 602.125 224.607L603.539 223.193C598.253 217.907 591.3 215 583.832 215V217ZM602.125 224.607C605.396 227.878 607.709 232.021 608.866 236.358L610.798 235.842C609.555 231.179 607.069 226.722 603.539 223.193L602.125 224.607ZM609.832 235.1H557.832V237.1H609.832V235.1ZM558.798 236.358C559.955 232.021 562.269 227.878 565.539 224.607L564.125 223.193C560.596 226.722 558.109 231.179 556.866 235.842L558.798 236.358ZM565.539 224.607C570.453 219.693 576.9 217 583.832 217V215C576.364 215 569.411 217.907 564.125 223.193L565.539 224.607Z" fill="url(#paint2_linear)"/>
</g>
<defs>
<linearGradient id="paint0_linear" x1="312.5" y1="0" x2="312.5" y2="87" gradientUnits="userSpaceOnUse">
<stop offset="0.00520833" stop-color="#FFD26D"/>
<stop offset="0.526042" stop-color="#F32740"/>
<stop offset="1" stop-color="#B314E2"/>
</linearGradient>
<linearGradient id="paint1_linear" x1="312.5" y1="96" x2="312.5" y2="183" gradientUnits="userSpaceOnUse">
<stop offset="0.00520833" stop-color="#FFD26D"/>
<stop offset="0.526042" stop-color="#F32740"/>
<stop offset="1" stop-color="#B314E2"/>
</linearGradient>
<linearGradient id="paint2_linear" x1="312.5" y1="194" x2="312.5" y2="281" gradientUnits="userSpaceOnUse">
<stop offset="0.00520833" stop-color="#FFD26D"/>
<stop offset="0.526042" stop-color="#F32740"/>
<stop offset="1" stop-color="#B314E2"/>
</linearGradient>
</defs>
</svg>
